<?xml version="1.0" encoding="UTF-8"?>
<svg xmlns="http://www.w3.org/2000/svg" xmlns:xlink="http://www.w3.org/1999/xlink" version="1.2" >
<font id="1898 Sans">
<font-face  font-family="1898 Sans" units-per-em="2048" ascent="1536" descent="-512" font-style="normal" font-weight="400" font-stretch="normal" cap-height="1536" x-height="1161" underline-position="-154" underline-thickness="102" />
<missing-glyph  horiz-adv-x="588" d="" />
<glyph glyph-name="space" unicode="&#x20;" horiz-adv-x="581" d="" />
<glyph glyph-name="A" unicode="A" horiz-adv-x="1488" d="M1412 88 L1400 13 Q1397 0 1386 0 L1241 0 Q1230 0 1225 12 L1101 344 L383 344 L256 11 Q253 0 241 0 L102 0 Q96 0 93 3 Q90 6 88 12 L76 87 L630 1521 Q634 1534 645 1534 L858 1534 Q869 1534 873 1521 L1412 88 Z M1039 510 L747 1294 L447 510 L1039 510 Z " />
<glyph glyph-name="Aacute" unicode="&#xc1;" horiz-adv-x="1488" d="M1412 88 L1400 13 Q1397 0 1386 0 L1241 0 Q1230 0 1225 12 L1101 344 L383 344 L256 11 Q253 0 241 0 L102 0 Q96 0 93 3 Q90 6 88 12 L76 87 L630 1521 Q634 1534 645 1534 L858 1534 Q869 1534 873 1521 L1412 88 Z M1039 510 L747 1294 L447 510 L1039 510 Z M661 1625 Q646 1625 646 1634 Q646 1638 649 1644 L812 1948 Q816 1958 821 1961 Q826 1964 835 1964 L1035 1964 Q1050 1964 1050 1952 Q1050 1946 1048 1943 L865 1642 Q859 1632 854 1628.5 Q849 1625 839 1625 L661 1625 Z " />
<glyph glyph-name="Abreve" unicode="&#x102;" horiz-adv-x="1488" d="M1412 88 L1400 13 Q1397 0 1386 0 L1241 0 Q1230 0 1225 12 L1101 344 L383 344 L256 11 Q253 0 241 0 L102 0 Q96 0 93 3 Q90 6 88 12 L76 87 L630 1521 Q634 1534 645 1534 L858 1534 Q869 1534 873 1521 L1412 88 Z M1039 510 L747 1294 L447 510 L1039 510 Z M752 1593 Q622 1593 533.5 1635 Q445 1677 398 1738 Q351 1799 333 1863 L361 1949 Q365 1963 380 1963 L493 1963 Q503 1963 507.5 1959.5 Q512 1956 513 1946 Q518 1893 547 1846.5 Q576 1800 628 1771 Q680 1742 752 1742 Q824 1742 876 1771 Q928 1800 956.5 1846.5 Q985 1893 991 1946 Q992 1955 996.5 1959 Q1001 1963 1010 1963 L1123 1963 Q1137 1963 1143 1949 L1171 1863 Q1153 1799 1106 1738 Q1059 1677 970 1635 Q881 1593 752 1593 Z " />
<glyph glyph-name="Acircumflex" unicode="&#xc2;" horiz-adv-x="1488" d="M1412 88 L1400 13 Q1397 0 1386 0 L1241 0 Q1230 0 1225 12 L1101 344 L383 344 L256 11 Q253 0 241 0 L102 0 Q96 0 93 3 Q90 6 88 12 L76 87 L630 1521 Q634 1534 645 1534 L858 1534 Q869 1534 873 1521 L1412 88 Z M1039 510 L747 1294 L447 510 L1039 510 Z M367 1632 Q355 1632 355 1640 Q355 1645 361 1651 L614 1942 Q624 1952 629.5 1955 Q635 1958 644 1958 L856 1958 Q865 1958 871 1954.5 Q877 1951 885 1942 L1141 1651 Q1147 1645 1147 1640 Q1147 1632 1135 1632 L964 1632 Q947 1632 931 1649 L751 1849 L570 1649 Q556 1632 538 1632 L367 1632 Z " />
<glyph glyph-name="Adieresis" unicode="&#xc4;" horiz-adv-x="1488" d="M1412 88 L1400 13 Q1397 0 1386 0 L1241 0 Q1230 0 1225 12 L1101 344 L383 344 L256 11 Q253 0 241 0 L102 0 Q96 0 93 3 Q90 6 88 12 L76 87 L630 1521 Q634 1534 645 1534 L858 1534 Q869 1534 873 1521 L1412 88 Z M1039 510 L747 1294 L447 510 L1039 510 Z M501 1668 Q492 1668 488 1672 Q484 1676 484 1686 L484 1844 Q484 1862 501 1862 L661 1862 Q670 1862 675 1857 Q680 1852 680 1844 L680 1686 Q680 1668 661 1668 L501 1668 Z M839 1668 Q830 1668 826 1672 Q822 1676 822 1686 L822 1844 Q822 1862 839 1862 L999 1862 Q1008 1862 1013 1857 Q1018 1852 1018 1844 L1018 1686 Q1018 1668 999 1668 L839 1668 Z " />
<glyph glyph-name="Agrave" unicode="&#xc0;" horiz-adv-x="1488" d="M1412 88 L1400 13 Q1397 0 1386 0 L1241 0 Q1230 0 1225 12 L1101 344 L383 344 L256 11 Q253 0 241 0 L102 0 Q96 0 93 3 Q90 6 88 12 L76 87 L630 1521 Q634 1534 645 1534 L858 1534 Q869 1534 873 1521 L1412 88 Z M1039 510 L747 1294 L447 510 L1039 510 Z M668 1625 Q658 1625 653 1628.5 Q648 1632 642 1642 L454 1943 Q452 1946 452 1952 Q452 1964 467 1964 L667 1964 Q676 1964 681 1961 Q686 1958 691 1948 L856 1644 Q860 1639 860 1633 Q860 1625 846 1625 L668 1625 Z " />
<glyph glyph-name="Amacron" unicode="&#x100;" horiz-adv-x="1488" d="M1412 88 L1400 13 Q1397 0 1386 0 L1241 0 Q1230 0 1225 12 L1101 344 L383 344 L256 11 Q253 0 241 0 L102 0 Q96 0 93 3 Q90 6 88 12 L76 87 L630 1521 Q634 1534 645 1534 L858 1534 Q869 1534 873 1521 L1412 88 Z M1039 510 L747 1294 L447 510 L1039 510 Z M474 1707 Q465 1707 461.5 1711 Q458 1715 458 1725 L458 1857 Q458 1868 461 1871.5 Q464 1875 474 1875 L1026 1875 Q1036 1875 1040 1871 Q1044 1867 1044 1857 L1044 1725 Q1044 1715 1040 1711 Q1036 1707 1026 1707 L474 1707 Z " />
<glyph glyph-name="Aogonek" unicode="&#x104;" horiz-adv-x="1488" d="M1432 -301 Q1454 -301 1450 -319 L1437 -406 Q1435 -416 1431 -420 Q1427 -424 1419 -424 L1270 -424 Q1158 -424 1092.5 -374.5 Q1027 -325 1028 -239 Q1028 -166 1068.5 -112.5 Q1109 -59 1159.5 -27 Q1210 5 1210 0 L1230 4 Q1227 8 1225 12 L1101 344 L383 344 L256 11 Q253 0 241 0 L102 0 Q96 0 93 3 Q90 6 88 12 L76 87 L630 1521 Q634 1534 645 1534 L858 1534 Q869 1534 873 1521 L1412 88 L1400 13 Q1397 0 1386 0 L1374 0 Q1374 4 1321.5 -25 Q1269 -54 1227 -99.5 Q1185 -145 1185 -205 Q1185 -252 1217.5 -276.5 Q1250 -301 1308 -301 L1432 -301 Z M1039 510 L747 1294 L447 510 L1039 510 Z " />
<glyph glyph-name="Aring" unicode="&#xc5;" horiz-adv-x="1488" d="M1412 88 L1400 13 Q1397 0 1386 0 L1241 0 Q1230 0 1225 12 L1101 344 L383 344 L256 11 Q253 0 241 0 L102 0 Q96 0 93 3 Q90 6 88 12 L76 87 L630 1521 Q634 1534 645 1534 L858 1534 Q869 1534 873 1521 L1412 88 Z M1039 510 L747 1294 L447 510 L1039 510 Z M749 1616 Q674 1616 616.5 1646 Q559 1676 527.5 1731 Q496 1786 496 1858 Q496 1927 528 1982.5 Q560 2038 617.5 2070 Q675 2102 749 2102 Q822 2102 880.5 2070 Q939 2038 971.5 1982.5 Q1004 1927 1004 1858 Q1004 1787 971.5 1732 Q939 1677 881 1646.5 Q823 1616 749 1616 Z M750 1742 Q801 1742 832 1774 Q863 1806 863 1858 Q863 1911 832 1943.5 Q801 1976 750 1976 Q699 1976 668.5 1943.5 Q638 1911 638 1858 Q638 1805 668.5 1773.5 Q699 1742 750 1742 Z " />
<glyph glyph-name="Atilde" unicode="&#xc3;" horiz-adv-x="1488" d="M1412 88 L1400 13 Q1397 0 1386 0 L1241 0 Q1230 0 1225 12 L1101 344 L383 344 L256 11 Q253 0 241 0 L102 0 Q96 0 93 3 Q90 6 88 12 L76 87 L630 1521 Q634 1534 645 1534 L858 1534 Q869 1534 873 1521 L1412 88 Z M1039 510 L747 1294 L447 510 L1039 510 Z M944 1636 Q893 1636 854.5 1649.5 Q816 1663 789.5 1683 Q763 1703 730 1735 Q687 1775 656 1793.5 Q625 1812 580 1812 Q513 1812 482 1768 Q451 1724 451 1658 Q451 1642 432 1642 L324 1642 Q310 1642 306 1656 L289 1726 Q298 1782 327.5 1834.5 Q357 1887 415 1922.5 Q473 1958 560 1958 Q612 1958 651 1944 Q690 1930 717 1910 Q744 1890 778 1858 Q821 1819 851.5 1800.5 Q882 1782 925 1782 Q992 1782 1023 1825.5 Q1054 1869 1054 1935 Q1054 1951 1072 1951 L1180 1951 Q1194 1951 1198 1937 L1216 1867 Q1207 1811 1177 1759 Q1147 1707 1089 1671.5 Q1031 1636 944 1636 Z " />
<glyph glyph-name="AE" unicode="&#xc6;" horiz-adv-x="2156" d="M2046 175 Q2053 175 2056 172 Q2059 169 2059 162 L2059 12 Q2059 5 2056.5 2.5 Q2054 0 2046 0 L1058 0 Q1045 0 1045 13 L1045 345 L407 345 L271 12 Q266 0 255 0 L102 0 Q90 0 88 13 L76 89 L674 1519 Q679 1534 694 1534 L2023 1534 Q2031 1534 2033.5 1531.5 Q2036 1529 2036 1520 L2036 1370 Q2036 1363 2033.5 1360.5 Q2031 1358 2023 1358 L1253 1358 L1253 846 L1951 846 Q1959 846 1962 843.5 Q1965 841 1965 834 L1965 686 Q1965 674 1951 674 L1253 675 L1253 174 L2046 175 Z M1045 513 L1045 1360 L821 1359 L476 513 L1045 513 Z " />
<glyph glyph-name="B" unicode="B" horiz-adv-x="1391" d="M145 0 Q138 0 133 5 Q128 10 128 17 L128 1517 Q128 1525 133 1529.5 Q138 1534 145 1534 L823 1534 Q943 1534 1035 1487.5 Q1127 1441 1178.5 1349.5 Q1230 1258 1230 1128 Q1230 1019 1188.5 943 Q1147 867 1095.5 823 Q1044 779 1044 786 Q1044 794 1114.5 756 Q1185 718 1241.5 638 Q1298 558 1298 426 Q1298 297 1245.5 200.5 Q1193 104 1100.5 52 Q1008 0 890 0 L145 0 Z M801 851 Q870 851 923 882.5 Q976 914 1005 971.5 Q1034 1029 1034 1105 Q1034 1186 1001 1244 Q968 1302 910 1331.5 Q852 1361 778 1361 L331 1361 L331 851 L801 851 Z M852 172 Q926 172 981 204 Q1036 236 1066 296.5 Q1096 357 1096 439 Q1096 554 1027 618.5 Q958 683 834 683 L331 683 L331 172 L852 172 Z " />
<glyph glyph-name="C" unicode="C" horiz-adv-x="1494" d="M796 -31 Q568 -31 410.5 67.5 Q253 166 173 345 Q93 524 93 766 Q93 1008 173 1187.5 Q253 1367 410.5 1465.5 Q568 1564 796 1564 Q981 1564 1108.5 1510.5 Q1236 1457 1307 1378 Q1378 1299 1409 1211 L1386 1136 Q1383 1123 1371 1123 L1235 1123 Q1226 1123 1221 1135 Q1184 1230 1086.5 1304.5 Q989 1379 804 1379 Q549 1379 427 1220 Q305 1061 305 766 Q305 471 427 313 Q549 155 804 155 Q988 155 1085 229 Q1182 303 1222 399 Q1225 406 1227.5 408 Q1230 410 1236 410 L1371 410 Q1378 410 1381 407.5 Q1384 405 1386 398 L1409 324 Q1378 236 1307 156.5 Q1236 77 1108.5 23 Q981 -31 796 -31 Z " />
<glyph glyph-name="Cacute" unicode="&#x106;" horiz-adv-x="1494" d="M796 -31 Q568 -31 410.5 67.5 Q253 166 173 345 Q93 524 93 766 Q93 1008 173 1187.5 Q253 1367 410.5 1465.5 Q568 1564 796 1564 Q981 1564 1108.5 1510.5 Q1236 1457 1307 1378 Q1378 1299 1409 1211 L1386 1136 Q1383 1123 1371 1123 L1235 1123 Q1226 1123 1221 1135 Q1184 1230 1086.5 1304.5 Q989 1379 804 1379 Q549 1379 427 1220 Q305 1061 305 766 Q305 471 427 313 Q549 155 804 155 Q988 155 1085 229 Q1182 303 1222 399 Q1225 406 1227.5 408 Q1230 410 1236 410 L1371 410 Q1378 410 1381 407.5 Q1384 405 1386 398 L1409 324 Q1378 236 1307 156.5 Q1236 77 1108.5 23 Q981 -31 796 -31 Z M705 1649 Q690 1649 690 1658 Q690 1662 693 1668 L856 1972 Q860 1982 865 1985 Q870 1988 879 1988 L1079 1988 Q1094 1988 1094 1976 Q1094 1970 1092 1967 L909 1666 Q903 1656 898 1652.5 Q893 1649 883 1649 L705 1649 Z " />
<glyph glyph-name="Ccaron" unicode="&#x10c;" horiz-adv-x="1494" d="M796 -31 Q568 -31 410.5 67.5 Q253 166 173 345 Q93 524 93 766 Q93 1008 173 1187.5 Q253 1367 410.5 1465.5 Q568 1564 796 1564 Q981 1564 1108.5 1510.5 Q1236 1457 1307 1378 Q1378 1299 1409 1211 L1386 1136 Q1383 1123 1371 1123 L1235 1123 Q1226 1123 1221 1135 Q1184 1230 1086.5 1304.5 Q989 1379 804 1379 Q549 1379 427 1220 Q305 1061 305 766 Q305 471 427 313 Q549 155 804 155 Q988 155 1085 229 Q1182 303 1222 399 Q1225 406 1227.5 408 Q1230 410 1236 410 L1371 410 Q1378 410 1381 407.5 Q1384 405 1386 398 L1409 324 Q1378 236 1307 156.5 Q1236 77 1108.5 23 Q981 -31 796 -31 Z M691 1662 Q682 1662 676 1665.5 Q670 1669 661 1678 L407 1969 Q401 1975 401 1981 Q401 1988 412 1988 L583 1988 Q601 1988 616 1970 L798 1773 L976 1970 Q993 1988 1009 1988 L1180 1988 Q1193 1988 1193 1980 Q1193 1975 1187 1969 L933 1678 Q925 1669 918.5 1665.5 Q912 1662 902 1662 L691 1662 Z " />
<glyph glyph-name="Ccedilla" unicode="&#xc7;" horiz-adv-x="1494" d="M1371 410 Q1378 410 1381 407.5 Q1384 405 1386 398 L1409 324 Q1380 241 1315 165 Q1250 89 1134.5 34 Q1019 -21 853 -30 L803 -103 L869 -103 Q951 -103 999 -142.5 Q1047 -182 1047 -261 Q1047 -339 997 -381.5 Q947 -424 865 -424 L664 -424 Q654 -424 650 -420.5 Q646 -417 643 -407 L628 -346 Q627 -344 627 -340 Q627 -326 646 -326 L827 -326 Q908 -326 908 -260 Q908 -226 888 -209 Q868 -192 831 -192 L643 -192 Q630 -192 630 -183 Q630 -179 633 -173 L729 -29 Q523 -14 380 87.5 Q237 189 165 363 Q93 537 93 766 Q93 1008 173 1187.5 Q253 1367 410.5 1465.5 Q568 1564 796 1564 Q981 1564 1108.5 1510.5 Q1236 1457 1307 1378 Q1378 1299 1409 1211 L1386 1136 Q1383 1123 1371 1123 L1235 1123 Q1226 1123 1221 1135 Q1184 1230 1086.5 1304.5 Q989 1379 804 1379 Q549 1379 427 1220 Q305 1061 305 766 Q305 471 427 313 Q549 155 804 155 Q988 155 1085 229 Q1182 303 1222 399 Q1225 406 1227.5 408 Q1230 410 1236 410 L1371 410 Z " />
<glyph glyph-name="Cdotaccent" unicode="&#x10a;" horiz-adv-x="1494" d="M796 -31 Q568 -31 410.5 67.5 Q253 166 173 345 Q93 524 93 766 Q93 1008 173 1187.5 Q253 1367 410.5 1465.5 Q568 1564 796 1564 Q981 1564 1108.5 1510.5 Q1236 1457 1307 1378 Q1378 1299 1409 1211 L1386 1136 Q1383 1123 1371 1123 L1235 1123 Q1226 1123 1221 1135 Q1184 1230 1086.5 1304.5 Q989 1379 804 1379 Q549 1379 427 1220 Q305 1061 305 766 Q305 471 427 313 Q549 155 804 155 Q988 155 1085 229 Q1182 303 1222 399 Q1225 406 1227.5 408 Q1230 410 1236 410 L1371 410 Q1378 410 1381 407.5 Q1384 405 1386 398 L1409 324 Q1378 236 1307 156.5 Q1236 77 1108.5 23 Q981 -31 796 -31 Z M714 1692 Q705 1692 701 1696 Q697 1700 697 1710 L697 1868 Q697 1886 714 1886 L874 1886 Q883 1886 888 1881 Q893 1876 893 1868 L893 1710 Q893 1692 874 1692 L714 1692 Z " />
<glyph glyph-name="D" unicode="D" horiz-adv-x="1462" d="M142 0 Q136 0 132 4 Q128 8 128 14 L128 1519 Q128 1525 132 1529.5 Q136 1534 142 1534 L660 1534 Q905 1534 1063.5 1436.5 Q1222 1339 1295.5 1167 Q1369 995 1369 765 Q1369 537 1294.5 365.5 Q1220 194 1060.5 97 Q901 0 657 0 L142 0 Z M656 174 Q912 174 1036.5 332 Q1161 490 1161 765 Q1161 1043 1038 1201 Q915 1359 659 1359 L335 1359 L335 174 L656 174 Z " />
<glyph glyph-name="Eth" unicode="&#xd0;" horiz-adv-x="1501" d="M705 1534 Q950 1534 1108.5 1436.5 Q1267 1339 1340.5 1167 Q1414 995 1414 765 Q1414 537 1339.5 365.5 Q1265 194 1105.5 97 Q946 0 702 0 L187 0 Q181 0 177 4 Q173 8 173 14 L173 680 L69 680 Q56 680 56 693 L56 845 Q56 852 59 854.5 Q62 857 69 857 L173 857 L173 1519 Q173 1525 177 1529.5 Q181 1534 187 1534 L705 1534 Z M701 174 Q957 174 1081.5 332 Q1206 490 1206 765 Q1206 1043 1083 1201 Q960 1359 704 1359 L380 1359 L380 857 L848 857 Q855 857 858 854.5 Q861 852 861 845 L861 693 Q861 680 848 680 L380 680 L380 174 L701 174 Z " />
<glyph glyph-name="Dcaron" unicode="&#x10e;" horiz-adv-x="1462" d="M142 0 Q136 0 132 4 Q128 8 128 14 L128 1519 Q128 1525 132 1529.5 Q136 1534 142 1534 L660 1534 Q905 1534 1063.5 1436.5 Q1222 1339 1295.5 1167 Q1369 995 1369 765 Q1369 537 1294.5 365.5 Q1220 194 1060.5 97 Q901 0 657 0 L142 0 Z M656 174 Q912 174 1036.5 332 Q1161 490 1161 765 Q1161 1043 1038 1201 Q915 1359 659 1359 L335 1359 L335 174 L656 174 Z M597 1662 Q588 1662 582 1665.5 Q576 1669 567 1678 L313 1969 Q307 1975 307 1981 Q307 1988 318 1988 L489 1988 Q507 1988 522 1970 L704 1773 L882 1970 Q899 1988 915 1988 L1086 1988 Q1099 1988 1099 1980 Q1099 1975 1093 1969 L839 1678 Q831 1669 824.5 1665.5 Q818 1662 808 1662 L597 1662 Z " />
<glyph glyph-name="Dcroat" unicode="&#x110;" horiz-adv-x="1501" d="M705 1534 Q950 1534 1108.5 1436.5 Q1267 1339 1340.5 1167 Q1414 995 1414 765 Q1414 537 1339.5 365.5 Q1265 194 1105.5 97 Q946 0 702 0 L187 0 Q181 0 177 4 Q173 8 173 14 L173 680 L69 680 Q56 680 56 693 L56 845 Q56 852 59 854.5 Q62 857 69 857 L173 857 L173 1519 Q173 1525 177 1529.5 Q181 1534 187 1534 L705 1534 Z M701 174 Q957 174 1081.5 332 Q1206 490 1206 765 Q1206 1043 1083 1201 Q960 1359 704 1359 L380 1359 L380 857 L848 857 Q855 857 858 854.5 Q861 852 861 845 L861 693 Q861 680 848 680 L380 680 L380 174 L701 174 Z " />
<glyph glyph-name="E" unicode="E" horiz-adv-x="1235" d="M142 0 Q136 0 132 4 Q128 8 128 14 L128 1519 Q128 1525 132 1529.5 Q136 1534 142 1534 L1106 1534 Q1114 1534 1116.5 1531.5 Q1119 1529 1119 1519 L1119 1374 Q1119 1366 1116.5 1363.5 Q1114 1361 1106 1361 L336 1361 L336 846 L1035 846 Q1043 846 1045.5 843.5 Q1048 841 1048 833 L1048 687 Q1048 680 1045.5 677 Q1043 674 1035 674 L336 675 L336 172 L1130 172 Q1137 172 1139.5 169.5 Q1142 167 1142 160 L1142 12 Q1142 5 1140 2.5 Q1138 0 1130 0 L142 0 Z " />
<glyph glyph-name="Eacute" unicode="&#xc9;" horiz-adv-x="1235" d="M142 0 Q136 0 132 4 Q128 8 128 14 L128 1519 Q128 1525 132 1529.5 Q136 1534 142 1534 L1106 1534 Q1114 1534 1116.5 1531.5 Q1119 1529 1119 1519 L1119 1374 Q1119 1366 1116.5 1363.5 Q1114 1361 1106 1361 L336 1361 L336 846 L1035 846 Q1043 846 1045.5 843.5 Q1048 841 1048 833 L1048 687 Q1048 680 1045.5 677 Q1043 674 1035 674 L336 675 L336 172 L1130 172 Q1137 172 1139.5 169.5 Q1142 167 1142 160 L1142 12 Q1142 5 1140 2.5 Q1138 0 1130 0 L142 0 Z M537 1649 Q522 1649 522 1658 Q522 1662 525 1668 L688 1972 Q692 1982 697 1985 Q702 1988 711 1988 L911 1988 Q926 1988 926 1976 Q926 1970 924 1967 L741 1666 Q735 1656 730 1652.5 Q725 1649 715 1649 L537 1649 Z " />
<glyph glyph-name="Ecaron" unicode="&#x11a;" horiz-adv-x="1235" d="M142 0 Q136 0 132 4 Q128 8 128 14 L128 1519 Q128 1525 132 1529.5 Q136 1534 142 1534 L1106 1534 Q1114 1534 1116.5 1531.5 Q1119 1529 1119 1519 L1119 1374 Q1119 1366 1116.5 1363.5 Q1114 1361 1106 1361 L336 1361 L336 846 L1035 846 Q1043 846 1045.5 843.5 Q1048 841 1048 833 L1048 687 Q1048 680 1045.5 677 Q1043 674 1035 674 L336 675 L336 172 L1130 172 Q1137 172 1139.5 169.5 Q1142 167 1142 160 L1142 12 Q1142 5 1140 2.5 Q1138 0 1130 0 L142 0 Z M523 1662 Q514 1662 508 1665.5 Q502 1669 493 1678 L239 1969 Q233 1975 233 1981 Q233 1988 244 1988 L415 1988 Q433 1988 448 1970 L630 1773 L808 1970 Q825 1988 841 1988 L1012 1988 Q1025 1988 1025 1980 Q1025 1975 1019 1969 L765 1678 Q757 1669 750.5 1665.5 Q744 1662 734 1662 L523 1662 Z " />
<glyph glyph-name="Ecircumflex" unicode="&#xca;" horiz-adv-x="1235" d="M142 0 Q136 0 132 4 Q128 8 128 14 L128 1519 Q128 1525 132 1529.5 Q136 1534 142 1534 L1106 1534 Q1114 1534 1116.5 1531.5 Q1119 1529 1119 1519 L1119 1374 Q1119 1366 1116.5 1363.5 Q1114 1361 1106 1361 L336 1361 L336 846 L1035 846 Q1043 846 1045.5 843.5 Q1048 841 1048 833 L1048 687 Q1048 680 1045.5 677 Q1043 674 1035 674 L336 675 L336 172 L1130 172 Q1137 172 1139.5 169.5 Q1142 167 1142 160 L1142 12 Q1142 5 1140 2.5 Q1138 0 1130 0 L142 0 Z M243 1656 Q231 1656 231 1664 Q231 1669 237 1675 L490 1966 Q500 1976 505.5 1979 Q511 1982 520 1982 L732 1982 Q741 1982 747 1978.5 Q753 1975 761 1966 L1017 1675 Q1023 1669 1023 1664 Q1023 1656 1011 1656 L840 1656 Q823 1656 807 1673 L627 1873 L446 1673 Q432 1656 414 1656 L243 1656 Z " />
<glyph glyph-name="Edieresis" unicode="&#xcb;" horiz-adv-x="1235" d="M142 0 Q136 0 132 4 Q128 8 128 14 L128 1519 Q128 1525 132 1529.5 Q136 1534 142 1534 L1106 1534 Q1114 1534 1116.5 1531.5 Q1119 1529 1119 1519 L1119 1374 Q1119 1366 1116.5 1363.5 Q1114 1361 1106 1361 L336 1361 L336 846 L1035 846 Q1043 846 1045.5 843.5 Q1048 841 1048 833 L1048 687 Q1048 680 1045.5 677 Q1043 674 1035 674 L336 675 L336 172 L1130 172 Q1137 172 1139.5 169.5 Q1142 167 1142 160 L1142 12 Q1142 5 1140 2.5 Q1138 0 1130 0 L142 0 Z M377 1692 Q368 1692 364 1696 Q360 1700 360 1710 L360 1868 Q360 1886 377 1886 L537 1886 Q546 1886 551 1881 Q556 1876 556 1868 L556 1710 Q556 1692 537 1692 L377 1692 Z M715 1692 Q706 1692 702 1696 Q698 1700 698 1710 L698 1868 Q698 1886 715 1886 L875 1886 Q884 1886 889 1881 Q894 1876 894 1868 L894 1710 Q894 1692 875 1692 L715 1692 Z " />
<glyph glyph-name="Edotaccent" unicode="&#x116;" horiz-adv-x="1235" d="M142 0 Q136 0 132 4 Q128 8 128 14 L128 1519 Q128 1525 132 1529.5 Q136 1534 142 1534 L1106 1534 Q1114 1534 1116.5 1531.5 Q1119 1529 1119 1519 L1119 1374 Q1119 1366 1116.5 1363.5 Q1114 1361 1106 1361 L336 1361 L336 846 L1035 846 Q1043 846 1045.5 843.5 Q1048 841 1048 833 L1048 687 Q1048 680 1045.5 677 Q1043 674 1035 674 L336 675 L336 172 L1130 172 Q1137 172 1139.5 169.5 Q1142 167 1142 160 L1142 12 Q1142 5 1140 2.5 Q1138 0 1130 0 L142 0 Z M546 1692 Q537 1692 533 1696 Q529 1700 529 1710 L529 1868 Q529 1886 546 1886 L706 1886 Q715 1886 720 1881 Q725 1876 725 1868 L725 1710 Q725 1692 706 1692 L546 1692 Z " />
<glyph glyph-name="Egrave" unicode="&#xc8;" horiz-adv-x="1235" d="M142 0 Q136 0 132 4 Q128 8 128 14 L128 1519 Q128 1525 132 1529.5 Q136 1534 142 1534 L1106 1534 Q1114 1534 1116.5 1531.5 Q1119 1529 1119 1519 L1119 1374 Q1119 1366 1116.5 1363.5 Q1114 1361 1106 1361 L336 1361 L336 846 L1035 846 Q1043 846 1045.5 843.5 Q1048 841 1048 833 L1048 687 Q1048 680 1045.5 677 Q1043 674 1035 674 L336 675 L336 172 L1130 172 Q1137 172 1139.5 169.5 Q1142 167 1142 160 L1142 12 Q1142 5 1140 2.5 Q1138 0 1130 0 L142 0 Z M544 1649 Q534 1649 529 1652.5 Q524 1656 518 1666 L330 1967 Q328 1970 328 1976 Q328 1988 343 1988 L543 1988 Q552 1988 557 1985 Q562 1982 567 1972 L732 1668 Q736 1663 736 1657 Q736 1649 722 1649 L544 1649 Z " />
<glyph glyph-name="Emacron" unicode="&#x112;" horiz-adv-x="1235" d="M142 0 Q136 0 132 4 Q128 8 128 14 L128 1519 Q128 1525 132 1529.5 Q136 1534 142 1534 L1106 1534 Q1114 1534 1116.5 1531.5 Q1119 1529 1119 1519 L1119 1374 Q1119 1366 1116.5 1363.5 Q1114 1361 1106 1361 L336 1361 L336 846 L1035 846 Q1043 846 1045.5 843.5 Q1048 841 1048 833 L1048 687 Q1048 680 1045.5 677 Q1043 674 1035 674 L336 675 L336 172 L1130 172 Q1137 172 1139.5 169.5 Q1142 167 1142 160 L1142 12 Q1142 5 1140 2.5 Q1138 0 1130 0 L142 0 Z M350 1731 Q341 1731 337.5 1735 Q334 1739 334 1749 L334 1881 Q334 1892 337 1895.5 Q340 1899 350 1899 L902 1899 Q912 1899 916 1895 Q920 1891 920 1881 L920 1749 Q920 1739 916 1735 Q912 1731 902 1731 L350 1731 Z " />
<glyph glyph-name="Eogonek" unicode="&#x118;" horiz-adv-x="1235" d="M1143 -301 Q1165 -301 1161 -319 L1148 -406 Q1146 -416 1142 -420 Q1138 -424 1130 -424 L981 -424 Q869 -424 803.5 -374.5 Q738 -325 739 -239 Q739 -166 779.5 -112.5 Q820 -59 870.5 -27 Q921 5 921 0 L142 0 Q136 0 132 4 Q128 8 128 14 L128 1519 Q128 1525 132 1529.5 Q136 1534 142 1534 L1106 1534 Q1114 1534 1116.5 1531.5 Q1119 1529 1119 1519 L1119 1374 Q1119 1366 1116.5 1363.5 Q1114 1361 1106 1361 L336 1361 L336 846 L1035 846 Q1043 846 1045.5 843.5 Q1048 841 1048 833 L1048 687 Q1048 680 1045.5 677 Q1043 674 1035 674 L336 675 L336 172 L1130 172 Q1137 172 1139.5 169.5 Q1142 167 1142 160 L1142 12 Q1142 5 1140 2.5 Q1138 0 1130 0 L1085 0 Q1085 4 1032.5 -25 Q980 -54 938 -99.5 Q896 -145 896 -205 Q896 -252 928.5 -276.5 Q961 -301 1019 -301 L1143 -301 Z " />
<glyph glyph-name="F" unicode="F" horiz-adv-x="1202" d="M138 0 Q132 0 130 2.5 Q128 5 128 12 L128 1520 Q128 1534 141 1534 L1110 1534 Q1120 1534 1123 1530.5 Q1126 1527 1126 1517 L1126 1373 Q1126 1366 1124 1363.5 Q1122 1361 1114 1361 L337 1361 L337 831 L1046 831 Q1056 831 1059.5 828 Q1063 825 1063 817 L1063 671 Q1063 665 1060.5 662 Q1058 659 1049 659 L337 660 L337 13 Q337 5 335 2.5 Q333 0 325 0 L138 0 Z " />
<glyph glyph-name="G" unicode="G" horiz-adv-x="1545" d="M799 -31 Q571 -31 412.5 67.5 Q254 166 173.5 345 Q93 524 93 766 Q93 1008 173 1187.5 Q253 1367 410.5 1465.5 Q568 1564 796 1564 Q981 1564 1108.5 1510.5 Q1236 1457 1307 1378 Q1378 1299 1409 1211 L1387 1136 Q1384 1123 1372 1123 L1235 1123 Q1230 1123 1227 1126.5 Q1224 1130 1221 1135 Q1180 1232 1084.5 1305.5 Q989 1379 804 1379 Q549 1379 427 1220 Q305 1061 305 766 Q305 472 429.5 312 Q554 152 809 152 Q937 152 1030 197.5 Q1123 243 1171.5 318.5 Q1220 394 1220 481 L1220 590 L805 590 Q798 590 796 592.5 Q794 595 794 603 L794 737 Q794 744 796 746 Q798 748 806 748 L1410 748 Q1418 748 1420.5 745.5 Q1423 743 1423 736 L1423 14 Q1423 0 1409 0 L1278 0 Q1269 0 1265.5 3 Q1262 6 1261 15 L1248 172 Q1184 81 1066.5 25 Q949 -31 799 -31 Z " />
<glyph glyph-name="Gbreve" unicode="&#x11e;" horiz-adv-x="1545" d="M799 -31 Q571 -31 412.5 67.5 Q254 166 173.5 345 Q93 524 93 766 Q93 1008 173 1187.5 Q253 1367 410.5 1465.5 Q568 1564 796 1564 Q981 1564 1108.5 1510.5 Q1236 1457 1307 1378 Q1378 1299 1409 1211 L1387 1136 Q1384 1123 1372 1123 L1235 1123 Q1230 1123 1227 1126.5 Q1224 1130 1221 1135 Q1180 1232 1084.5 1305.5 Q989 1379 804 1379 Q549 1379 427 1220 Q305 1061 305 766 Q305 472 429.5 312 Q554 152 809 152 Q937 152 1030 197.5 Q1123 243 1171.5 318.5 Q1220 394 1220 481 L1220 590 L805 590 Q798 590 796 592.5 Q794 595 794 603 L794 737 Q794 744 796 746 Q798 748 806 748 L1410 748 Q1418 748 1420.5 745.5 Q1423 743 1423 736 L1423 14 Q1423 0 1409 0 L1278 0 Q1269 0 1265.5 3 Q1262 6 1261 15 L1248 172 Q1184 81 1066.5 25 Q949 -31 799 -31 Z M804 1617 Q674 1617 585.5 1659 Q497 1701 450 1762 Q403 1823 385 1887 L413 1973 Q417 1987 432 1987 L545 1987 Q555 1987 559.5 1983.5 Q564 1980 565 1970 Q570 1917 599 1870.5 Q628 1824 680 1795 Q732 1766 804 1766 Q876 1766 928 1795 Q980 1824 1008.5 1870.5 Q1037 1917 1043 1970 Q1044 1979 1048.5 1983 Q1053 1987 1062 1987 L1175 1987 Q1189 1987 1195 1973 L1223 1887 Q1205 1823 1158 1762 Q1111 1701 1022 1659 Q933 1617 804 1617 Z " />
<glyph glyph-name="Gcommaaccent" unicode="&#x122;" horiz-adv-x="1545" d="M799 -31 Q571 -31 412.5 67.5 Q254 166 173.5 345 Q93 524 93 766 Q93 1008 173 1187.5 Q253 1367 410.5 1465.5 Q568 1564 796 1564 Q981 1564 1108.5 1510.5 Q1236 1457 1307 1378 Q1378 1299 1409 1211 L1387 1136 Q1384 1123 1372 1123 L1235 1123 Q1230 1123 1227 1126.5 Q1224 1130 1221 1135 Q1180 1232 1084.5 1305.5 Q989 1379 804 1379 Q549 1379 427 1220 Q305 1061 305 766 Q305 472 429.5 312 Q554 152 809 152 Q937 152 1030 197.5 Q1123 243 1171.5 318.5 Q1220 394 1220 481 L1220 590 L805 590 Q798 590 796 592.5 Q794 595 794 603 L794 737 Q794 744 796 746 Q798 748 806 748 L1410 748 Q1418 748 1420.5 745.5 Q1423 743 1423 736 L1423 14 Q1423 0 1409 0 L1278 0 Q1269 0 1265.5 3 Q1262 6 1261 15 L1248 172 Q1184 81 1066.5 25 Q949 -31 799 -31 Z M648 -440 Q640 -440 637 -437.5 Q634 -435 634 -430 Q634 -425 635 -421 L698 -108 Q699 -99 705 -96 Q711 -93 721 -93 L890 -93 Q896 -93 899.5 -96.5 Q903 -100 903 -105 Q903 -111 901 -114 L824 -423 Q820 -440 801 -440 L648 -440 Z " />
<glyph glyph-name="Gdotaccent" unicode="&#x120;" horiz-adv-x="1545" d="M799 -31 Q571 -31 412.5 67.5 Q254 166 173.5 345 Q93 524 93 766 Q93 1008 173 1187.5 Q253 1367 410.5 1465.5 Q568 1564 796 1564 Q981 1564 1108.5 1510.5 Q1236 1457 1307 1378 Q1378 1299 1409 1211 L1387 1136 Q1384 1123 1372 1123 L1235 1123 Q1230 1123 1227 1126.5 Q1224 1130 1221 1135 Q1180 1232 1084.5 1305.5 Q989 1379 804 1379 Q549 1379 427 1220 Q305 1061 305 766 Q305 472 429.5 312 Q554 152 809 152 Q937 152 1030 197.5 Q1123 243 1171.5 318.5 Q1220 394 1220 481 L1220 590 L805 590 Q798 590 796 592.5 Q794 595 794 603 L794 737 Q794 744 796 746 Q798 748 806 748 L1410 748 Q1418 748 1420.5 745.5 Q1423 743 1423 736 L1423 14 Q1423 0 1409 0 L1278 0 Q1269 0 1265.5 3 Q1262 6 1261 15 L1248 172 Q1184 81 1066.5 25 Q949 -31 799 -31 Z M722 1692 Q713 1692 709 1696 Q705 1700 705 1710 L705 1868 Q705 1886 722 1886 L882 1886 Q891 1886 896 1881 Q901 1876 901 1868 L901 1710 Q901 1692 882 1692 L722 1692 Z " />
<glyph glyph-name="H" unicode="H" horiz-adv-x="1430" d="M141 0 Q128 0 128 13 L128 1520 Q128 1529 130 1531.5 Q132 1534 138 1534 L324 1534 Q332 1534 334 1531.5 Q336 1529 336 1519 L336 853 L1094 853 L1094 1520 Q1094 1529 1096 1531.5 Q1098 1534 1104 1534 L1291 1534 Q1298 1534 1300 1531.5 Q1302 1529 1302 1519 L1302 13 Q1302 0 1289 0 L1130 0 Q1117 0 1116 13 L1094 132 L1094 676 L336 676 L336 132 L315 13 Q312 0 300 0 L141 0 Z " />
<glyph glyph-name="Hbar" unicode="&#x126;" horiz-adv-x="1478" d="M1416 1280 Q1424 1280 1427.5 1277 Q1431 1274 1431 1265 L1431 1127 Q1431 1115 1416 1115 L1326 1115 L1326 13 Q1326 0 1313 0 L1154 0 Q1141 0 1140 13 L1118 132 L1118 676 L360 676 L360 132 L339 13 Q336 0 324 0 L165 0 Q152 0 152 13 L152 1115 L60 1115 Q47 1115 47 1127 L47 1265 Q47 1274 50 1277 Q53 1280 60 1280 L152 1280 L152 1520 Q152 1529 154 1531.5 Q156 1534 162 1534 L348 1534 Q356 1534 358 1531.5 Q360 1529 360 1519 L360 1280 L1118 1280 L1118 1520 Q1118 1529 1120 1531.5 Q1122 1534 1128 1534 L1315 1534 Q1322 1534 1324 1531.5 Q1326 1529 1326 1519 L1326 1280 L1416 1280 Z M1118 1115 L360 1115 L360 853 L1118 853 L1118 1115 Z " />
<glyph glyph-name="I" unicode="I" horiz-adv-x="468" d="M138 0 Q132 0 130 2.5 Q128 5 128 12 L128 1520 Q128 1529 130 1531.5 Q132 1534 138 1534 L327 1534 Q335 1534 337.5 1531 Q340 1528 340 1519 L340 13 Q340 6 337.5 3 Q335 0 327 0 L138 0 Z " />
<glyph glyph-name="Iacute" unicode="&#xcd;" horiz-adv-x="468" d="M138 0 Q132 0 130 2.5 Q128 5 128 12 L128 1520 Q128 1529 130 1531.5 Q132 1534 138 1534 L327 1534 Q335 1534 337.5 1531 Q340 1528 340 1519 L340 13 Q340 6 337.5 3 Q335 0 327 0 L138 0 Z M144 1649 Q129 1649 129 1658 Q129 1662 132 1668 L295 1972 Q299 1982 304 1985 Q309 1988 318 1988 L518 1988 Q533 1988 533 1976 Q533 1970 531 1967 L348 1666 Q342 1656 337 1652.5 Q332 1649 322 1649 L144 1649 Z " />
<glyph glyph-name="Icircumflex" unicode="&#xce;" horiz-adv-x="468" d="M138 0 Q132 0 130 2.5 Q128 5 128 12 L128 1520 Q128 1529 130 1531.5 Q132 1534 138 1534 L327 1534 Q335 1534 337.5 1531 Q340 1528 340 1519 L340 13 Q340 6 337.5 3 Q335 0 327 0 L138 0 Z M-150 1656 Q-162 1656 -162 1664 Q-162 1669 -156 1675 L97 1966 Q107 1976 112.5 1979 Q118 1982 127 1982 L339 1982 Q348 1982 354 1978.5 Q360 1975 368 1966 L624 1675 Q630 1669 630 1664 Q630 1656 618 1656 L447 1656 Q430 1656 414 1673 L234 1873 L53 1673 Q39 1656 21 1656 L-150 1656 Z " />
<glyph glyph-name="Idieresis" unicode="&#xcf;" horiz-adv-x="468" d="M138 0 Q132 0 130 2.5 Q128 5 128 12 L128 1520 Q128 1529 130 1531.5 Q132 1534 138 1534 L327 1534 Q335 1534 337.5 1531 Q340 1528 340 1519 L340 13 Q340 6 337.5 3 Q335 0 327 0 L138 0 Z M-16 1692 Q-25 1692 -29 1696 Q-33 1700 -33 1710 L-33 1868 Q-33 1886 -16 1886 L144 1886 Q153 1886 158 1881 Q163 1876 163 1868 L163 1710 Q163 1692 144 1692 L-16 1692 Z M322 1692 Q313 1692 309 1696 Q305 1700 305 1710 L305 1868 Q305 1886 322 1886 L482 1886 Q491 1886 496 1881 Q501 1876 501 1868 L501 1710 Q501 1692 482 1692 L322 1692 Z " />
<glyph glyph-name="Idot" unicode="&#x130;" horiz-adv-x="468" d="M138 0 Q132 0 130 2.5 Q128 5 128 12 L128 1520 Q128 1529 130 1531.5 Q132 1534 138 1534 L327 1534 Q335 1534 337.5 1531 Q340 1528 340 1519 L340 13 Q340 6 337.5 3 Q335 0 327 0 L138 0 Z M153 1692 Q144 1692 140 1696 Q136 1700 136 1710 L136 1868 Q136 1886 153 1886 L313 1886 Q322 1886 327 1881 Q332 1876 332 1868 L332 1710 Q332 1692 313 1692 L153 1692 Z " />
<glyph glyph-name="Igrave" unicode="&#xcc;" horiz-adv-x="468" d="M138 0 Q132 0 130 2.5 Q128 5 128 12 L128 1520 Q128 1529 130 1531.5 Q132 1534 138 1534 L327 1534 Q335 1534 337.5 1531 Q340 1528 340 1519 L340 13 Q340 6 337.5 3 Q335 0 327 0 L138 0 Z M151 1649 Q141 1649 136 1652.5 Q131 1656 125 1666 L-63 1967 Q-65 1970 -65 1976 Q-65 1988 -50 1988 L150 1988 Q159 1988 164 1985 Q169 1982 174 1972 L339 1668 Q343 1663 343 1657 Q343 1649 329 1649 L151 1649 Z " />
<glyph glyph-name="Imacron" unicode="&#x12a;" horiz-adv-x="468" d="M138 0 Q132 0 130 2.5 Q128 5 128 12 L128 1520 Q128 1529 130 1531.5 Q132 1534 138 1534 L327 1534 Q335 1534 337.5 1531 Q340 1528 340 1519 L340 13 Q340 6 337.5 3 Q335 0 327 0 L138 0 Z M-43 1731 Q-52 1731 -55.5 1735 Q-59 1739 -59 1749 L-59 1881 Q-59 1892 -56 1895.5 Q-53 1899 -43 1899 L509 1899 Q519 1899 523 1895 Q527 1891 527 1881 L527 1749 Q527 1739 523 1735 Q519 1731 509 1731 L-43 1731 Z " />
<glyph glyph-name="Iogonek" unicode="&#x12e;" horiz-adv-x="468" d="M356 -301 Q378 -301 374 -319 L361 -406 Q359 -416 355 -420 Q351 -424 343 -424 L194 -424 Q82 -424 16.5 -374.5 Q-49 -325 -48 -239 Q-48 -166 -7.5 -112.5 Q33 -59 83.5 -27 Q134 5 134 0 L135 0 Q131 1 129.5 3.5 Q128 6 128 12 L128 1520 Q128 1529 130 1531.5 Q132 1534 138 1534 L327 1534 Q335 1534 337.5 1531 Q340 1528 340 1519 L340 13 Q340 6 337.5 3 Q335 0 327 0 L298 0 Q298 4 245.5 -25 Q193 -54 151 -99.5 Q109 -145 109 -205 Q109 -252 141.5 -276.5 Q174 -301 232 -301 L356 -301 Z " />
<glyph glyph-name="J" unicode="J" horiz-adv-x="675" d="M89 0 Q77 0 77 13 L76 162 Q76 169 78.5 171.5 Q81 174 88 174 L134 174 Q232 175 288.5 228 Q345 281 345 390 L345 1520 Q345 1528 347 1531 Q349 1534 356 1534 L541 1534 Q548 1534 550.5 1531 Q553 1528 553 1520 L553 389 Q553 263 502 175.5 Q451 88 360 44 Q269 0 148 0 L89 0 Z " />
<glyph glyph-name="K" unicode="K" horiz-adv-x="1287" d="M1217 94 L1208 14 Q1206 0 1193 0 L1047 0 Q1039 0 1027 10 L335 687 L335 13 Q335 5 332.5 2.5 Q330 0 322 0 L138 0 Q132 0 130 2.5 Q128 5 128 12 L128 1520 Q128 1529 130 1531.5 Q132 1534 138 1534 L322 1534 Q329 1534 332 1531.5 Q335 1529 335 1520 L335 843 L1016 1523 Q1027 1534 1036 1534 L1182 1534 Q1194 1534 1197 1520 L1206 1440 L497 765 L1217 94 Z " />
<glyph glyph-name="Kcommaaccent" unicode="&#x136;" horiz-adv-x="1287" d="M1217 94 L1208 14 Q1206 0 1193 0 L1047 0 Q1039 0 1027 10 L335 687 L335 13 Q335 5 332.5 2.5 Q330 0 322 0 L138 0 Q132 0 130 2.5 Q128 5 128 12 L128 1520 Q128 1529 130 1531.5 Q132 1534 138 1534 L322 1534 Q329 1534 332 1531.5 Q335 1529 335 1520 L335 843 L1016 1523 Q1027 1534 1036 1534 L1182 1534 Q1194 1534 1197 1520 L1206 1440 L497 765 L1217 94 Z M494 -440 Q486 -440 483 -437.5 Q480 -435 480 -430 Q480 -425 481 -421 L544 -108 Q545 -99 551 -96 Q557 -93 567 -93 L736 -93 Q742 -93 745.5 -96.5 Q749 -100 749 -105 Q749 -111 747 -114 L670 -423 Q666 -440 647 -440 L494 -440 Z " />
<glyph glyph-name="L" unicode="L" horiz-adv-x="1213" d="M141 0 Q133 0 130.5 2.5 Q128 5 128 13 L128 1520 Q128 1529 130 1531.5 Q132 1534 138 1534 L325 1534 Q333 1534 335 1531.5 Q337 1529 337 1519 L337 178 L1124 178 Q1132 178 1134.5 176 Q1137 174 1137 166 L1137 11 Q1137 4 1134.5 2 Q1132 0 1123 0 L141 0 Z " />
<glyph glyph-name="Lacute" unicode="&#x139;" horiz-adv-x="1213" d="M141 0 Q133 0 130.5 2.5 Q128 5 128 13 L128 1520 Q128 1529 130 1531.5 Q132 1534 138 1534 L325 1534 Q333 1534 335 1531.5 Q337 1529 337 1519 L337 178 L1124 178 Q1132 178 1134.5 176 Q1137 174 1137 166 L1137 11 Q1137 4 1134.5 2 Q1132 0 1123 0 L141 0 Z M166 1649 Q151 1649 151 1658 Q151 1662 154 1668 L317 1972 Q321 1982 326 1985 Q331 1988 340 1988 L540 1988 Q555 1988 555 1976 Q555 1970 553 1967 L370 1666 Q364 1656 359 1652.5 Q354 1649 344 1649 L166 1649 Z " />
<glyph glyph-name="Lcaron" unicode="&#x13d;" horiz-adv-x="1213" d="M141 0 Q133 0 130.5 2.5 Q128 5 128 13 L128 1520 Q128 1529 130 1531.5 Q132 1534 138 1534 L325 1534 Q333 1534 335 1531.5 Q337 1529 337 1519 L337 178 L1124 178 Q1132 178 1134.5 176 Q1137 174 1137 166 L1137 11 Q1137 4 1134.5 2 Q1132 0 1123 0 L141 0 Z M590 978 Q582 978 580 981 Q578 984 580 992 L664 1520 Q665 1532 681 1532 L839 1532 Q853 1532 849 1516 L754 991 Q751 978 736 978 L590 978 Z " />
<glyph glyph-name="Lcommaaccent" unicode="&#x13b;" horiz-adv-x="1213" d="M141 0 Q133 0 130.5 2.5 Q128 5 128 13 L128 1520 Q128 1529 130 1531.5 Q132 1534 138 1534 L325 1534 Q333 1534 335 1531.5 Q337 1529 337 1519 L337 178 L1124 178 Q1132 178 1134.5 176 Q1137 174 1137 166 L1137 11 Q1137 4 1134.5 2 Q1132 0 1123 0 L141 0 Z M475 -440 Q467 -440 464 -437.5 Q461 -435 461 -430 Q461 -425 462 -421 L525 -108 Q526 -99 532 -96 Q538 -93 548 -93 L717 -93 Q723 -93 726.5 -96.5 Q730 -100 730 -105 Q730 -111 728 -114 L651 -423 Q647 -440 628 -440 L475 -440 Z " />
<glyph glyph-name="Ldot" unicode="&#x13f;" horiz-adv-x="1213" d="M141 0 Q133 0 130.5 2.5 Q128 5 128 13 L128 1520 Q128 1529 130 1531.5 Q132 1534 138 1534 L325 1534 Q333 1534 335 1531.5 Q337 1529 337 1519 L337 178 L1124 178 Q1132 178 1134.5 176 Q1137 174 1137 166 L1137 11 Q1137 4 1134.5 2 Q1132 0 1123 0 L141 0 Z M652 629 Q639 629 639 642 L639 826 Q639 840 652 840 L821 840 Q836 840 836 826 L836 642 Q836 629 821 629 L652 629 Z " />
<glyph glyph-name="Lslash" unicode="&#x141;" horiz-adv-x="1253" d="M1171 178 Q1179 178 1181.5 176 Q1184 174 1184 166 L1184 11 Q1184 4 1181.5 2 Q1179 0 1170 0 L188 0 Q180 0 177.5 2.5 Q175 5 175 13 L175 732 L79 693 Q75 691 73 691 Q65 691 65 704 L65 868 Q65 875 68.5 878.5 Q72 882 79 886 L175 925 L175 1520 Q175 1529 177 1531.5 Q179 1534 185 1534 L372 1534 Q380 1534 382 1531.5 Q384 1529 384 1519 L384 1009 L788 1171 Q792 1173 795 1173 Q803 1173 803 1162 L803 998 Q803 990 799.5 986.5 Q796 983 788 980 L384 816 L384 178 L1171 178 Z " />
<glyph glyph-name="M" unicode="M" horiz-adv-x="1699" d="M141 0 Q128 0 128 13 L128 1519 Q128 1525 132 1529.5 Q136 1534 142 1534 L345 1534 Q353 1534 356.5 1530.5 Q360 1527 363 1519 L856 280 L1336 1519 Q1340 1534 1353 1534 L1556 1534 Q1563 1534 1567 1529.5 Q1571 1525 1571 1519 L1571 13 Q1571 0 1558 0 L1411 0 Q1400 0 1396 13 L1375 132 L1374 1122 L939 14 Q935 0 922 0 L778 0 Q764 0 760 14 L324 1122 L324 132 L303 13 Q300 0 288 0 L141 0 Z " />
<glyph glyph-name="N" unicode="N" horiz-adv-x="1450" d="M141 0 Q128 0 128 13 L128 1519 Q128 1525 132 1529.5 Q136 1534 142 1534 L354 1534 Q361 1534 364 1531.5 Q367 1529 369.5 1525 Q372 1521 373 1519 L1125 339 L1125 1402 L1146 1520 Q1147 1528 1150.5 1531 Q1154 1534 1161 1534 L1309 1534 Q1322 1534 1322 1520 L1322 14 Q1322 8 1318 4 Q1314 0 1308 0 L1096 0 Q1089 0 1085.5 2.5 Q1082 5 1080 9 Q1078 13 1077 14 L325 1195 L325 132 L304 13 Q303 0 289 0 L141 0 Z " />
<glyph glyph-name="Nacute" unicode="&#x143;" horiz-adv-x="1450" d="M141 0 Q128 0 128 13 L128 1519 Q128 1525 132 1529.5 Q136 1534 142 1534 L354 1534 Q361 1534 364 1531.5 Q367 1529 369.5 1525 Q372 1521 373 1519 L1125 339 L1125 1402 L1146 1520 Q1147 1528 1150.5 1531 Q1154 1534 1161 1534 L1309 1534 Q1322 1534 1322 1520 L1322 14 Q1322 8 1318 4 Q1314 0 1308 0 L1096 0 Q1089 0 1085.5 2.5 Q1082 5 1080 9 Q1078 13 1077 14 L325 1195 L325 132 L304 13 Q303 0 289 0 L141 0 Z M648 1649 Q633 1649 633 1658 Q633 1662 636 1668 L799 1972 Q803 1982 808 1985 Q813 1988 822 1988 L1022 1988 Q1037 1988 1037 1976 Q1037 1970 1035 1967 L852 1666 Q846 1656 841 1652.5 Q836 1649 826 1649 L648 1649 Z " />
<glyph glyph-name="Ncaron" unicode="&#x147;" horiz-adv-x="1450" d="M141 0 Q128 0 128 13 L128 1519 Q128 1525 132 1529.5 Q136 1534 142 1534 L354 1534 Q361 1534 364 1531.5 Q367 1529 369.5 1525 Q372 1521 373 1519 L1125 339 L1125 1402 L1146 1520 Q1147 1528 1150.5 1531 Q1154 1534 1161 1534 L1309 1534 Q1322 1534 1322 1520 L1322 14 Q1322 8 1318 4 Q1314 0 1308 0 L1096 0 Q1089 0 1085.5 2.5 Q1082 5 1080 9 Q1078 13 1077 14 L325 1195 L325 132 L304 13 Q303 0 289 0 L141 0 Z M634 1662 Q625 1662 619 1665.5 Q613 1669 604 1678 L350 1969 Q344 1975 344 1981 Q344 1988 355 1988 L526 1988 Q544 1988 559 1970 L741 1773 L919 1970 Q936 1988 952 1988 L1123 1988 Q1136 1988 1136 1980 Q1136 1975 1130 1969 L876 1678 Q868 1669 861.5 1665.5 Q855 1662 845 1662 L634 1662 Z " />
<glyph glyph-name="Ncommaaccent" unicode="&#x145;" horiz-adv-x="1450" d="M141 0 Q128 0 128 13 L128 1519 Q128 1525 132 1529.5 Q136 1534 142 1534 L354 1534 Q361 1534 364 1531.5 Q367 1529 369.5 1525 Q372 1521 373 1519 L1125 339 L1125 1402 L1146 1520 Q1147 1528 1150.5 1531 Q1154 1534 1161 1534 L1309 1534 Q1322 1534 1322 1520 L1322 14 Q1322 8 1318 4 Q1314 0 1308 0 L1096 0 Q1089 0 1085.5 2.5 Q1082 5 1080 9 Q1078 13 1077 14 L325 1195 L325 132 L304 13 Q303 0 289 0 L141 0 Z M578 -440 Q570 -440 567 -437.5 Q564 -435 564 -430 Q564 -425 565 -421 L628 -108 Q629 -99 635 -96 Q641 -93 651 -93 L820 -93 Q826 -93 829.5 -96.5 Q833 -100 833 -105 Q833 -111 831 -114 L754 -423 Q750 -440 731 -440 L578 -440 Z " />
<glyph glyph-name="Eng" unicode="&#x14a;" horiz-adv-x="1456" d="M958 -402 Q950 -402 946.5 -399 Q943 -396 943 -388 L943 -258 Q943 -249 946.5 -246 Q950 -243 958 -243 Q1127 -243 1127 -47 L1127 13 L329 1191 L329 132 L307 17 Q305 8 301 4 Q297 0 288 0 L141 0 Q128 0 128 13 L128 1519 Q128 1525 132 1529.5 Q136 1534 142 1534 L358 1534 Q365 1534 368.5 1530.5 Q372 1527 376 1519 L1127 395 L1127 1402 L1149 1520 Q1150 1534 1163 1534 L1314 1534 Q1328 1534 1328 1520 L1328 -48 Q1328 -221 1232.5 -311.5 Q1137 -402 958 -402 Z " />
<glyph glyph-name="Ntilde" unicode="&#xd1;" horiz-adv-x="1450" d="M141 0 Q128 0 128 13 L128 1519 Q128 1525 132 1529.5 Q136 1534 142 1534 L354 1534 Q361 1534 364 1531.5 Q367 1529 369.5 1525 Q372 1521 373 1519 L1125 339 L1125 1402 L1146 1520 Q1147 1528 1150.5 1531 Q1154 1534 1161 1534 L1309 1534 Q1322 1534 1322 1520 L1322 14 Q1322 8 1318 4 Q1314 0 1308 0 L1096 0 Q1089 0 1085.5 2.5 Q1082 5 1080 9 Q1078 13 1077 14 L325 1195 L325 132 L304 13 Q303 0 289 0 L141 0 Z M931 1660 Q880 1660 841.5 1673.5 Q803 1687 776.5 1707 Q750 1727 717 1759 Q674 1799 643 1817.5 Q612 1836 567 1836 Q500 1836 469 1792 Q438 1748 438 1682 Q438 1666 419 1666 L311 1666 Q297 1666 293 1680 L276 1750 Q285 1806 314.5 1858.5 Q344 1911 402 1946.5 Q460 1982 547 1982 Q599 1982 638 1968 Q677 1954 704 1934 Q731 1914 765 1882 Q808 1843 838.5 1824.5 Q869 1806 912 1806 Q979 1806 1010 1849.5 Q1041 1893 1041 1959 Q1041 1975 1059 1975 L1167 1975 Q1181 1975 1185 1961 L1203 1891 Q1194 1835 1164 1783 Q1134 1731 1076 1695.5 Q1018 1660 931 1660 Z " />
<glyph glyph-name="O" unicode="O" horiz-adv-x="1587" d="M794 -32 Q550 -32 393.5 71 Q237 174 165 352.5 Q93 531 93 765 Q93 999 165 1177.5 Q237 1356 393.5 1459.5 Q550 1563 794 1563 Q1037 1563 1193.5 1459.5 Q1350 1356 1422 1177.5 Q1494 999 1494 765 Q1494 532 1422 353 Q1350 174 1193.5 71 Q1037 -32 794 -32 Z M794 144 Q1048 144 1167 311.5 Q1286 479 1286 765 Q1286 1050 1166.5 1218.5 Q1047 1387 794 1387 Q540 1387 420.5 1218.5 Q301 1050 301 765 Q301 479 420.5 311.5 Q540 144 794 144 Z " />
<glyph glyph-name="Oacute" unicode="&#xd3;" horiz-adv-x="1587" d="M794 -32 Q550 -32 393.5 71 Q237 174 165 352.5 Q93 531 93 765 Q93 999 165 1177.5 Q237 1356 393.5 1459.5 Q550 1563 794 1563 Q1037 1563 1193.5 1459.5 Q1350 1356 1422 1177.5 Q1494 999 1494 765 Q1494 532 1422 353 Q1350 174 1193.5 71 Q1037 -32 794 -32 Z M794 144 Q1048 144 1167 311.5 Q1286 479 1286 765 Q1286 1050 1166.5 1218.5 Q1047 1387 794 1387 Q540 1387 420.5 1218.5 Q301 1050 301 765 Q301 479 420.5 311.5 Q540 144 794 144 Z M703 1649 Q688 1649 688 1658 Q688 1662 691 1668 L854 1972 Q858 1982 863 1985 Q868 1988 877 1988 L1077 1988 Q1092 1988 1092 1976 Q1092 1970 1090 1967 L907 1666 Q901 1656 896 1652.5 Q891 1649 881 1649 L703 1649 Z " />
<glyph glyph-name="Ocircumflex" unicode="&#xd4;" horiz-adv-x="1587" d="M794 -32 Q550 -32 393.5 71 Q237 174 165 352.5 Q93 531 93 765 Q93 999 165 1177.5 Q237 1356 393.5 1459.5 Q550 1563 794 1563 Q1037 1563 1193.5 1459.5 Q1350 1356 1422 1177.5 Q1494 999 1494 765 Q1494 532 1422 353 Q1350 174 1193.5 71 Q1037 -32 794 -32 Z M794 144 Q1048 144 1167 311.5 Q1286 479 1286 765 Q1286 1050 1166.5 1218.5 Q1047 1387 794 1387 Q540 1387 420.5 1218.5 Q301 1050 301 765 Q301 479 420.5 311.5 Q540 144 794 144 Z M409 1656 Q397 1656 397 1664 Q397 1669 403 1675 L656 1966 Q666 1976 671.5 1979 Q677 1982 686 1982 L898 1982 Q907 1982 913 1978.5 Q919 1975 927 1966 L1183 1675 Q1189 1669 1189 1664 Q1189 1656 1177 1656 L1006 1656 Q989 1656 973 1673 L793 1873 L612 1673 Q598 1656 580 1656 L409 1656 Z " />
<glyph glyph-name="Odieresis" unicode="&#xd6;" horiz-adv-x="1587" d="M794 -32 Q550 -32 393.5 71 Q237 174 165 352.5 Q93 531 93 765 Q93 999 165 1177.5 Q237 1356 393.5 1459.5 Q550 1563 794 1563 Q1037 1563 1193.5 1459.5 Q1350 1356 1422 1177.5 Q1494 999 1494 765 Q1494 532 1422 353 Q1350 174 1193.5 71 Q1037 -32 794 -32 Z M794 144 Q1048 144 1167 311.5 Q1286 479 1286 765 Q1286 1050 1166.5 1218.5 Q1047 1387 794 1387 Q540 1387 420.5 1218.5 Q301 1050 301 765 Q301 479 420.5 311.5 Q540 144 794 144 Z M543 1692 Q534 1692 530 1696 Q526 1700 526 1710 L526 1868 Q526 1886 543 1886 L703 1886 Q712 1886 717 1881 Q722 1876 722 1868 L722 1710 Q722 1692 703 1692 L543 1692 Z M881 1692 Q872 1692 868 1696 Q864 1700 864 1710 L864 1868 Q864 1886 881 1886 L1041 1886 Q1050 1886 1055 1881 Q1060 1876 1060 1868 L1060 1710 Q1060 1692 1041 1692 L881 1692 Z " />
<glyph glyph-name="Ograve" unicode="&#xd2;" horiz-adv-x="1587" d="M794 -32 Q550 -32 393.5 71 Q237 174 165 352.5 Q93 531 93 765 Q93 999 165 1177.5 Q237 1356 393.5 1459.5 Q550 1563 794 1563 Q1037 1563 1193.5 1459.5 Q1350 1356 1422 1177.5 Q1494 999 1494 765 Q1494 532 1422 353 Q1350 174 1193.5 71 Q1037 -32 794 -32 Z M794 144 Q1048 144 1167 311.5 Q1286 479 1286 765 Q1286 1050 1166.5 1218.5 Q1047 1387 794 1387 Q540 1387 420.5 1218.5 Q301 1050 301 765 Q301 479 420.5 311.5 Q540 144 794 144 Z M710 1649 Q700 1649 695 1652.5 Q690 1656 684 1666 L496 1967 Q494 1970 494 1976 Q494 1988 509 1988 L709 1988 Q718 1988 723 1985 Q728 1982 733 1972 L898 1668 Q902 1663 902 1657 Q902 1649 888 1649 L710 1649 Z " />
<glyph glyph-name="Ohungarumlaut" unicode="&#x150;" horiz-adv-x="1587" d="M794 -32 Q550 -32 393.5 71 Q237 174 165 352.5 Q93 531 93 765 Q93 999 165 1177.5 Q237 1356 393.5 1459.5 Q550 1563 794 1563 Q1037 1563 1193.5 1459.5 Q1350 1356 1422 1177.5 Q1494 999 1494 765 Q1494 532 1422 353 Q1350 174 1193.5 71 Q1037 -32 794 -32 Z M794 144 Q1048 144 1167 311.5 Q1286 479 1286 765 Q1286 1050 1166.5 1218.5 Q1047 1387 794 1387 Q540 1387 420.5 1218.5 Q301 1050 301 765 Q301 479 420.5 311.5 Q540 144 794 144 Z M551 1649 Q539 1649 539 1657 Q539 1662 542 1668 L703 1972 Q709 1982 714 1985 Q719 1988 729 1988 L886 1988 Q892 1988 896 1985 Q900 1982 900 1977 Q900 1972 896 1967 L718 1665 Q712 1655 707 1652 Q702 1649 693 1649 L551 1649 Z M864 1649 Q852 1649 852 1657 Q852 1662 855 1668 L1048 1972 Q1053 1982 1058.5 1985 Q1064 1988 1074 1988 L1234 1988 Q1248 1988 1248 1977 Q1248 1973 1245 1967 L1032 1665 Q1025 1656 1019.5 1652.5 Q1014 1649 1004 1649 L864 1649 Z " />
<glyph glyph-name="Omacron" unicode="&#x14c;" horiz-adv-x="1587" d="M794 -32 Q550 -32 393.5 71 Q237 174 165 352.5 Q93 531 93 765 Q93 999 165 1177.5 Q237 1356 393.5 1459.5 Q550 1563 794 1563 Q1037 1563 1193.5 1459.5 Q1350 1356 1422 1177.5 Q1494 999 1494 765 Q1494 532 1422 353 Q1350 174 1193.5 71 Q1037 -32 794 -32 Z M794 144 Q1048 144 1167 311.5 Q1286 479 1286 765 Q1286 1050 1166.5 1218.5 Q1047 1387 794 1387 Q540 1387 420.5 1218.5 Q301 1050 301 765 Q301 479 420.5 311.5 Q540 144 794 144 Z M516 1731 Q507 1731 503.5 1735 Q500 1739 500 1749 L500 1881 Q500 1892 503 1895.5 Q506 1899 516 1899 L1068 1899 Q1078 1899 1082 1895 Q1086 1891 1086 1881 L1086 1749 Q1086 1739 1082 1735 Q1078 1731 1068 1731 L516 1731 Z " />
<glyph glyph-name="Oslash" unicode="&#xd8;" horiz-adv-x="1587" d="M1234 1431 Q1367 1328 1430.5 1156.5 Q1494 985 1494 765 Q1494 532 1422 353 Q1350 174 1193.5 71 Q1037 -32 794 -32 Q641 -32 523 9 L429 -178 Q425 -190 413 -190 L266 -190 Q258 -190 255.5 -186 Q253 -182 257 -176 L384 77 Q236 177 164.5 355 Q93 533 93 765 Q93 999 165 1177.5 Q237 1356 393.5 1459.5 Q550 1563 794 1563 Q966 1563 1101 1508 L1193 1691 Q1196 1699 1198.5 1701.5 Q1201 1704 1208 1704 L1355 1704 Q1361 1704 1363.5 1699.5 Q1366 1695 1363 1688 L1234 1431 Z M301 765 Q301 595 343 464.5 Q385 334 473 254 L1018 1341 Q923 1387 794 1387 Q540 1387 420.5 1218.5 Q301 1050 301 765 Z M794 144 Q1048 144 1167 311.5 Q1286 479 1286 765 Q1286 920 1251 1043 Q1216 1166 1143 1248 L605 175 Q690 144 794 144 Z " />
<glyph glyph-name="Otilde" unicode="&#xd5;" horiz-adv-x="1587" d="M794 -32 Q550 -32 393.5 71 Q237 174 165 352.5 Q93 531 93 765 Q93 999 165 1177.5 Q237 1356 393.5 1459.5 Q550 1563 794 1563 Q1037 1563 1193.5 1459.5 Q1350 1356 1422 1177.5 Q1494 999 1494 765 Q1494 532 1422 353 Q1350 174 1193.5 71 Q1037 -32 794 -32 Z M794 144 Q1048 144 1167 311.5 Q1286 479 1286 765 Q1286 1050 1166.5 1218.5 Q1047 1387 794 1387 Q540 1387 420.5 1218.5 Q301 1050 301 765 Q301 479 420.5 311.5 Q540 144 794 144 Z M986 1660 Q935 1660 896.5 1673.5 Q858 1687 831.5 1707 Q805 1727 772 1759 Q729 1799 698 1817.5 Q667 1836 622 1836 Q555 1836 524 1792 Q493 1748 493 1682 Q493 1666 474 1666 L366 1666 Q352 1666 348 1680 L331 1750 Q340 1806 369.5 1858.5 Q399 1911 457 1946.5 Q515 1982 602 1982 Q654 1982 693 1968 Q732 1954 759 1934 Q786 1914 820 1882 Q863 1843 893.5 1824.5 Q924 1806 967 1806 Q1034 1806 1065 1849.5 Q1096 1893 1096 1959 Q1096 1975 1114 1975 L1222 1975 Q1236 1975 1240 1961 L1258 1891 Q1249 1835 1219 1783 Q1189 1731 1131 1695.5 Q1073 1660 986 1660 Z " />
<glyph glyph-name="OE" unicode="&#x152;" horiz-adv-x="2185" d="M2056 1534 Q2064 1534 2066.5 1531.5 Q2069 1529 2069 1519 L2069 1370 Q2069 1362 2066.5 1360 Q2064 1358 2056 1358 L1286 1358 L1286 846 L1984 846 Q1992 846 1994.5 843.5 Q1997 841 1997 833 L1997 687 Q1997 680 1994.5 677 Q1992 674 1984 674 L1286 675 L1286 174 L2080 174 Q2087 174 2089.5 171 Q2092 168 2092 161 L2092 12 Q2092 5 2089.5 2.5 Q2087 0 2080 0 L806 0 Q561 0 401.5 97.5 Q242 195 167.5 366.5 Q93 538 93 767 Q93 995 167 1167 Q241 1339 399 1436.5 Q557 1534 802 1534 L2056 1534 Z M803 1360 Q547 1360 424.5 1201.5 Q302 1043 302 767 Q302 490 426 332.5 Q550 175 806 175 L1078 175 L1078 1360 L803 1360 Z " />
<glyph glyph-name="P" unicode="P" horiz-adv-x="1387" d="M142 0 Q136 0 132 4 Q128 8 128 14 L128 1519 Q128 1534 143 1534 L741 1534 Q1019 1534 1141.5 1412 Q1264 1290 1264 1079 Q1264 867 1141.5 745 Q1019 623 741 623 L335 623 L335 14 Q335 0 320 0 L142 0 Z M739 792 Q917 792 993 864.5 Q1069 937 1069 1078 Q1069 1216 995 1289 Q921 1362 739 1362 L335 1362 L335 792 L739 792 Z " />
<glyph glyph-name="Thorn" unicode="&#xde;" horiz-adv-x="1358" d="M135 0 Q122 0 122 13 L122 1518 Q122 1534 137 1534 L313 1534 Q329 1534 329 1516 L329 1250 L735 1250 Q1013 1250 1135.5 1128 Q1258 1006 1258 795 Q1258 584 1135.5 462.5 Q1013 341 735 341 L329 341 L329 16 Q329 7 326 3.5 Q323 0 315 0 L135 0 Z M733 509 Q912 509 987.5 581 Q1063 653 1063 794 Q1063 932 989 1005 Q915 1078 733 1078 L329 1078 L329 509 L733 509 Z " />
<glyph glyph-name="Q" unicode="Q" horiz-adv-x="1587" d="M1455 -25 Q1460 -30 1460 -35 Q1460 -39 1452 -47 L1349 -138 Q1344 -143 1338 -143 Q1332 -143 1327 -138 L1136 76 Q981 0 769 0 Q535 0 383.5 101.5 Q232 203 162.5 377.5 Q93 552 93 777 Q93 1006 165 1182.5 Q237 1359 393.5 1461 Q550 1563 794 1563 Q1037 1563 1193.5 1461 Q1350 1359 1422 1182.5 Q1494 1006 1494 777 Q1494 584 1440.5 430 Q1387 276 1278 174 L1455 -25 Z M794 176 Q918 176 1010 216 L823 426 Q818 433 818 436 Q818 441 825 448 L928 539 Q936 545 940 545 Q945 545 951 539 L1150 317 Q1219 395 1252.5 512 Q1286 629 1286 777 Q1286 1056 1166.5 1221.5 Q1047 1387 794 1387 Q540 1387 420.5 1221.5 Q301 1056 301 777 Q301 499 420 337.5 Q539 176 794 176 Z " />
<glyph glyph-name="R" unicode="R" horiz-adv-x="1385" d="M1288 1084 Q1288 904 1198 785.5 Q1108 667 909 634 L1264 84 L1247 11 Q1243 0 1234 0 L1097 0 Q1090 0 1087.5 2 Q1085 4 1080 12 L696 623 L335 623 L335 14 Q335 0 319 0 L142 0 Q136 0 132 4 Q128 8 128 14 L128 1519 Q128 1534 143 1534 L764 1534 Q1043 1534 1165.5 1413.5 Q1288 1293 1288 1084 Z M335 792 L763 792 Q941 792 1017 864.5 Q1093 937 1093 1078 Q1093 1216 1019 1289 Q945 1362 763 1362 L335 1362 L335 792 Z " />
<glyph glyph-name="Racute" unicode="&#x154;" horiz-adv-x="1385" d="M1288 1084 Q1288 904 1198 785.5 Q1108 667 909 634 L1264 84 L1247 11 Q1243 0 1234 0 L1097 0 Q1090 0 1087.5 2 Q1085 4 1080 12 L696 623 L335 623 L335 14 Q335 0 319 0 L142 0 Q136 0 132 4 Q128 8 128 14 L128 1519 Q128 1534 143 1534 L764 1534 Q1043 1534 1165.5 1413.5 Q1288 1293 1288 1084 Z M335 792 L763 792 Q941 792 1017 864.5 Q1093 937 1093 1078 Q1093 1216 1019 1289 Q945 1362 763 1362 L335 1362 L335 792 Z M532 1649 Q517 1649 517 1658 Q517 1662 520 1668 L683 1972 Q687 1982 692 1985 Q697 1988 706 1988 L906 1988 Q921 1988 921 1976 Q921 1970 919 1967 L736 1666 Q730 1656 725 1652.5 Q720 1649 710 1649 L532 1649 Z " />
<glyph glyph-name="Rcaron" unicode="&#x158;" horiz-adv-x="1385" d="M1288 1084 Q1288 904 1198 785.5 Q1108 667 909 634 L1264 84 L1247 11 Q1243 0 1234 0 L1097 0 Q1090 0 1087.5 2 Q1085 4 1080 12 L696 623 L335 623 L335 14 Q335 0 319 0 L142 0 Q136 0 132 4 Q128 8 128 14 L128 1519 Q128 1534 143 1534 L764 1534 Q1043 1534 1165.5 1413.5 Q1288 1293 1288 1084 Z M335 792 L763 792 Q941 792 1017 864.5 Q1093 937 1093 1078 Q1093 1216 1019 1289 Q945 1362 763 1362 L335 1362 L335 792 Z M518 1662 Q509 1662 503 1665.5 Q497 1669 488 1678 L234 1969 Q228 1975 228 1981 Q228 1988 239 1988 L410 1988 Q428 1988 443 1970 L625 1773 L803 1970 Q820 1988 836 1988 L1007 1988 Q1020 1988 1020 1980 Q1020 1975 1014 1969 L760 1678 Q752 1669 745.5 1665.5 Q739 1662 729 1662 L518 1662 Z " />
<glyph glyph-name="Rcommaaccent" unicode="&#x156;" horiz-adv-x="1385" d="M1288 1084 Q1288 904 1198 785.5 Q1108 667 909 634 L1264 84 L1247 11 Q1243 0 1234 0 L1097 0 Q1090 0 1087.5 2 Q1085 4 1080 12 L696 623 L335 623 L335 14 Q335 0 319 0 L142 0 Q136 0 132 4 Q128 8 128 14 L128 1519 Q128 1534 143 1534 L764 1534 Q1043 1534 1165.5 1413.5 Q1288 1293 1288 1084 Z M335 792 L763 792 Q941 792 1017 864.5 Q1093 937 1093 1078 Q1093 1216 1019 1289 Q945 1362 763 1362 L335 1362 L335 792 Z M537 -440 Q529 -440 526 -437.5 Q523 -435 523 -430 Q523 -425 524 -421 L587 -108 Q588 -99 594 -96 Q600 -93 610 -93 L779 -93 Q785 -93 788.5 -96.5 Q792 -100 792 -105 Q792 -111 790 -114 L713 -423 Q709 -440 690 -440 L537 -440 Z " />
<glyph glyph-name="S" unicode="S" horiz-adv-x="1314" d="M657 -31 Q408 -31 272 68 Q136 167 80 306 L101 397 Q104 410 118 410 L244 410 Q257 410 262 398 Q306 288 403 217 Q500 146 661 146 Q769 146 848 176.5 Q927 207 970 266 Q1013 325 1013 408 Q1013 511 949.5 563.5 Q886 616 765 646 L481 714 Q370 741 291 784 Q212 827 164 906.5 Q116 986 116 1111 Q116 1258 188 1360 Q260 1462 384.5 1513 Q509 1564 665 1564 Q907 1564 1031.5 1467 Q1156 1370 1214 1228 L1193 1137 Q1190 1123 1177 1123 L1051 1123 Q1044 1123 1040 1126 Q1036 1129 1033 1136 Q988 1248 901 1317.5 Q814 1387 661 1387 Q506 1387 419.5 1319.5 Q333 1252 333 1124 Q333 1049 367 1000 Q401 951 458.5 923 Q516 895 602 874 L877 808 Q983 783 1060 740 Q1137 697 1183 619.5 Q1229 542 1229 421 Q1229 277 1153.5 175 Q1078 73 948 21 Q818 -31 657 -31 Z " />
<glyph glyph-name="Sacute" unicode="&#x15a;" horiz-adv-x="1314" d="M657 -31 Q408 -31 272 68 Q136 167 80 306 L101 397 Q104 410 118 410 L244 410 Q257 410 262 398 Q306 288 403 217 Q500 146 661 146 Q769 146 848 176.5 Q927 207 970 266 Q1013 325 1013 408 Q1013 511 949.5 563.5 Q886 616 765 646 L481 714 Q370 741 291 784 Q212 827 164 906.5 Q116 986 116 1111 Q116 1258 188 1360 Q260 1462 384.5 1513 Q509 1564 665 1564 Q907 1564 1031.5 1467 Q1156 1370 1214 1228 L1193 1137 Q1190 1123 1177 1123 L1051 1123 Q1044 1123 1040 1126 Q1036 1129 1033 1136 Q988 1248 901 1317.5 Q814 1387 661 1387 Q506 1387 419.5 1319.5 Q333 1252 333 1124 Q333 1049 367 1000 Q401 951 458.5 923 Q516 895 602 874 L877 808 Q983 783 1060 740 Q1137 697 1183 619.5 Q1229 542 1229 421 Q1229 277 1153.5 175 Q1078 73 948 21 Q818 -31 657 -31 Z M577 1649 Q562 1649 562 1658 Q562 1662 565 1668 L728 1972 Q732 1982 737 1985 Q742 1988 751 1988 L951 1988 Q966 1988 966 1976 Q966 1970 964 1967 L781 1666 Q775 1656 770 1652.5 Q765 1649 755 1649 L577 1649 Z " />
<glyph glyph-name="Scaron" unicode="&#x160;" horiz-adv-x="1314" d="M657 -31 Q408 -31 272 68 Q136 167 80 306 L101 397 Q104 410 118 410 L244 410 Q257 410 262 398 Q306 288 403 217 Q500 146 661 146 Q769 146 848 176.5 Q927 207 970 266 Q1013 325 1013 408 Q1013 511 949.5 563.5 Q886 616 765 646 L481 714 Q370 741 291 784 Q212 827 164 906.5 Q116 986 116 1111 Q116 1258 188 1360 Q260 1462 384.5 1513 Q509 1564 665 1564 Q907 1564 1031.5 1467 Q1156 1370 1214 1228 L1193 1137 Q1190 1123 1177 1123 L1051 1123 Q1044 1123 1040 1126 Q1036 1129 1033 1136 Q988 1248 901 1317.5 Q814 1387 661 1387 Q506 1387 419.5 1319.5 Q333 1252 333 1124 Q333 1049 367 1000 Q401 951 458.5 923 Q516 895 602 874 L877 808 Q983 783 1060 740 Q1137 697 1183 619.5 Q1229 542 1229 421 Q1229 277 1153.5 175 Q1078 73 948 21 Q818 -31 657 -31 Z M563 1662 Q554 1662 548 1665.5 Q542 1669 533 1678 L279 1969 Q273 1975 273 1981 Q273 1988 284 1988 L455 1988 Q473 1988 488 1970 L670 1773 L848 1970 Q865 1988 881 1988 L1052 1988 Q1065 1988 1065 1980 Q1065 1975 1059 1969 L805 1678 Q797 1669 790.5 1665.5 Q784 1662 774 1662 L563 1662 Z " />
<glyph glyph-name="Scedilla" unicode="&#x15e;" horiz-adv-x="1314" d="M1229 421 Q1229 286 1162.5 188 Q1096 90 980.5 35.5 Q865 -19 718 -29 L667 -103 L733 -103 Q815 -103 863 -142.5 Q911 -182 911 -261 Q911 -339 861 -381.5 Q811 -424 729 -424 L528 -424 Q518 -424 514 -420.5 Q510 -417 507 -407 L492 -346 Q491 -344 491 -340 Q491 -326 510 -326 L691 -326 Q772 -326 772 -260 Q772 -226 752 -209 Q732 -192 695 -192 L507 -192 Q494 -192 494 -183 Q494 -179 497 -173 L593 -29 Q375 -15 253.5 81.5 Q132 178 80 306 L101 397 Q104 410 118 410 L244 410 Q257 410 262 398 Q306 288 403 217 Q500 146 661 146 Q769 146 848 176.5 Q927 207 970 266 Q1013 325 1013 408 Q1013 511 949.5 563.5 Q886 616 765 646 L481 714 Q370 741 291 784 Q212 827 164 906.5 Q116 986 116 1111 Q116 1258 188 1360 Q260 1462 384.5 1513 Q509 1564 665 1564 Q907 1564 1031.5 1467 Q1156 1370 1214 1228 L1193 1137 Q1190 1123 1177 1123 L1051 1123 Q1044 1123 1040 1126 Q1036 1129 1033 1136 Q988 1248 901 1317.5 Q814 1387 661 1387 Q506 1387 419.5 1319.5 Q333 1252 333 1124 Q333 1049 367 1000 Q401 951 458.5 923 Q516 895 602 874 L877 808 Q983 783 1060 740 Q1137 697 1183 619.5 Q1229 542 1229 421 Z " />
<glyph glyph-name="Scommaaccent" unicode="&#x218;" horiz-adv-x="1314" d="M657 -31 Q408 -31 272 68 Q136 167 80 306 L101 397 Q104 410 118 410 L244 410 Q257 410 262 398 Q306 288 403 217 Q500 146 661 146 Q769 146 848 176.5 Q927 207 970 266 Q1013 325 1013 408 Q1013 511 949.5 563.5 Q886 616 765 646 L481 714 Q370 741 291 784 Q212 827 164 906.5 Q116 986 116 1111 Q116 1258 188 1360 Q260 1462 384.5 1513 Q509 1564 665 1564 Q907 1564 1031.5 1467 Q1156 1370 1214 1228 L1193 1137 Q1190 1123 1177 1123 L1051 1123 Q1044 1123 1040 1126 Q1036 1129 1033 1136 Q988 1248 901 1317.5 Q814 1387 661 1387 Q506 1387 419.5 1319.5 Q333 1252 333 1124 Q333 1049 367 1000 Q401 951 458.5 923 Q516 895 602 874 L877 808 Q983 783 1060 740 Q1137 697 1183 619.5 Q1229 542 1229 421 Q1229 277 1153.5 175 Q1078 73 948 21 Q818 -31 657 -31 Z M518 -440 Q510 -440 507 -437.5 Q504 -435 504 -430 Q504 -425 505 -421 L568 -108 Q569 -99 575 -96 Q581 -93 591 -93 L760 -93 Q766 -93 769.5 -96.5 Q773 -100 773 -105 Q773 -111 771 -114 L694 -423 Q690 -440 671 -440 L518 -440 Z " />
<glyph glyph-name="T" unicode="T" horiz-adv-x="1281" d="M546 0 Q539 0 537 2.5 Q535 5 535 12 L535 1360 L88 1360 Q76 1360 76 1372 L76 1519 Q76 1528 78.5 1531 Q81 1534 88 1534 L1192 1534 Q1199 1534 1202 1531 Q1205 1528 1205 1519 L1205 1372 Q1205 1360 1192 1360 L746 1360 L746 13 Q746 5 743.5 2.5 Q741 0 733 0 L546 0 Z " />
<glyph glyph-name="Tbar" unicode="&#x166;" horiz-adv-x="1276" d="M1192 1534 Q1199 1534 1202 1531 Q1205 1528 1205 1519 L1205 1372 Q1205 1360 1192 1360 L746 1360 L746 841 L1094 841 Q1103 841 1106.5 838.5 Q1110 836 1110 828 L1110 689 Q1110 682 1106.5 679 Q1103 676 1094 676 L746 676 L746 13 Q746 5 743.5 2.5 Q741 0 733 0 L546 0 Q539 0 537 2.5 Q535 5 535 12 L535 676 L184 676 Q177 676 174 679 Q171 682 171 689 L171 828 Q171 836 174 838.5 Q177 841 184 841 L535 841 L535 1360 L88 1360 Q76 1360 76 1372 L76 1519 Q76 1528 78.5 1531 Q81 1534 88 1534 L1192 1534 Z " />
<glyph glyph-name="Tcaron" unicode="&#x164;" horiz-adv-x="1281" d="M546 0 Q539 0 537 2.5 Q535 5 535 12 L535 1360 L88 1360 Q76 1360 76 1372 L76 1519 Q76 1528 78.5 1531 Q81 1534 88 1534 L1192 1534 Q1199 1534 1202 1531 Q1205 1528 1205 1519 L1205 1372 Q1205 1360 1192 1360 L746 1360 L746 13 Q746 5 743.5 2.5 Q741 0 733 0 L546 0 Z M538 1662 Q529 1662 523 1665.5 Q517 1669 508 1678 L254 1969 Q248 1975 248 1981 Q248 1988 259 1988 L430 1988 Q448 1988 463 1970 L645 1773 L823 1970 Q840 1988 856 1988 L1027 1988 Q1040 1988 1040 1980 Q1040 1975 1034 1969 L780 1678 Q772 1669 765.5 1665.5 Q759 1662 749 1662 L538 1662 Z " />
<glyph glyph-name="uni0162" unicode="&#x162;" horiz-adv-x="1281" d="M1192 1534 Q1199 1534 1202 1531 Q1205 1528 1205 1519 L1205 1372 Q1205 1360 1192 1360 L746 1360 L746 13 Q746 5 743.5 2.5 Q741 0 733 0 L702 0 L631 -103 L697 -103 Q779 -103 827 -142.5 Q875 -182 875 -261 Q875 -339 825 -381.5 Q775 -424 693 -424 L492 -424 Q482 -424 478 -420.5 Q474 -417 471 -407 L456 -346 Q455 -344 455 -340 Q455 -326 474 -326 L655 -326 Q736 -326 736 -260 Q736 -226 716 -209 Q696 -192 659 -192 L471 -192 Q458 -192 458 -183 Q458 -179 461 -173 L576 0 L546 0 Q539 0 537 2.5 Q535 5 535 12 L535 1360 L88 1360 Q76 1360 76 1372 L76 1519 Q76 1528 78.5 1531 Q81 1534 88 1534 L1192 1534 Z " />
<glyph glyph-name="uni021A" unicode="&#x21a;" horiz-adv-x="1281" d="M546 0 Q539 0 537 2.5 Q535 5 535 12 L535 1360 L88 1360 Q76 1360 76 1372 L76 1519 Q76 1528 78.5 1531 Q81 1534 88 1534 L1192 1534 Q1199 1534 1202 1531 Q1205 1528 1205 1519 L1205 1372 Q1205 1360 1192 1360 L746 1360 L746 13 Q746 5 743.5 2.5 Q741 0 733 0 L546 0 Z M482 -440 Q474 -440 471 -437.5 Q468 -435 468 -430 Q468 -425 469 -421 L532 -108 Q533 -99 539 -96 Q545 -93 555 -93 L724 -93 Q730 -93 733.5 -96.5 Q737 -100 737 -105 Q737 -111 735 -114 L658 -423 Q654 -440 635 -440 L482 -440 Z " />
<glyph glyph-name="U" unicode="U" horiz-adv-x="1424" d="M709 -31 Q430 -31 274 113.5 Q118 258 118 548 L118 1520 Q118 1534 131 1534 L298 1534 Q310 1534 313 1520 L334 1402 L334 549 Q334 355 435 259 Q536 163 715 163 Q895 163 995.5 258.5 Q1096 354 1096 549 L1096 1402 L1118 1520 Q1119 1528 1122.5 1531 Q1126 1534 1133 1534 L1292 1534 Q1306 1534 1306 1520 L1306 548 Q1306 359 1233 229 Q1160 99 1026 34 Q892 -31 709 -31 Z " />
<glyph glyph-name="Uacute" unicode="&#xda;" horiz-adv-x="1424" d="M709 -31 Q430 -31 274 113.5 Q118 258 118 548 L118 1520 Q118 1534 131 1534 L298 1534 Q310 1534 313 1520 L334 1402 L334 549 Q334 355 435 259 Q536 163 715 163 Q895 163 995.5 258.5 Q1096 354 1096 549 L1096 1402 L1118 1520 Q1119 1528 1122.5 1531 Q1126 1534 1133 1534 L1292 1534 Q1306 1534 1306 1520 L1306 548 Q1306 359 1233 229 Q1160 99 1026 34 Q892 -31 709 -31 Z M623 1649 Q608 1649 608 1658 Q608 1662 611 1668 L774 1972 Q778 1982 783 1985 Q788 1988 797 1988 L997 1988 Q1012 1988 1012 1976 Q1012 1970 1010 1967 L827 1666 Q821 1656 816 1652.5 Q811 1649 801 1649 L623 1649 Z " />
<glyph glyph-name="Ucircumflex" unicode="&#xdb;" horiz-adv-x="1424" d="M709 -31 Q430 -31 274 113.5 Q118 258 118 548 L118 1520 Q118 1534 131 1534 L298 1534 Q310 1534 313 1520 L334 1402 L334 549 Q334 355 435 259 Q536 163 715 163 Q895 163 995.5 258.5 Q1096 354 1096 549 L1096 1402 L1118 1520 Q1119 1528 1122.5 1531 Q1126 1534 1133 1534 L1292 1534 Q1306 1534 1306 1520 L1306 548 Q1306 359 1233 229 Q1160 99 1026 34 Q892 -31 709 -31 Z M329 1656 Q317 1656 317 1664 Q317 1669 323 1675 L576 1966 Q586 1976 591.5 1979 Q597 1982 606 1982 L818 1982 Q827 1982 833 1978.5 Q839 1975 847 1966 L1103 1675 Q1109 1669 1109 1664 Q1109 1656 1097 1656 L926 1656 Q909 1656 893 1673 L713 1873 L532 1673 Q518 1656 500 1656 L329 1656 Z " />
<glyph glyph-name="Udieresis" unicode="&#xdc;" horiz-adv-x="1424" d="M709 -31 Q430 -31 274 113.5 Q118 258 118 548 L118 1520 Q118 1534 131 1534 L298 1534 Q310 1534 313 1520 L334 1402 L334 549 Q334 355 435 259 Q536 163 715 163 Q895 163 995.5 258.5 Q1096 354 1096 549 L1096 1402 L1118 1520 Q1119 1528 1122.5 1531 Q1126 1534 1133 1534 L1292 1534 Q1306 1534 1306 1520 L1306 548 Q1306 359 1233 229 Q1160 99 1026 34 Q892 -31 709 -31 Z M463 1692 Q454 1692 450 1696 Q446 1700 446 1710 L446 1868 Q446 1886 463 1886 L623 1886 Q632 1886 637 1881 Q642 1876 642 1868 L642 1710 Q642 1692 623 1692 L463 1692 Z M801 1692 Q792 1692 788 1696 Q784 1700 784 1710 L784 1868 Q784 1886 801 1886 L961 1886 Q970 1886 975 1881 Q980 1876 980 1868 L980 1710 Q980 1692 961 1692 L801 1692 Z " />
<glyph glyph-name="Ugrave" unicode="&#xd9;" horiz-adv-x="1424" d="M709 -31 Q430 -31 274 113.5 Q118 258 118 548 L118 1520 Q118 1534 131 1534 L298 1534 Q310 1534 313 1520 L334 1402 L334 549 Q334 355 435 259 Q536 163 715 163 Q895 163 995.5 258.5 Q1096 354 1096 549 L1096 1402 L1118 1520 Q1119 1528 1122.5 1531 Q1126 1534 1133 1534 L1292 1534 Q1306 1534 1306 1520 L1306 548 Q1306 359 1233 229 Q1160 99 1026 34 Q892 -31 709 -31 Z M630 1649 Q620 1649 615 1652.5 Q610 1656 604 1666 L416 1967 Q414 1970 414 1976 Q414 1988 429 1988 L629 1988 Q638 1988 643 1985 Q648 1982 653 1972 L818 1668 Q822 1663 822 1657 Q822 1649 808 1649 L630 1649 Z " />
<glyph glyph-name="Uhungarumlaut" unicode="&#x170;" horiz-adv-x="1424" d="M709 -31 Q430 -31 274 113.5 Q118 258 118 548 L118 1520 Q118 1534 131 1534 L298 1534 Q310 1534 313 1520 L334 1402 L334 549 Q334 355 435 259 Q536 163 715 163 Q895 163 995.5 258.5 Q1096 354 1096 549 L1096 1402 L1118 1520 Q1119 1528 1122.5 1531 Q1126 1534 1133 1534 L1292 1534 Q1306 1534 1306 1520 L1306 548 Q1306 359 1233 229 Q1160 99 1026 34 Q892 -31 709 -31 Z M471 1649 Q459 1649 459 1657 Q459 1662 462 1668 L623 1972 Q629 1982 634 1985 Q639 1988 649 1988 L806 1988 Q812 1988 816 1985 Q820 1982 820 1977 Q820 1972 816 1967 L638 1665 Q632 1655 627 1652 Q622 1649 613 1649 L471 1649 Z M784 1649 Q772 1649 772 1657 Q772 1662 775 1668 L968 1972 Q973 1982 978.5 1985 Q984 1988 994 1988 L1154 1988 Q1168 1988 1168 1977 Q1168 1973 1165 1967 L952 1665 Q945 1656 939.5 1652.5 Q934 1649 924 1649 L784 1649 Z " />
<glyph glyph-name="Umacron" unicode="&#x16a;" horiz-adv-x="1424" d="M709 -31 Q430 -31 274 113.5 Q118 258 118 548 L118 1520 Q118 1534 131 1534 L298 1534 Q310 1534 313 1520 L334 1402 L334 549 Q334 355 435 259 Q536 163 715 163 Q895 163 995.5 258.5 Q1096 354 1096 549 L1096 1402 L1118 1520 Q1119 1528 1122.5 1531 Q1126 1534 1133 1534 L1292 1534 Q1306 1534 1306 1520 L1306 548 Q1306 359 1233 229 Q1160 99 1026 34 Q892 -31 709 -31 Z M436 1731 Q427 1731 423.5 1735 Q420 1739 420 1749 L420 1881 Q420 1892 423 1895.5 Q426 1899 436 1899 L988 1899 Q998 1899 1002 1895 Q1006 1891 1006 1881 L1006 1749 Q1006 1739 1002 1735 Q998 1731 988 1731 L436 1731 Z " />
<glyph glyph-name="Uogonek" unicode="&#x172;" horiz-adv-x="1424" d="M994 20 Q949 -10 919.5 -50.5 Q890 -91 890 -140 Q890 -187 922.5 -211.5 Q955 -236 1013 -236 L1137 -236 Q1159 -236 1155 -254 L1142 -341 Q1140 -351 1136 -355 Q1132 -359 1124 -359 L975 -359 Q864 -359 798.5 -310 Q733 -261 733 -176 Q733 -95 789 -28 Q750 -31 709 -31 Q430 -31 274 113.5 Q118 258 118 548 L118 1520 Q118 1534 131 1534 L298 1534 Q310 1534 313 1520 L334 1402 L334 549 Q334 355 435 259 Q536 163 715 163 Q895 163 995.5 258.5 Q1096 354 1096 549 L1096 1402 L1118 1520 Q1119 1528 1122.5 1531 Q1126 1534 1133 1534 L1292 1534 Q1306 1534 1306 1520 L1306 548 Q1306 348 1224.5 214.5 Q1143 81 994 20 Z " />
<glyph glyph-name="Uring" unicode="&#x16e;" horiz-adv-x="1424" d="M709 -31 Q430 -31 274 113.5 Q118 258 118 548 L118 1520 Q118 1534 131 1534 L298 1534 Q310 1534 313 1520 L334 1402 L334 549 Q334 355 435 259 Q536 163 715 163 Q895 163 995.5 258.5 Q1096 354 1096 549 L1096 1402 L1118 1520 Q1119 1528 1122.5 1531 Q1126 1534 1133 1534 L1292 1534 Q1306 1534 1306 1520 L1306 548 Q1306 359 1233 229 Q1160 99 1026 34 Q892 -31 709 -31 Z M711 1640 Q636 1640 578.5 1670 Q521 1700 489.5 1755 Q458 1810 458 1882 Q458 1951 490 2006.5 Q522 2062 579.5 2094 Q637 2126 711 2126 Q784 2126 842.5 2094 Q901 2062 933.5 2006.5 Q966 1951 966 1882 Q966 1811 933.5 1756 Q901 1701 843 1670.5 Q785 1640 711 1640 Z M712 1766 Q763 1766 794 1798 Q825 1830 825 1882 Q825 1935 794 1967.5 Q763 2000 712 2000 Q661 2000 630.5 1967.5 Q600 1935 600 1882 Q600 1829 630.5 1797.5 Q661 1766 712 1766 Z " />
<glyph glyph-name="V" unicode="V" horiz-adv-x="1418" d="M594 0 Q582 0 579 13 L70 1446 L80 1520 Q84 1534 95 1534 L259 1534 Q265 1534 267.5 1531 Q270 1528 273 1520 L707 265 L1148 1520 Q1151 1527 1154 1530.5 Q1157 1534 1164 1534 L1321 1534 Q1333 1534 1336 1520 L1346 1447 L819 13 Q814 0 804 0 L594 0 Z " />
<glyph glyph-name="W" unicode="W" horiz-adv-x="2049" d="M438 0 Q426 0 423 13 L70 1445 L80 1519 Q84 1534 95 1534 L247 1534 Q258 1534 262 1519 L549 310 L916 1519 Q918 1525 922 1529.5 Q926 1534 932 1534 L1117 1534 Q1123 1534 1127 1529.5 Q1131 1525 1133 1519 L1505 310 L1786 1519 Q1790 1534 1800 1534 L1954 1534 Q1965 1534 1969 1519 L1978 1445 L1629 13 Q1626 0 1614 0 L1413 0 Q1401 0 1398 13 L1023 1233 L648 13 Q645 0 633 0 L438 0 Z " />
<glyph glyph-name="Wacute" unicode="&#x1e82;" horiz-adv-x="2049" d="M438 0 Q426 0 423 13 L70 1445 L80 1519 Q84 1534 95 1534 L247 1534 Q258 1534 262 1519 L549 310 L916 1519 Q918 1525 922 1529.5 Q926 1534 932 1534 L1117 1534 Q1123 1534 1127 1529.5 Q1131 1525 1133 1519 L1505 310 L1786 1519 Q1790 1534 1800 1534 L1954 1534 Q1965 1534 1969 1519 L1978 1445 L1629 13 Q1626 0 1614 0 L1413 0 Q1401 0 1398 13 L1023 1233 L648 13 Q645 0 633 0 L438 0 Z M938 1649 Q923 1649 923 1658 Q923 1662 926 1668 L1089 1972 Q1093 1982 1098 1985 Q1103 1988 1112 1988 L1312 1988 Q1327 1988 1327 1976 Q1327 1970 1325 1967 L1142 1666 Q1136 1656 1131 1652.5 Q1126 1649 1116 1649 L938 1649 Z " />
<glyph glyph-name="Wcircumflex" unicode="&#x174;" horiz-adv-x="2049" d="M438 0 Q426 0 423 13 L70 1445 L80 1519 Q84 1534 95 1534 L247 1534 Q258 1534 262 1519 L549 310 L916 1519 Q918 1525 922 1529.5 Q926 1534 932 1534 L1117 1534 Q1123 1534 1127 1529.5 Q1131 1525 1133 1519 L1505 310 L1786 1519 Q1790 1534 1800 1534 L1954 1534 Q1965 1534 1969 1519 L1978 1445 L1629 13 Q1626 0 1614 0 L1413 0 Q1401 0 1398 13 L1023 1233 L648 13 Q645 0 633 0 L438 0 Z M644 1656 Q632 1656 632 1664 Q632 1669 638 1675 L891 1966 Q901 1976 906.5 1979 Q912 1982 921 1982 L1133 1982 Q1142 1982 1148 1978.5 Q1154 1975 1162 1966 L1418 1675 Q1424 1669 1424 1664 Q1424 1656 1412 1656 L1241 1656 Q1224 1656 1208 1673 L1028 1873 L847 1673 Q833 1656 815 1656 L644 1656 Z " />
<glyph glyph-name="Wdieresis" unicode="&#x1e84;" horiz-adv-x="2049" d="M438 0 Q426 0 423 13 L70 1445 L80 1519 Q84 1534 95 1534 L247 1534 Q258 1534 262 1519 L549 310 L916 1519 Q918 1525 922 1529.5 Q926 1534 932 1534 L1117 1534 Q1123 1534 1127 1529.5 Q1131 1525 1133 1519 L1505 310 L1786 1519 Q1790 1534 1800 1534 L1954 1534 Q1965 1534 1969 1519 L1978 1445 L1629 13 Q1626 0 1614 0 L1413 0 Q1401 0 1398 13 L1023 1233 L648 13 Q645 0 633 0 L438 0 Z M778 1692 Q769 1692 765 1696 Q761 1700 761 1710 L761 1868 Q761 1886 778 1886 L938 1886 Q947 1886 952 1881 Q957 1876 957 1868 L957 1710 Q957 1692 938 1692 L778 1692 Z M1116 1692 Q1107 1692 1103 1696 Q1099 1700 1099 1710 L1099 1868 Q1099 1886 1116 1886 L1276 1886 Q1285 1886 1290 1881 Q1295 1876 1295 1868 L1295 1710 Q1295 1692 1276 1692 L1116 1692 Z " />
<glyph glyph-name="Wgrave" unicode="&#x1e80;" horiz-adv-x="2049" d="M438 0 Q426 0 423 13 L70 1445 L80 1519 Q84 1534 95 1534 L247 1534 Q258 1534 262 1519 L549 310 L916 1519 Q918 1525 922 1529.5 Q926 1534 932 1534 L1117 1534 Q1123 1534 1127 1529.5 Q1131 1525 1133 1519 L1505 310 L1786 1519 Q1790 1534 1800 1534 L1954 1534 Q1965 1534 1969 1519 L1978 1445 L1629 13 Q1626 0 1614 0 L1413 0 Q1401 0 1398 13 L1023 1233 L648 13 Q645 0 633 0 L438 0 Z M945 1649 Q935 1649 930 1652.5 Q925 1656 919 1666 L731 1967 Q729 1970 729 1976 Q729 1988 744 1988 L944 1988 Q953 1988 958 1985 Q963 1982 968 1972 L1133 1668 Q1137 1663 1137 1657 Q1137 1649 1123 1649 L945 1649 Z " />
<glyph glyph-name="X" unicode="X" horiz-adv-x="1417" d="M88 0 Q76 0 73 13 L64 93 L545 780 L85 1440 L94 1519 Q95 1525 99 1529.5 Q103 1534 109 1534 L270 1534 Q275 1534 279.5 1530.5 Q284 1527 287 1523 L696 894 L1101 1523 Q1107 1534 1119 1534 L1278 1534 Q1289 1534 1293 1519 L1301 1441 L849 783 L1329 92 L1320 13 Q1317 0 1305 0 L1144 0 Q1135 0 1126 11 L694 669 L264 11 Q255 0 246 0 L88 0 Z " />
<glyph glyph-name="Y" unicode="Y" horiz-adv-x="1370" d="M588 0 Q581 0 579 2.5 Q577 5 577 12 L577 650 L71 1441 L80 1519 Q81 1525 85 1529.5 Q89 1534 95 1534 L255 1534 Q261 1534 264.5 1531.5 Q268 1529 272 1523 L688 821 L1100 1523 Q1106 1534 1117 1534 L1275 1534 Q1286 1534 1290 1519 L1299 1441 L801 650 L801 13 Q801 5 798.5 2.5 Q796 0 789 0 L588 0 Z " />
<glyph glyph-name="Yacute" unicode="&#xdd;" horiz-adv-x="1370" d="M588 0 Q581 0 579 2.5 Q577 5 577 12 L577 650 L71 1441 L80 1519 Q81 1525 85 1529.5 Q89 1534 95 1534 L255 1534 Q261 1534 264.5 1531.5 Q268 1529 272 1523 L688 821 L1100 1523 Q1106 1534 1117 1534 L1275 1534 Q1286 1534 1290 1519 L1299 1441 L801 650 L801 13 Q801 5 798.5 2.5 Q796 0 789 0 L588 0 Z M597 1649 Q582 1649 582 1658 Q582 1662 585 1668 L748 1972 Q752 1982 757 1985 Q762 1988 771 1988 L971 1988 Q986 1988 986 1976 Q986 1970 984 1967 L801 1666 Q795 1656 790 1652.5 Q785 1649 775 1649 L597 1649 Z " />
<glyph glyph-name="Ycircumflex" unicode="&#x176;" horiz-adv-x="1370" d="M588 0 Q581 0 579 2.5 Q577 5 577 12 L577 650 L71 1441 L80 1519 Q81 1525 85 1529.5 Q89 1534 95 1534 L255 1534 Q261 1534 264.5 1531.5 Q268 1529 272 1523 L688 821 L1100 1523 Q1106 1534 1117 1534 L1275 1534 Q1286 1534 1290 1519 L1299 1441 L801 650 L801 13 Q801 5 798.5 2.5 Q796 0 789 0 L588 0 Z M303 1656 Q291 1656 291 1664 Q291 1669 297 1675 L550 1966 Q560 1976 565.5 1979 Q571 1982 580 1982 L792 1982 Q801 1982 807 1978.5 Q813 1975 821 1966 L1077 1675 Q1083 1669 1083 1664 Q1083 1656 1071 1656 L900 1656 Q883 1656 867 1673 L687 1873 L506 1673 Q492 1656 474 1656 L303 1656 Z " />
<glyph glyph-name="Ydieresis" unicode="&#x178;" horiz-adv-x="1370" d="M588 0 Q581 0 579 2.5 Q577 5 577 12 L577 650 L71 1441 L80 1519 Q81 1525 85 1529.5 Q89 1534 95 1534 L255 1534 Q261 1534 264.5 1531.5 Q268 1529 272 1523 L688 821 L1100 1523 Q1106 1534 1117 1534 L1275 1534 Q1286 1534 1290 1519 L1299 1441 L801 650 L801 13 Q801 5 798.5 2.5 Q796 0 789 0 L588 0 Z M437 1692 Q428 1692 424 1696 Q420 1700 420 1710 L420 1868 Q420 1886 437 1886 L597 1886 Q606 1886 611 1881 Q616 1876 616 1868 L616 1710 Q616 1692 597 1692 L437 1692 Z M775 1692 Q766 1692 762 1696 Q758 1700 758 1710 L758 1868 Q758 1886 775 1886 L935 1886 Q944 1886 949 1881 Q954 1876 954 1868 L954 1710 Q954 1692 935 1692 L775 1692 Z " />
<glyph glyph-name="Ygrave" unicode="&#x1ef2;" horiz-adv-x="1370" d="M588 0 Q581 0 579 2.5 Q577 5 577 12 L577 650 L71 1441 L80 1519 Q81 1525 85 1529.5 Q89 1534 95 1534 L255 1534 Q261 1534 264.5 1531.5 Q268 1529 272 1523 L688 821 L1100 1523 Q1106 1534 1117 1534 L1275 1534 Q1286 1534 1290 1519 L1299 1441 L801 650 L801 13 Q801 5 798.5 2.5 Q796 0 789 0 L588 0 Z M604 1649 Q594 1649 589 1652.5 Q584 1656 578 1666 L390 1967 Q388 1970 388 1976 Q388 1988 403 1988 L603 1988 Q612 1988 617 1985 Q622 1982 627 1972 L792 1668 Q796 1663 796 1657 Q796 1649 782 1649 L604 1649 Z " />
<glyph glyph-name="Z" unicode="Z" horiz-adv-x="1324" d="M103 0 Q91 0 87 14 L66 164 L978 1361 L124 1361 Q116 1361 113 1364 Q110 1367 110 1376 L110 1519 Q110 1527 113 1530.5 Q116 1534 124 1534 L1203 1534 Q1215 1534 1219 1519 L1240 1370 L327 172 L1244 172 Q1259 172 1259 159 L1259 14 Q1259 5 1256 2.5 Q1253 0 1244 0 L103 0 Z " />
<glyph glyph-name="Zacute" unicode="&#x179;" horiz-adv-x="1324" d="M103 0 Q91 0 87 14 L66 164 L978 1361 L124 1361 Q116 1361 113 1364 Q110 1367 110 1376 L110 1519 Q110 1527 113 1530.5 Q116 1534 124 1534 L1203 1534 Q1215 1534 1219 1519 L1240 1370 L327 172 L1244 172 Q1259 172 1259 159 L1259 14 Q1259 5 1256 2.5 Q1253 0 1244 0 L103 0 Z M581 1649 Q566 1649 566 1658 Q566 1662 569 1668 L732 1972 Q736 1982 741 1985 Q746 1988 755 1988 L955 1988 Q970 1988 970 1976 Q970 1970 968 1967 L785 1666 Q779 1656 774 1652.5 Q769 1649 759 1649 L581 1649 Z " />
<glyph glyph-name="Zcaron" unicode="&#x17d;" horiz-adv-x="1324" d="M103 0 Q91 0 87 14 L66 164 L978 1361 L124 1361 Q116 1361 113 1364 Q110 1367 110 1376 L110 1519 Q110 1527 113 1530.5 Q116 1534 124 1534 L1203 1534 Q1215 1534 1219 1519 L1240 1370 L327 172 L1244 172 Q1259 172 1259 159 L1259 14 Q1259 5 1256 2.5 Q1253 0 1244 0 L103 0 Z M567 1662 Q558 1662 552 1665.5 Q546 1669 537 1678 L283 1969 Q277 1975 277 1981 Q277 1988 288 1988 L459 1988 Q477 1988 492 1970 L674 1773 L852 1970 Q869 1988 885 1988 L1056 1988 Q1069 1988 1069 1980 Q1069 1975 1063 1969 L809 1678 Q801 1669 794.5 1665.5 Q788 1662 778 1662 L567 1662 Z " />
<glyph glyph-name="Zdotaccent" unicode="&#x17b;" horiz-adv-x="1324" d="M103 0 Q91 0 87 14 L66 164 L978 1361 L124 1361 Q116 1361 113 1364 Q110 1367 110 1376 L110 1519 Q110 1527 113 1530.5 Q116 1534 124 1534 L1203 1534 Q1215 1534 1219 1519 L1240 1370 L327 172 L1244 172 Q1259 172 1259 159 L1259 14 Q1259 5 1256 2.5 Q1253 0 1244 0 L103 0 Z M590 1692 Q581 1692 577 1696 Q573 1700 573 1710 L573 1868 Q573 1886 590 1886 L750 1886 Q759 1886 764 1881 Q769 1876 769 1868 L769 1710 Q769 1692 750 1692 L590 1692 Z " />
<glyph glyph-name="a" unicode="a" horiz-adv-x="1252" d="M489 -31 Q298 -31 191 57.5 Q84 146 84 313 Q84 479 201 564 Q318 649 528 662 L890 686 L890 780 Q890 1033 605 1033 Q514 1033 448 1004 Q382 975 345 936.5 Q308 898 291 863 Q287 857 284 854.5 Q281 852 275 852 L164 852 Q157 852 153.5 854.5 Q150 857 148 864 L128 948 Q154 1001 208.5 1055.5 Q263 1110 364 1151 Q465 1192 612 1192 Q845 1192 964.5 1086 Q1084 980 1084 789 L1084 280 Q1084 227 1102 192.5 Q1120 158 1147.5 142.5 Q1175 127 1205 127 Q1217 127 1217 113 L1217 10 Q1217 -3 1204 -6 L1128 -26 Q1048 -24 991 19 Q934 62 915 143 Q863 73 762 21 Q661 -31 489 -31 Z M548 120 Q651 120 728 151.5 Q805 183 846 236.5 Q887 290 887 355 L887 531 L559 508 Q422 498 355 452.5 Q288 407 288 311 Q288 120 548 120 Z " />
<glyph glyph-name="aacute" unicode="&#xe1;" horiz-adv-x="1252" d="M489 -31 Q298 -31 191 57.5 Q84 146 84 313 Q84 479 201 564 Q318 649 528 662 L890 686 L890 780 Q890 1033 605 1033 Q514 1033 448 1004 Q382 975 345 936.5 Q308 898 291 863 Q287 857 284 854.5 Q281 852 275 852 L164 852 Q157 852 153.5 854.5 Q150 857 148 864 L128 948 Q154 1001 208.5 1055.5 Q263 1110 364 1151 Q465 1192 612 1192 Q845 1192 964.5 1086 Q1084 980 1084 789 L1084 280 Q1084 227 1102 192.5 Q1120 158 1147.5 142.5 Q1175 127 1205 127 Q1217 127 1217 113 L1217 10 Q1217 -3 1204 -6 L1128 -26 Q1048 -24 991 19 Q934 62 915 143 Q863 73 762 21 Q661 -31 489 -31 Z M548 120 Q651 120 728 151.5 Q805 183 846 236.5 Q887 290 887 355 L887 531 L559 508 Q422 498 355 452.5 Q288 407 288 311 Q288 120 548 120 Z M527 1295 Q512 1295 512 1304 Q512 1308 515 1314 L678 1618 Q682 1628 687 1631 Q692 1634 701 1634 L901 1634 Q916 1634 916 1622 Q916 1616 914 1613 L731 1312 Q725 1302 720 1298.5 Q715 1295 705 1295 L527 1295 Z " />
<glyph glyph-name="abreve" unicode="&#x103;" horiz-adv-x="1252" d="M489 -31 Q298 -31 191 57.5 Q84 146 84 313 Q84 479 201 564 Q318 649 528 662 L890 686 L890 780 Q890 1033 605 1033 Q514 1033 448 1004 Q382 975 345 936.5 Q308 898 291 863 Q287 857 284 854.5 Q281 852 275 852 L164 852 Q157 852 153.5 854.5 Q150 857 148 864 L128 948 Q154 1001 208.5 1055.5 Q263 1110 364 1151 Q465 1192 612 1192 Q845 1192 964.5 1086 Q1084 980 1084 789 L1084 280 Q1084 227 1102 192.5 Q1120 158 1147.5 142.5 Q1175 127 1205 127 Q1217 127 1217 113 L1217 10 Q1217 -3 1204 -6 L1128 -26 Q1048 -24 991 19 Q934 62 915 143 Q863 73 762 21 Q661 -31 489 -31 Z M548 120 Q651 120 728 151.5 Q805 183 846 236.5 Q887 290 887 355 L887 531 L559 508 Q422 498 355 452.5 Q288 407 288 311 Q288 120 548 120 Z M618 1263 Q488 1263 399.5 1305 Q311 1347 264 1408 Q217 1469 199 1533 L227 1619 Q231 1633 246 1633 L359 1633 Q369 1633 373.5 1629.5 Q378 1626 379 1616 Q384 1563 413 1516.5 Q442 1470 494 1441 Q546 1412 618 1412 Q690 1412 742 1441 Q794 1470 822.5 1516.5 Q851 1563 857 1616 Q858 1625 862.5 1629 Q867 1633 876 1633 L989 1633 Q1003 1633 1009 1619 L1037 1533 Q1019 1469 972 1408 Q925 1347 836 1305 Q747 1263 618 1263 Z " />
<glyph glyph-name="acircumflex" unicode="&#xe2;" horiz-adv-x="1252" d="M489 -31 Q298 -31 191 57.5 Q84 146 84 313 Q84 479 201 564 Q318 649 528 662 L890 686 L890 780 Q890 1033 605 1033 Q514 1033 448 1004 Q382 975 345 936.5 Q308 898 291 863 Q287 857 284 854.5 Q281 852 275 852 L164 852 Q157 852 153.5 854.5 Q150 857 148 864 L128 948 Q154 1001 208.5 1055.5 Q263 1110 364 1151 Q465 1192 612 1192 Q845 1192 964.5 1086 Q1084 980 1084 789 L1084 280 Q1084 227 1102 192.5 Q1120 158 1147.5 142.5 Q1175 127 1205 127 Q1217 127 1217 113 L1217 10 Q1217 -3 1204 -6 L1128 -26 Q1048 -24 991 19 Q934 62 915 143 Q863 73 762 21 Q661 -31 489 -31 Z M548 120 Q651 120 728 151.5 Q805 183 846 236.5 Q887 290 887 355 L887 531 L559 508 Q422 498 355 452.5 Q288 407 288 311 Q288 120 548 120 Z M233 1302 Q221 1302 221 1310 Q221 1315 227 1321 L480 1612 Q490 1622 495.5 1625 Q501 1628 510 1628 L722 1628 Q731 1628 737 1624.5 Q743 1621 751 1612 L1007 1321 Q1013 1315 1013 1310 Q1013 1302 1001 1302 L830 1302 Q813 1302 797 1319 L617 1519 L436 1319 Q422 1302 404 1302 L233 1302 Z " />
<glyph glyph-name="adieresis" unicode="&#xe4;" horiz-adv-x="1252" d="M489 -31 Q298 -31 191 57.5 Q84 146 84 313 Q84 479 201 564 Q318 649 528 662 L890 686 L890 780 Q890 1033 605 1033 Q514 1033 448 1004 Q382 975 345 936.5 Q308 898 291 863 Q287 857 284 854.5 Q281 852 275 852 L164 852 Q157 852 153.5 854.5 Q150 857 148 864 L128 948 Q154 1001 208.5 1055.5 Q263 1110 364 1151 Q465 1192 612 1192 Q845 1192 964.5 1086 Q1084 980 1084 789 L1084 280 Q1084 227 1102 192.5 Q1120 158 1147.5 142.5 Q1175 127 1205 127 Q1217 127 1217 113 L1217 10 Q1217 -3 1204 -6 L1128 -26 Q1048 -24 991 19 Q934 62 915 143 Q863 73 762 21 Q661 -31 489 -31 Z M548 120 Q651 120 728 151.5 Q805 183 846 236.5 Q887 290 887 355 L887 531 L559 508 Q422 498 355 452.5 Q288 407 288 311 Q288 120 548 120 Z M367 1338 Q358 1338 354 1342 Q350 1346 350 1356 L350 1514 Q350 1532 367 1532 L527 1532 Q536 1532 541 1527 Q546 1522 546 1514 L546 1356 Q546 1338 527 1338 L367 1338 Z M705 1338 Q696 1338 692 1342 Q688 1346 688 1356 L688 1514 Q688 1532 705 1532 L865 1532 Q874 1532 879 1527 Q884 1522 884 1514 L884 1356 Q884 1338 865 1338 L705 1338 Z " />
<glyph glyph-name="agrave" unicode="&#xe0;" horiz-adv-x="1252" d="M489 -31 Q298 -31 191 57.5 Q84 146 84 313 Q84 479 201 564 Q318 649 528 662 L890 686 L890 780 Q890 1033 605 1033 Q514 1033 448 1004 Q382 975 345 936.5 Q308 898 291 863 Q287 857 284 854.5 Q281 852 275 852 L164 852 Q157 852 153.5 854.5 Q150 857 148 864 L128 948 Q154 1001 208.5 1055.5 Q263 1110 364 1151 Q465 1192 612 1192 Q845 1192 964.5 1086 Q1084 980 1084 789 L1084 280 Q1084 227 1102 192.5 Q1120 158 1147.5 142.5 Q1175 127 1205 127 Q1217 127 1217 113 L1217 10 Q1217 -3 1204 -6 L1128 -26 Q1048 -24 991 19 Q934 62 915 143 Q863 73 762 21 Q661 -31 489 -31 Z M548 120 Q651 120 728 151.5 Q805 183 846 236.5 Q887 290 887 355 L887 531 L559 508 Q422 498 355 452.5 Q288 407 288 311 Q288 120 548 120 Z M534 1295 Q524 1295 519 1298.5 Q514 1302 508 1312 L320 1613 Q318 1616 318 1622 Q318 1634 333 1634 L533 1634 Q542 1634 547 1631 Q552 1628 557 1618 L722 1314 Q726 1309 726 1303 Q726 1295 712 1295 L534 1295 Z " />
<glyph glyph-name="amacron" unicode="&#x101;" horiz-adv-x="1252" d="M489 -31 Q298 -31 191 57.5 Q84 146 84 313 Q84 479 201 564 Q318 649 528 662 L890 686 L890 780 Q890 1033 605 1033 Q514 1033 448 1004 Q382 975 345 936.5 Q308 898 291 863 Q287 857 284 854.5 Q281 852 275 852 L164 852 Q157 852 153.5 854.5 Q150 857 148 864 L128 948 Q154 1001 208.5 1055.5 Q263 1110 364 1151 Q465 1192 612 1192 Q845 1192 964.5 1086 Q1084 980 1084 789 L1084 280 Q1084 227 1102 192.5 Q1120 158 1147.5 142.5 Q1175 127 1205 127 Q1217 127 1217 113 L1217 10 Q1217 -3 1204 -6 L1128 -26 Q1048 -24 991 19 Q934 62 915 143 Q863 73 762 21 Q661 -31 489 -31 Z M548 120 Q651 120 728 151.5 Q805 183 846 236.5 Q887 290 887 355 L887 531 L559 508 Q422 498 355 452.5 Q288 407 288 311 Q288 120 548 120 Z M340 1377 Q331 1377 327.5 1381 Q324 1385 324 1395 L324 1527 Q324 1538 327 1541.5 Q330 1545 340 1545 L892 1545 Q902 1545 906 1541 Q910 1537 910 1527 L910 1395 Q910 1385 906 1381 Q902 1377 892 1377 L340 1377 Z " />
<glyph glyph-name="aogonek" unicode="&#x105;" horiz-adv-x="1252" d="M1212 -301 Q1234 -301 1230 -319 L1217 -406 Q1215 -416 1211 -420 Q1207 -424 1199 -424 L1050 -424 Q938 -424 872.5 -374.5 Q807 -325 808 -239 Q808 -166 848.5 -112.5 Q889 -59 939.5 -27 Q990 5 990 0 L1013 4 Q937 47 915 143 Q863 73 762 21 Q661 -31 489 -31 Q298 -31 191 57.5 Q84 146 84 313 Q84 479 201 564 Q318 649 528 662 L890 686 L890 780 Q890 1033 605 1033 Q514 1033 448 1004 Q382 975 345 936.5 Q308 898 291 863 Q287 857 284 854.5 Q281 852 275 852 L164 852 Q157 852 153.5 854.5 Q150 857 148 864 L128 948 Q154 1001 208.5 1055.5 Q263 1110 364 1151 Q465 1192 612 1192 Q845 1192 964.5 1086 Q1084 980 1084 789 L1084 280 Q1084 227 1102 192.5 Q1120 158 1147.5 142.5 Q1175 127 1205 127 Q1217 127 1217 113 L1217 10 Q1217 -3 1204 -6 L1128 -26 Q1119 -26 1103 -24 Q1047 -56 1006 -101 Q965 -146 965 -205 Q965 -252 997.5 -276.5 Q1030 -301 1088 -301 L1212 -301 Z M887 531 L559 508 Q422 498 355 452.5 Q288 407 288 311 Q288 120 548 120 Q651 120 728 151.5 Q805 183 846 236.5 Q887 290 887 355 L887 531 Z " />
<glyph glyph-name="aring" unicode="&#xe5;" horiz-adv-x="1252" d="M489 -31 Q298 -31 191 57.5 Q84 146 84 313 Q84 479 201 564 Q318 649 528 662 L890 686 L890 780 Q890 1033 605 1033 Q514 1033 448 1004 Q382 975 345 936.5 Q308 898 291 863 Q287 857 284 854.5 Q281 852 275 852 L164 852 Q157 852 153.5 854.5 Q150 857 148 864 L128 948 Q154 1001 208.5 1055.5 Q263 1110 364 1151 Q465 1192 612 1192 Q845 1192 964.5 1086 Q1084 980 1084 789 L1084 280 Q1084 227 1102 192.5 Q1120 158 1147.5 142.5 Q1175 127 1205 127 Q1217 127 1217 113 L1217 10 Q1217 -3 1204 -6 L1128 -26 Q1048 -24 991 19 Q934 62 915 143 Q863 73 762 21 Q661 -31 489 -31 Z M548 120 Q651 120 728 151.5 Q805 183 846 236.5 Q887 290 887 355 L887 531 L559 508 Q422 498 355 452.5 Q288 407 288 311 Q288 120 548 120 Z M615 1286 Q540 1286 482.5 1316 Q425 1346 393.5 1401 Q362 1456 362 1528 Q362 1597 394 1652.5 Q426 1708 483.5 1740 Q541 1772 615 1772 Q688 1772 746.5 1740 Q805 1708 837.5 1652.5 Q870 1597 870 1528 Q870 1457 837.5 1402 Q805 1347 747 1316.5 Q689 1286 615 1286 Z M616 1412 Q667 1412 698 1444 Q729 1476 729 1528 Q729 1581 698 1613.5 Q667 1646 616 1646 Q565 1646 534.5 1613.5 Q504 1581 504 1528 Q504 1475 534.5 1443.5 Q565 1412 616 1412 Z " />
<glyph glyph-name="atilde" unicode="&#xe3;" horiz-adv-x="1252" d="M489 -31 Q298 -31 191 57.5 Q84 146 84 313 Q84 479 201 564 Q318 649 528 662 L890 686 L890 780 Q890 1033 605 1033 Q514 1033 448 1004 Q382 975 345 936.5 Q308 898 291 863 Q287 857 284 854.5 Q281 852 275 852 L164 852 Q157 852 153.5 854.5 Q150 857 148 864 L128 948 Q154 1001 208.5 1055.5 Q263 1110 364 1151 Q465 1192 612 1192 Q845 1192 964.5 1086 Q1084 980 1084 789 L1084 280 Q1084 227 1102 192.5 Q1120 158 1147.5 142.5 Q1175 127 1205 127 Q1217 127 1217 113 L1217 10 Q1217 -3 1204 -6 L1128 -26 Q1048 -24 991 19 Q934 62 915 143 Q863 73 762 21 Q661 -31 489 -31 Z M548 120 Q651 120 728 151.5 Q805 183 846 236.5 Q887 290 887 355 L887 531 L559 508 Q422 498 355 452.5 Q288 407 288 311 Q288 120 548 120 Z M810 1306 Q759 1306 720.5 1319.5 Q682 1333 655.5 1353 Q629 1373 596 1405 Q553 1445 522 1463.5 Q491 1482 446 1482 Q379 1482 348 1438 Q317 1394 317 1328 Q317 1312 298 1312 L190 1312 Q176 1312 172 1326 L155 1396 Q164 1452 193.5 1504.5 Q223 1557 281 1592.5 Q339 1628 426 1628 Q478 1628 517 1614 Q556 1600 583 1580 Q610 1560 644 1528 Q687 1489 717.5 1470.5 Q748 1452 791 1452 Q858 1452 889 1495.5 Q920 1539 920 1605 Q920 1621 938 1621 L1046 1621 Q1060 1621 1064 1607 L1082 1537 Q1073 1481 1043 1429 Q1013 1377 955 1341.5 Q897 1306 810 1306 Z " />
<glyph glyph-name="ae" unicode="&#xe6;" horiz-adv-x="2010" d="M1884 311 Q1891 311 1894.5 308 Q1898 305 1900 298 L1919 215 Q1893 162 1839 107 Q1785 52 1689.5 10.5 Q1594 -31 1460 -31 Q1303 -31 1189.5 20.5 Q1076 72 1006 167 Q861 -31 513 -31 Q385 -31 288.5 9.5 Q192 50 138 128.5 Q84 207 84 318 Q84 482 198.5 565.5 Q313 649 511 662 L888 686 L888 779 Q888 901 821 967 Q754 1033 605 1033 Q514 1033 448 1003.5 Q382 974 345 935.5 Q308 897 291 862 Q287 855 284 852.5 Q281 850 275 850 L164 850 Q152 850 148 863 L128 947 Q154 1000 208.5 1054.5 Q263 1109 364 1150.5 Q465 1192 612 1192 Q762 1192 864.5 1147 Q967 1102 1020 1017 Q1087 1101 1187.5 1146.5 Q1288 1192 1420 1192 Q1603 1192 1717.5 1105.5 Q1832 1019 1881 890 Q1930 761 1930 626 L1907 547 Q1902 529 1886 529 L1088 528 Q1099 342 1189.5 241 Q1280 140 1461 140 Q1546 140 1607 167 Q1668 194 1702.5 230 Q1737 266 1753 299 Q1757 306 1760.5 308.5 Q1764 311 1770 311 L1884 311 Z M1419 1024 Q1269 1024 1188 931.5 Q1107 839 1091 669 L1724 670 Q1716 823 1644.5 923.5 Q1573 1024 1419 1024 Z M888 533 L550 508 Q419 499 353.5 454 Q288 409 288 314 Q288 218 354 168.5 Q420 119 548 119 Q651 119 728.5 152 Q806 185 847 241 Q888 297 888 365 L888 533 Z " />
<glyph glyph-name="b" unicode="b" horiz-adv-x="1288" d="M696 -31 Q601 -31 529.5 3 Q458 37 415 79.5 Q372 122 329 178 Q309 204 306 208 L287 15 Q285 6 282 3 Q279 0 270 0 L138 0 Q124 0 124 14 L124 1521 Q124 1536 138 1536 L306 1536 Q314 1536 317 1532.5 Q320 1529 320 1521 L320 974 Q327 981 333 988 Q339 995 345 1002 Q387 1053 430 1091.5 Q473 1130 543 1161 Q613 1192 705 1192 Q876 1192 987.5 1113.5 Q1099 1035 1151.5 898 Q1204 761 1204 582 Q1204 404 1149 266 Q1094 128 980 48.5 Q866 -31 696 -31 Z M660 138 Q835 138 920 254 Q1005 370 1005 582 Q1005 1025 669 1025 Q560 1025 481 971.5 Q402 918 360 818 Q318 718 318 582 Q318 451 356.5 351 Q395 251 472 194.5 Q549 138 660 138 Z " />
<glyph glyph-name="c" unicode="c" horiz-adv-x="1167" d="M642 -31 Q453 -31 328 48.5 Q203 128 143.5 265.5 Q84 403 84 581 Q84 759 143.5 896.5 Q203 1034 328 1113 Q453 1192 642 1192 Q834 1192 942 1114.5 Q1050 1037 1096 947 L1075 863 Q1072 850 1060 850 L949 850 Q939 850 933 862 Q906 922 836 971.5 Q766 1021 643 1021 Q460 1021 373 906 Q286 791 286 581 Q286 371 373 255.5 Q460 140 643 140 Q764 140 835 189 Q906 238 933 299 Q936 306 939.5 308.5 Q943 311 949 311 L1060 311 Q1067 311 1070.5 308 Q1074 305 1075 298 L1096 215 Q1051 124 942.5 46.5 Q834 -31 642 -31 Z " />
<glyph glyph-name="cacute" unicode="&#x107;" horiz-adv-x="1167" d="M642 -31 Q453 -31 328 48.5 Q203 128 143.5 265.5 Q84 403 84 581 Q84 759 143.5 896.5 Q203 1034 328 1113 Q453 1192 642 1192 Q834 1192 942 1114.5 Q1050 1037 1096 947 L1075 863 Q1072 850 1060 850 L949 850 Q939 850 933 862 Q906 922 836 971.5 Q766 1021 643 1021 Q460 1021 373 906 Q286 791 286 581 Q286 371 373 255.5 Q460 140 643 140 Q764 140 835 189 Q906 238 933 299 Q936 306 939.5 308.5 Q943 311 949 311 L1060 311 Q1067 311 1070.5 308 Q1074 305 1075 298 L1096 215 Q1051 124 942.5 46.5 Q834 -31 642 -31 Z M545 1295 Q530 1295 530 1304 Q530 1308 533 1314 L696 1618 Q700 1628 705 1631 Q710 1634 719 1634 L919 1634 Q934 1634 934 1622 Q934 1616 932 1613 L749 1312 Q743 1302 738 1298.5 Q733 1295 723 1295 L545 1295 Z " />
<glyph glyph-name="ccaron" unicode="&#x10d;" horiz-adv-x="1167" d="M642 -31 Q453 -31 328 48.5 Q203 128 143.5 265.5 Q84 403 84 581 Q84 759 143.5 896.5 Q203 1034 328 1113 Q453 1192 642 1192 Q834 1192 942 1114.5 Q1050 1037 1096 947 L1075 863 Q1072 850 1060 850 L949 850 Q939 850 933 862 Q906 922 836 971.5 Q766 1021 643 1021 Q460 1021 373 906 Q286 791 286 581 Q286 371 373 255.5 Q460 140 643 140 Q764 140 835 189 Q906 238 933 299 Q936 306 939.5 308.5 Q943 311 949 311 L1060 311 Q1067 311 1070.5 308 Q1074 305 1075 298 L1096 215 Q1051 124 942.5 46.5 Q834 -31 642 -31 Z M531 1308 Q522 1308 516 1311.5 Q510 1315 501 1324 L247 1615 Q241 1621 241 1627 Q241 1634 252 1634 L423 1634 Q441 1634 456 1616 L638 1419 L816 1616 Q833 1634 849 1634 L1020 1634 Q1033 1634 1033 1626 Q1033 1621 1027 1615 L773 1324 Q765 1315 758.5 1311.5 Q752 1308 742 1308 L531 1308 Z " />
<glyph glyph-name="ccedilla" unicode="&#xe7;" horiz-adv-x="1167" d="M1060 311 Q1067 311 1070.5 308 Q1074 305 1075 298 L1096 215 Q1054 130 956 55.5 Q858 -19 687 -30 L637 -103 L703 -103 Q785 -103 833 -142.5 Q881 -182 881 -261 Q881 -339 831 -381.5 Q781 -424 699 -424 L498 -424 Q488 -424 484 -420.5 Q480 -417 477 -407 L462 -346 Q461 -344 461 -340 Q461 -326 480 -326 L661 -326 Q742 -326 742 -260 Q742 -226 722 -209 Q702 -192 665 -192 L477 -192 Q464 -192 464 -183 Q464 -179 467 -173 L564 -27 Q401 -11 293.5 71.5 Q186 154 135 285 Q84 416 84 581 Q84 759 143.5 896.5 Q203 1034 328 1113 Q453 1192 642 1192 Q834 1192 942 1114.5 Q1050 1037 1096 947 L1075 863 Q1072 850 1060 850 L949 850 Q939 850 933 862 Q906 922 836 971.5 Q766 1021 643 1021 Q460 1021 373 906 Q286 791 286 581 Q286 371 373 255.5 Q460 140 643 140 Q764 140 835 189 Q906 238 933 299 Q936 306 939.5 308.5 Q943 311 949 311 L1060 311 Z " />
<glyph glyph-name="cdotaccent" unicode="&#x10b;" horiz-adv-x="1167" d="M642 -31 Q453 -31 328 48.5 Q203 128 143.5 265.5 Q84 403 84 581 Q84 759 143.5 896.5 Q203 1034 328 1113 Q453 1192 642 1192 Q834 1192 942 1114.5 Q1050 1037 1096 947 L1075 863 Q1072 850 1060 850 L949 850 Q939 850 933 862 Q906 922 836 971.5 Q766 1021 643 1021 Q460 1021 373 906 Q286 791 286 581 Q286 371 373 255.5 Q460 140 643 140 Q764 140 835 189 Q906 238 933 299 Q936 306 939.5 308.5 Q943 311 949 311 L1060 311 Q1067 311 1070.5 308 Q1074 305 1075 298 L1096 215 Q1051 124 942.5 46.5 Q834 -31 642 -31 Z M554 1338 Q545 1338 541 1342 Q537 1346 537 1356 L537 1514 Q537 1532 554 1532 L714 1532 Q723 1532 728 1527 Q733 1522 733 1514 L733 1356 Q733 1338 714 1338 L554 1338 Z " />
<glyph glyph-name="d" unicode="d" horiz-adv-x="1288" d="M590 -31 Q422 -31 308.5 48.5 Q195 128 139.5 266.5 Q84 405 84 582 Q84 760 138 897.5 Q192 1035 304.5 1113.5 Q417 1192 586 1192 Q678 1192 747 1161.5 Q816 1131 858 1092.5 Q900 1054 943 1003 Q955 987 968 974 L968 1521 Q968 1536 983 1536 L1150 1536 Q1164 1536 1164 1521 L1164 14 Q1164 0 1150 0 L1018 0 Q1010 0 1006.5 3 Q1003 6 1001 15 L982 208 Q973 198 959 179 Q918 124 874 80.5 Q830 37 758 3 Q686 -31 590 -31 Z M626 138 Q737 138 814.5 194.5 Q892 251 931 351 Q970 451 970 582 Q970 719 928.5 818.5 Q887 918 808.5 971.5 Q730 1025 621 1025 Q449 1025 366 909.5 Q283 794 283 582 Q283 370 368 254 Q453 138 626 138 Z " />
<glyph glyph-name="eth" unicode="&#xf0;" horiz-adv-x="1247" d="M885 1362 Q1017 1239 1089.5 1057.5 Q1162 876 1162 641 Q1162 440 1096.5 288 Q1031 136 907 52.5 Q783 -31 612 -31 Q442 -31 323 43 Q204 117 144 247.5 Q84 378 84 548 Q84 721 141 850 Q198 979 309 1049.5 Q420 1120 577 1120 Q728 1120 821 1041 Q914 962 954 848 Q948 985 886 1097.5 Q824 1210 721 1293 L428 1169 Q422 1167 421 1167 Q413 1167 413 1179 L413 1266 Q413 1273 416.5 1277 Q420 1281 428 1283 L618 1363 Q522 1416 418 1441 Q405 1444 405 1457 L405 1573 Q405 1588 421 1585 Q632 1549 794 1436 L1094 1562 Q1100 1564 1101 1564 Q1110 1564 1110 1553 L1110 1468 Q1110 1455 1096 1451 L885 1362 Z M615 138 Q715 138 790.5 189 Q866 240 906.5 333 Q947 426 947 549 Q947 671 906 763 Q865 855 789 905.5 Q713 956 610 956 Q447 956 365 849 Q283 742 283 547 Q283 423 322 330.5 Q361 238 436 188 Q511 138 615 138 Z " />
<glyph glyph-name="dcaron" unicode="&#x10f;" horiz-adv-x="1531" d="M590 -31 Q422 -31 308.5 48.5 Q195 128 139.5 266.5 Q84 405 84 582 Q84 760 138 897.5 Q192 1035 304.5 1113.5 Q417 1192 586 1192 Q678 1192 747 1161.5 Q816 1131 858 1092.5 Q900 1054 943 1003 Q955 987 968 974 L968 1521 Q968 1536 983 1536 L1150 1536 Q1164 1536 1164 1521 L1164 14 Q1164 0 1150 0 L1018 0 Q1010 0 1006.5 3 Q1003 6 1001 15 L982 208 Q973 198 959 179 Q918 124 874 80.5 Q830 37 758 3 Q686 -31 590 -31 Z M1282 978 Q1273 978 1271 981 Q1269 984 1271 992 L1352 1520 Q1353 1527 1357 1529.5 Q1361 1532 1369 1532 L1530 1532 Q1543 1532 1540 1516 L1444 991 Q1441 978 1426 978 L1282 978 Z M626 138 Q737 138 814.5 194.5 Q892 251 931 351 Q970 451 970 582 Q970 719 928.5 818.5 Q887 918 808.5 971.5 Q730 1025 621 1025 Q449 1025 366 909.5 Q283 794 283 582 Q283 370 368 254 Q453 138 626 138 Z " />
<glyph glyph-name="dslash" unicode="&#x111;" horiz-adv-x="1312" d="M1278 1431 Q1286 1431 1289 1428.5 Q1292 1426 1292 1417 L1292 1305 Q1292 1298 1289 1295 Q1286 1292 1278 1292 L1164 1292 L1164 14 Q1164 0 1150 0 L1018 0 Q1010 0 1006.5 3 Q1003 6 1001 15 L982 208 Q973 198 959 179 Q918 124 874 80.5 Q830 37 758 3 Q686 -31 590 -31 Q422 -31 308.5 48.5 Q195 128 139.5 266.5 Q84 405 84 582 Q84 760 138 897.5 Q192 1035 304.5 1113.5 Q417 1192 586 1192 Q678 1192 747 1161.5 Q816 1131 858 1092.5 Q900 1054 943 1003 Q955 987 968 974 L968 1292 L602 1292 Q595 1292 592 1295 Q589 1298 589 1305 L589 1417 Q589 1426 592 1428.5 Q595 1431 602 1431 L968 1431 L968 1521 Q968 1536 983 1536 L1150 1536 Q1164 1536 1164 1521 L1164 1431 L1278 1431 Z M626 138 Q737 138 814.5 194.5 Q892 251 931 351 Q970 451 970 582 Q970 719 928.5 818.5 Q887 918 808.5 971.5 Q730 1025 621 1025 Q449 1025 366 909.5 Q283 794 283 582 Q283 370 368 254 Q453 138 626 138 Z " />
<glyph glyph-name="e" unicode="e" horiz-adv-x="1205" d="M1079 311 Q1087 311 1090.5 308 Q1094 305 1095 298 L1114 215 Q1088 163 1034.5 107.5 Q981 52 885 10.5 Q789 -31 655 -31 Q460 -31 332 48 Q204 127 144 264.5 Q84 402 84 580 Q84 757 142 895 Q200 1033 319 1112.5 Q438 1192 615 1192 Q798 1192 912.5 1105.5 Q1027 1019 1076 890 Q1125 761 1125 626 L1102 543 Q1099 529 1086 529 L284 528 Q295 343 385.5 241.5 Q476 140 656 140 Q741 140 802 167 Q863 194 897.5 230 Q932 266 948 299 Q953 306 956 308.5 Q959 311 965 311 L1079 311 Z M626 1027 Q473 1027 388.5 933.5 Q304 840 287 669 L929 670 Q929 676 926.5 697 Q924 718 920 735 Q872 1027 626 1027 Z " />
<glyph glyph-name="eacute" unicode="&#xe9;" horiz-adv-x="1205" d="M1079 311 Q1087 311 1090.5 308 Q1094 305 1095 298 L1114 215 Q1088 163 1034.5 107.5 Q981 52 885 10.5 Q789 -31 655 -31 Q460 -31 332 48 Q204 127 144 264.5 Q84 402 84 580 Q84 757 142 895 Q200 1033 319 1112.5 Q438 1192 615 1192 Q798 1192 912.5 1105.5 Q1027 1019 1076 890 Q1125 761 1125 626 L1102 543 Q1099 529 1086 529 L284 528 Q295 343 385.5 241.5 Q476 140 656 140 Q741 140 802 167 Q863 194 897.5 230 Q932 266 948 299 Q953 306 956 308.5 Q959 311 965 311 L1079 311 Z M626 1027 Q473 1027 388.5 933.5 Q304 840 287 669 L929 670 Q929 676 926.5 697 Q924 718 920 735 Q872 1027 626 1027 Z M520 1295 Q505 1295 505 1304 Q505 1308 508 1314 L671 1618 Q675 1628 680 1631 Q685 1634 694 1634 L894 1634 Q909 1634 909 1622 Q909 1616 907 1613 L724 1312 Q718 1302 713 1298.5 Q708 1295 698 1295 L520 1295 Z " />
<glyph glyph-name="ecaron" unicode="&#x11b;" horiz-adv-x="1205" d="M1079 311 Q1087 311 1090.5 308 Q1094 305 1095 298 L1114 215 Q1088 163 1034.5 107.5 Q981 52 885 10.5 Q789 -31 655 -31 Q460 -31 332 48 Q204 127 144 264.5 Q84 402 84 580 Q84 757 142 895 Q200 1033 319 1112.5 Q438 1192 615 1192 Q798 1192 912.5 1105.5 Q1027 1019 1076 890 Q1125 761 1125 626 L1102 543 Q1099 529 1086 529 L284 528 Q295 343 385.5 241.5 Q476 140 656 140 Q741 140 802 167 Q863 194 897.5 230 Q932 266 948 299 Q953 306 956 308.5 Q959 311 965 311 L1079 311 Z M626 1027 Q473 1027 388.5 933.5 Q304 840 287 669 L929 670 Q929 676 926.5 697 Q924 718 920 735 Q872 1027 626 1027 Z M506 1308 Q497 1308 491 1311.5 Q485 1315 476 1324 L222 1615 Q216 1621 216 1627 Q216 1634 227 1634 L398 1634 Q416 1634 431 1616 L613 1419 L791 1616 Q808 1634 824 1634 L995 1634 Q1008 1634 1008 1626 Q1008 1621 1002 1615 L748 1324 Q740 1315 733.5 1311.5 Q727 1308 717 1308 L506 1308 Z " />
<glyph glyph-name="ecircumflex" unicode="&#xea;" horiz-adv-x="1205" d="M1079 311 Q1087 311 1090.5 308 Q1094 305 1095 298 L1114 215 Q1088 163 1034.5 107.5 Q981 52 885 10.5 Q789 -31 655 -31 Q460 -31 332 48 Q204 127 144 264.5 Q84 402 84 580 Q84 757 142 895 Q200 1033 319 1112.5 Q438 1192 615 1192 Q798 1192 912.5 1105.5 Q1027 1019 1076 890 Q1125 761 1125 626 L1102 543 Q1099 529 1086 529 L284 528 Q295 343 385.5 241.5 Q476 140 656 140 Q741 140 802 167 Q863 194 897.5 230 Q932 266 948 299 Q953 306 956 308.5 Q959 311 965 311 L1079 311 Z M626 1027 Q473 1027 388.5 933.5 Q304 840 287 669 L929 670 Q929 676 926.5 697 Q924 718 920 735 Q872 1027 626 1027 Z M226 1302 Q214 1302 214 1310 Q214 1315 220 1321 L473 1612 Q483 1622 488.5 1625 Q494 1628 503 1628 L715 1628 Q724 1628 730 1624.5 Q736 1621 744 1612 L1000 1321 Q1006 1315 1006 1310 Q1006 1302 994 1302 L823 1302 Q806 1302 790 1319 L610 1519 L429 1319 Q415 1302 397 1302 L226 1302 Z " />
<glyph glyph-name="edieresis" unicode="&#xeb;" horiz-adv-x="1205" d="M1079 311 Q1087 311 1090.5 308 Q1094 305 1095 298 L1114 215 Q1088 163 1034.5 107.5 Q981 52 885 10.5 Q789 -31 655 -31 Q460 -31 332 48 Q204 127 144 264.5 Q84 402 84 580 Q84 757 142 895 Q200 1033 319 1112.5 Q438 1192 615 1192 Q798 1192 912.5 1105.5 Q1027 1019 1076 890 Q1125 761 1125 626 L1102 543 Q1099 529 1086 529 L284 528 Q295 343 385.5 241.5 Q476 140 656 140 Q741 140 802 167 Q863 194 897.5 230 Q932 266 948 299 Q953 306 956 308.5 Q959 311 965 311 L1079 311 Z M626 1027 Q473 1027 388.5 933.5 Q304 840 287 669 L929 670 Q929 676 926.5 697 Q924 718 920 735 Q872 1027 626 1027 Z M360 1338 Q351 1338 347 1342 Q343 1346 343 1356 L343 1514 Q343 1532 360 1532 L520 1532 Q529 1532 534 1527 Q539 1522 539 1514 L539 1356 Q539 1338 520 1338 L360 1338 Z M698 1338 Q689 1338 685 1342 Q681 1346 681 1356 L681 1514 Q681 1532 698 1532 L858 1532 Q867 1532 872 1527 Q877 1522 877 1514 L877 1356 Q877 1338 858 1338 L698 1338 Z " />
<glyph glyph-name="edotaccent" unicode="&#x117;" horiz-adv-x="1205" d="M1079 311 Q1087 311 1090.5 308 Q1094 305 1095 298 L1114 215 Q1088 163 1034.5 107.5 Q981 52 885 10.5 Q789 -31 655 -31 Q460 -31 332 48 Q204 127 144 264.5 Q84 402 84 580 Q84 757 142 895 Q200 1033 319 1112.5 Q438 1192 615 1192 Q798 1192 912.5 1105.5 Q1027 1019 1076 890 Q1125 761 1125 626 L1102 543 Q1099 529 1086 529 L284 528 Q295 343 385.5 241.5 Q476 140 656 140 Q741 140 802 167 Q863 194 897.5 230 Q932 266 948 299 Q953 306 956 308.5 Q959 311 965 311 L1079 311 Z M626 1027 Q473 1027 388.5 933.5 Q304 840 287 669 L929 670 Q929 676 926.5 697 Q924 718 920 735 Q872 1027 626 1027 Z M529 1338 Q520 1338 516 1342 Q512 1346 512 1356 L512 1514 Q512 1532 529 1532 L689 1532 Q698 1532 703 1527 Q708 1522 708 1514 L708 1356 Q708 1338 689 1338 L529 1338 Z " />
<glyph glyph-name="egrave" unicode="&#xe8;" horiz-adv-x="1205" d="M1079 311 Q1087 311 1090.5 308 Q1094 305 1095 298 L1114 215 Q1088 163 1034.5 107.5 Q981 52 885 10.5 Q789 -31 655 -31 Q460 -31 332 48 Q204 127 144 264.5 Q84 402 84 580 Q84 757 142 895 Q200 1033 319 1112.5 Q438 1192 615 1192 Q798 1192 912.5 1105.5 Q1027 1019 1076 890 Q1125 761 1125 626 L1102 543 Q1099 529 1086 529 L284 528 Q295 343 385.5 241.5 Q476 140 656 140 Q741 140 802 167 Q863 194 897.5 230 Q932 266 948 299 Q953 306 956 308.5 Q959 311 965 311 L1079 311 Z M626 1027 Q473 1027 388.5 933.5 Q304 840 287 669 L929 670 Q929 676 926.5 697 Q924 718 920 735 Q872 1027 626 1027 Z M527 1295 Q517 1295 512 1298.5 Q507 1302 501 1312 L313 1613 Q311 1616 311 1622 Q311 1634 326 1634 L526 1634 Q535 1634 540 1631 Q545 1628 550 1618 L715 1314 Q719 1309 719 1303 Q719 1295 705 1295 L527 1295 Z " />
<glyph glyph-name="emacron" unicode="&#x113;" horiz-adv-x="1205" d="M1079 311 Q1087 311 1090.5 308 Q1094 305 1095 298 L1114 215 Q1088 163 1034.5 107.5 Q981 52 885 10.5 Q789 -31 655 -31 Q460 -31 332 48 Q204 127 144 264.5 Q84 402 84 580 Q84 757 142 895 Q200 1033 319 1112.5 Q438 1192 615 1192 Q798 1192 912.5 1105.5 Q1027 1019 1076 890 Q1125 761 1125 626 L1102 543 Q1099 529 1086 529 L284 528 Q295 343 385.5 241.5 Q476 140 656 140 Q741 140 802 167 Q863 194 897.5 230 Q932 266 948 299 Q953 306 956 308.5 Q959 311 965 311 L1079 311 Z M626 1027 Q473 1027 388.5 933.5 Q304 840 287 669 L929 670 Q929 676 926.5 697 Q924 718 920 735 Q872 1027 626 1027 Z M333 1377 Q324 1377 320.5 1381 Q317 1385 317 1395 L317 1527 Q317 1538 320 1541.5 Q323 1545 333 1545 L885 1545 Q895 1545 899 1541 Q903 1537 903 1527 L903 1395 Q903 1385 899 1381 Q895 1377 885 1377 L333 1377 Z " />
<glyph glyph-name="eogonek" unicode="&#x119;" horiz-adv-x="1205" d="M1079 311 Q1087 311 1090.5 308 Q1094 305 1095 298 L1114 215 Q1091 169 1045 119 Q999 69 929 31 Q901 17 885 11 Q828 -20 784 -66 Q740 -112 740 -174 Q740 -221 772.5 -245.5 Q805 -270 863 -270 L987 -270 Q1009 -270 1005 -288 L992 -375 Q990 -385 986 -389 Q982 -393 974 -393 L825 -393 Q714 -393 648.5 -344 Q583 -295 583 -210 Q583 -107 669 -31 L655 -31 Q460 -31 332 48 Q204 127 144 264.5 Q84 402 84 580 Q84 757 142 895 Q200 1033 319 1112.5 Q438 1192 615 1192 Q798 1192 912.5 1105.5 Q1027 1019 1076 890 Q1125 761 1125 626 L1102 543 Q1099 529 1086 529 L284 528 Q295 343 385.5 241.5 Q476 140 656 140 Q741 140 802 167 Q863 194 897.5 230 Q932 266 948 299 Q953 306 956 308.5 Q959 311 965 311 L1079 311 Z M626 1027 Q473 1027 388.5 933.5 Q304 840 287 669 L929 670 Q929 676 926.5 697 Q924 718 920 735 Q872 1027 626 1027 Z " />
<glyph glyph-name="f" unicode="f" horiz-adv-x="793" d="M242 0 Q228 0 228 13 L228 991 L68 991 Q60 991 57.5 993.5 Q55 996 55 1004 L55 1148 Q55 1156 57.5 1158.5 Q60 1161 68 1161 L228 1161 L228 1199 Q228 1366 319.5 1460 Q411 1554 585 1554 L732 1554 Q740 1554 743 1551.5 Q746 1549 746 1540 L746 1404 Q746 1395 743 1392 Q740 1389 732 1389 L603 1389 Q513 1389 467 1339 Q421 1289 421 1193 L421 1161 L734 1161 Q741 1161 744 1158 Q747 1155 747 1148 L747 1004 Q747 996 744 993.5 Q741 991 734 991 L421 991 L421 13 Q421 0 408 0 L242 0 Z " />
<glyph glyph-name="g" unicode="g" horiz-adv-x="1262" d="M596 -410 Q448 -410 347.5 -367.5 Q247 -325 194 -269 Q141 -213 118 -159 L139 -76 Q140 -69 143.5 -66 Q147 -63 154 -63 L263 -63 Q269 -63 272.5 -65.5 Q276 -68 280 -74 Q294 -107 328.5 -145 Q363 -183 430 -212 Q497 -241 596 -241 Q694 -241 773 -204.5 Q852 -168 899 -90.5 Q946 -13 946 106 L946 246 Q933 233 921 217 Q880 168 839.5 131.5 Q799 95 731.5 66 Q664 37 572 37 Q405 37 295.5 111.5 Q186 186 135 315 Q84 444 84 612 Q84 778 138 909 Q192 1040 303.5 1116 Q415 1192 581 1192 Q674 1192 743 1159.5 Q812 1127 853.5 1086 Q895 1045 936 992 L960 962 L979 1147 Q981 1156 984.5 1159 Q988 1162 996 1162 L1124 1162 Q1139 1162 1139 1148 L1139 108 Q1139 -52 1074 -168.5 Q1009 -285 886.5 -347.5 Q764 -410 596 -410 Z M608 201 Q714 201 790.5 250.5 Q867 300 907.5 393 Q948 486 948 612 Q948 733 911 826 Q874 919 799.5 971.5 Q725 1024 617 1024 Q447 1024 365 915.5 Q283 807 283 612 Q283 201 608 201 Z " />
<glyph glyph-name="gbreve" unicode="&#x11f;" horiz-adv-x="1262" d="M596 -410 Q448 -410 347.5 -367.5 Q247 -325 194 -269 Q141 -213 118 -159 L139 -76 Q140 -69 143.5 -66 Q147 -63 154 -63 L263 -63 Q269 -63 272.5 -65.5 Q276 -68 280 -74 Q294 -107 328.5 -145 Q363 -183 430 -212 Q497 -241 596 -241 Q694 -241 773 -204.5 Q852 -168 899 -90.5 Q946 -13 946 106 L946 246 Q933 233 921 217 Q880 168 839.5 131.5 Q799 95 731.5 66 Q664 37 572 37 Q405 37 295.5 111.5 Q186 186 135 315 Q84 444 84 612 Q84 778 138 909 Q192 1040 303.5 1116 Q415 1192 581 1192 Q674 1192 743 1159.5 Q812 1127 853.5 1086 Q895 1045 936 992 L960 962 L979 1147 Q981 1156 984.5 1159 Q988 1162 996 1162 L1124 1162 Q1139 1162 1139 1148 L1139 108 Q1139 -52 1074 -168.5 Q1009 -285 886.5 -347.5 Q764 -410 596 -410 Z M608 201 Q714 201 790.5 250.5 Q867 300 907.5 393 Q948 486 948 612 Q948 733 911 826 Q874 919 799.5 971.5 Q725 1024 617 1024 Q447 1024 365 915.5 Q283 807 283 612 Q283 201 608 201 Z M647 1263 Q517 1263 428.5 1305 Q340 1347 293 1408 Q246 1469 228 1533 L256 1619 Q260 1633 275 1633 L388 1633 Q398 1633 402.5 1629.5 Q407 1626 408 1616 Q413 1563 442 1516.5 Q471 1470 523 1441 Q575 1412 647 1412 Q719 1412 771 1441 Q823 1470 851.5 1516.5 Q880 1563 886 1616 Q887 1625 891.5 1629 Q896 1633 905 1633 L1018 1633 Q1032 1633 1038 1619 L1066 1533 Q1048 1469 1001 1408 Q954 1347 865 1305 Q776 1263 647 1263 Z " />
<glyph glyph-name="gcommaaccent" unicode="&#x123;" horiz-adv-x="1264" d="M550 1300 Q543 1300 540.5 1304.5 Q538 1309 541 1316 L617 1625 Q620 1638 635 1638 L795 1638 Q804 1638 806 1635 Q808 1632 806 1624 L745 1312 Q744 1305 740 1302.5 Q736 1300 729 1300 L550 1300 Z M596 -410 Q448 -410 347.5 -367.5 Q247 -325 194 -269 Q141 -213 118 -159 L139 -76 Q140 -69 143.5 -66 Q147 -63 154 -63 L263 -63 Q269 -63 272.5 -65.5 Q276 -68 280 -74 Q294 -107 328.5 -145 Q363 -183 430 -212 Q497 -241 596 -241 Q694 -241 773 -204.5 Q852 -168 899 -90.5 Q946 -13 946 106 L946 246 Q933 233 921 217 Q880 168 839.5 131.5 Q799 95 731.5 66 Q664 37 572 37 Q405 37 295.5 111.5 Q186 186 135 315 Q84 444 84 612 Q84 778 138 909 Q192 1040 303.5 1116 Q415 1192 581 1192 Q674 1192 743 1159.5 Q812 1127 853.5 1086 Q895 1045 936 992 L960 962 L979 1147 Q981 1156 984.5 1159 Q988 1162 996 1162 L1124 1162 Q1139 1162 1139 1148 L1139 108 Q1139 -52 1074 -168.5 Q1009 -285 886.5 -347.5 Q764 -410 596 -410 Z M608 201 Q714 201 790.5 250.5 Q867 300 907.5 393 Q948 486 948 612 Q948 733 911 826 Q874 919 799.5 971.5 Q725 1024 617 1024 Q447 1024 365 915.5 Q283 807 283 612 Q283 201 608 201 Z " />
<glyph glyph-name="gdotaccent" unicode="&#x121;" horiz-adv-x="1262" d="M596 -410 Q448 -410 347.5 -367.5 Q247 -325 194 -269 Q141 -213 118 -159 L139 -76 Q140 -69 143.5 -66 Q147 -63 154 -63 L263 -63 Q269 -63 272.5 -65.5 Q276 -68 280 -74 Q294 -107 328.5 -145 Q363 -183 430 -212 Q497 -241 596 -241 Q694 -241 773 -204.5 Q852 -168 899 -90.5 Q946 -13 946 106 L946 246 Q933 233 921 217 Q880 168 839.5 131.5 Q799 95 731.5 66 Q664 37 572 37 Q405 37 295.5 111.5 Q186 186 135 315 Q84 444 84 612 Q84 778 138 909 Q192 1040 303.5 1116 Q415 1192 581 1192 Q674 1192 743 1159.5 Q812 1127 853.5 1086 Q895 1045 936 992 L960 962 L979 1147 Q981 1156 984.5 1159 Q988 1162 996 1162 L1124 1162 Q1139 1162 1139 1148 L1139 108 Q1139 -52 1074 -168.5 Q1009 -285 886.5 -347.5 Q764 -410 596 -410 Z M608 201 Q714 201 790.5 250.5 Q867 300 907.5 393 Q948 486 948 612 Q948 733 911 826 Q874 919 799.5 971.5 Q725 1024 617 1024 Q447 1024 365 915.5 Q283 807 283 612 Q283 201 608 201 Z M565 1338 Q556 1338 552 1342 Q548 1346 548 1356 L548 1514 Q548 1532 565 1532 L725 1532 Q734 1532 739 1527 Q744 1522 744 1514 L744 1356 Q744 1338 725 1338 L565 1338 Z " />
<glyph glyph-name="h" unicode="h" horiz-adv-x="1223" d="M136 0 Q124 0 124 13 L124 1523 Q124 1536 136 1536 L307 1536 Q320 1536 320 1523 L320 989 Q349 1043 401.5 1089 Q454 1135 530.5 1163.5 Q607 1192 702 1192 Q895 1192 1001 1086.5 Q1107 981 1107 776 L1107 13 Q1107 0 1094 0 L924 0 Q911 0 911 13 L911 758 Q911 879 847.5 949.5 Q784 1020 655 1020 Q560 1020 484 979.5 Q408 939 364 860.5 Q320 782 320 674 L320 13 Q320 0 307 0 L136 0 Z " />
<glyph glyph-name="hbar" unicode="&#x127;" horiz-adv-x="1237" d="M720 1192 Q913 1192 1019 1086.5 Q1125 981 1125 776 L1125 13 Q1125 0 1112 0 L942 0 Q929 0 929 13 L929 758 Q929 879 865.5 949.5 Q802 1020 673 1020 Q578 1020 502 979.5 Q426 939 382 860.5 Q338 782 338 674 L338 13 Q338 0 325 0 L154 0 Q142 0 142 13 L142 1294 L33 1294 Q26 1294 23 1297 Q20 1300 20 1307 L20 1417 Q20 1426 22.5 1428.5 Q25 1431 33 1431 L142 1431 L142 1523 Q142 1536 154 1536 L325 1536 Q338 1536 338 1523 L338 1431 L709 1431 Q716 1431 719.5 1428 Q723 1425 723 1417 L723 1307 Q723 1294 709 1294 L338 1294 L338 989 Q367 1043 419.5 1089 Q472 1135 548.5 1163.5 Q625 1192 720 1192 Z " />
<glyph glyph-name="i" unicode="i" horiz-adv-x="444" d="M136 1342 Q124 1342 124 1356 L124 1523 Q124 1536 136 1536 L306 1536 Q320 1536 320 1523 L320 1356 Q320 1342 306 1342 L136 1342 Z M136 0 Q124 0 124 13 L124 1148 Q124 1161 136 1161 L307 1161 Q320 1161 320 1148 L320 13 Q320 0 307 0 L136 0 Z " />
<glyph glyph-name="dotlessi" unicode="&#x131;" horiz-adv-x="444" d="M136 0 Q124 0 124 13 L124 1148 Q124 1161 136 1161 L307 1161 Q320 1161 320 1148 L320 13 Q320 0 307 0 L136 0 Z " />
<glyph glyph-name="iacute" unicode="&#xed;" horiz-adv-x="444" d="M136 0 Q124 0 124 13 L124 1148 Q124 1161 136 1161 L307 1161 Q320 1161 320 1148 L320 13 Q320 0 307 0 L136 0 Z M134 1295 Q119 1295 119 1304 Q119 1308 122 1314 L285 1618 Q289 1628 294 1631 Q299 1634 308 1634 L508 1634 Q523 1634 523 1622 Q523 1616 521 1613 L338 1312 Q332 1302 327 1298.5 Q322 1295 312 1295 L134 1295 Z " />
<glyph glyph-name="icircumflex" unicode="&#xee;" horiz-adv-x="444" d="M136 0 Q124 0 124 13 L124 1148 Q124 1161 136 1161 L307 1161 Q320 1161 320 1148 L320 13 Q320 0 307 0 L136 0 Z M-160 1302 Q-172 1302 -172 1310 Q-172 1315 -166 1321 L87 1612 Q97 1622 102.5 1625 Q108 1628 117 1628 L329 1628 Q338 1628 344 1624.5 Q350 1621 358 1612 L614 1321 Q620 1315 620 1310 Q620 1302 608 1302 L437 1302 Q420 1302 404 1319 L224 1519 L43 1319 Q29 1302 11 1302 L-160 1302 Z " />
<glyph glyph-name="idieresis" unicode="&#xef;" horiz-adv-x="444" d="M136 0 Q124 0 124 13 L124 1148 Q124 1161 136 1161 L307 1161 Q320 1161 320 1148 L320 13 Q320 0 307 0 L136 0 Z M-26 1338 Q-35 1338 -39 1342 Q-43 1346 -43 1356 L-43 1514 Q-43 1532 -26 1532 L134 1532 Q143 1532 148 1527 Q153 1522 153 1514 L153 1356 Q153 1338 134 1338 L-26 1338 Z M312 1338 Q303 1338 299 1342 Q295 1346 295 1356 L295 1514 Q295 1532 312 1532 L472 1532 Q481 1532 486 1527 Q491 1522 491 1514 L491 1356 Q491 1338 472 1338 L312 1338 Z " />
<glyph glyph-name="igrave" unicode="&#xec;" horiz-adv-x="444" d="M136 0 Q124 0 124 13 L124 1148 Q124 1161 136 1161 L307 1161 Q320 1161 320 1148 L320 13 Q320 0 307 0 L136 0 Z M141 1295 Q131 1295 126 1298.5 Q121 1302 115 1312 L-73 1613 Q-75 1616 -75 1622 Q-75 1634 -60 1634 L140 1634 Q149 1634 154 1631 Q159 1628 164 1618 L329 1314 Q333 1309 333 1303 Q333 1295 319 1295 L141 1295 Z " />
<glyph glyph-name="imacron" unicode="&#x12b;" horiz-adv-x="444" d="M136 0 Q124 0 124 13 L124 1148 Q124 1161 136 1161 L307 1161 Q320 1161 320 1148 L320 13 Q320 0 307 0 L136 0 Z M-53 1377 Q-62 1377 -65.5 1381 Q-69 1385 -69 1395 L-69 1527 Q-69 1538 -66 1541.5 Q-63 1545 -53 1545 L499 1545 Q509 1545 513 1541 Q517 1537 517 1527 L517 1395 Q517 1385 513 1381 Q509 1377 499 1377 L-53 1377 Z " />
<glyph glyph-name="iogonek" unicode="&#x12f;" horiz-adv-x="444" d="M143 1338 Q134 1338 130 1342 Q126 1346 126 1356 L126 1514 Q126 1532 143 1532 L303 1532 Q312 1532 317 1527 Q322 1522 322 1514 L322 1356 Q322 1338 303 1338 L143 1338 Z M355 -301 Q377 -301 373 -319 L360 -406 Q358 -416 354 -420 Q350 -424 342 -424 L193 -424 Q81 -424 15.5 -374.5 Q-50 -325 -49 -239 Q-49 -166 -8.5 -112.5 Q32 -59 82.5 -27 Q133 5 133 0 L134 0 Q124 1 124 13 L124 1148 Q124 1161 136 1161 L307 1161 Q320 1161 320 1148 L320 13 Q320 0 307 0 L297 0 Q297 4 244.5 -25 Q192 -54 150 -99.5 Q108 -145 108 -205 Q108 -252 140.5 -276.5 Q173 -301 231 -301 L355 -301 Z " />
<glyph glyph-name="j" unicode="j" horiz-adv-x="444" d="M136 1345 Q124 1345 124 1359 L124 1523 Q124 1537 136 1537 L306 1537 Q320 1537 320 1523 L320 1359 Q320 1345 306 1345 L136 1345 Z M-45 -410 Q-53 -410 -56.5 -406.5 Q-60 -403 -60 -395 L-60 -264 Q-60 -257 -56.5 -254 Q-53 -251 -45 -251 Q36 -251 80 -201.5 Q124 -152 124 -53 L124 1148 Q124 1161 136 1161 L307 1161 Q320 1161 320 1148 L320 -54 Q320 -228 226.5 -319 Q133 -410 -45 -410 Z " />
<glyph glyph-name="k" unicode="k" horiz-adv-x="1130" d="M525 583 L1054 91 L1045 14 Q1042 0 1030 0 L890 0 Q884 0 879 3 Q874 6 869 10 L320 550 L320 14 Q320 0 307 0 L136 0 Q124 0 124 13 L124 1523 Q124 1536 136 1536 L307 1536 Q320 1536 320 1523 L320 614 L872 1151 Q884 1161 892 1161 L1032 1161 Q1045 1161 1047 1147 L1056 1070 L525 583 Z " />
<glyph glyph-name="kcommaaccent" unicode="&#x137;" horiz-adv-x="1130" d="M525 583 L1054 91 L1045 14 Q1042 0 1030 0 L890 0 Q884 0 879 3 Q874 6 869 10 L320 550 L320 14 Q320 0 307 0 L136 0 Q124 0 124 13 L124 1523 Q124 1536 136 1536 L307 1536 Q320 1536 320 1523 L320 614 L872 1151 Q884 1161 892 1161 L1032 1161 Q1045 1161 1047 1147 L1056 1070 L525 583 Z M407 -440 Q399 -440 396 -437.5 Q393 -435 393 -430 Q393 -425 394 -421 L457 -108 Q458 -99 464 -96 Q470 -93 480 -93 L649 -93 Q655 -93 658.5 -96.5 Q662 -100 662 -105 Q662 -111 660 -114 L583 -423 Q579 -440 560 -440 L407 -440 Z " />
<glyph glyph-name="l" unicode="l" horiz-adv-x="444" d="M159 0 Q153 0 149.5 3 Q146 6 145 13 L124 130 L124 1523 Q124 1536 136 1536 L307 1536 Q320 1536 320 1523 L320 14 Q320 0 307 0 L159 0 Z " />
<glyph glyph-name="lacute" unicode="&#x13a;" horiz-adv-x="444" d="M159 0 Q153 0 149.5 3 Q146 6 145 13 L124 130 L124 1523 Q124 1536 136 1536 L307 1536 Q320 1536 320 1523 L320 14 Q320 0 307 0 L159 0 Z M132 1666 Q117 1666 117 1675 Q117 1679 120 1685 L283 1989 Q287 1999 292 2002 Q297 2005 306 2005 L506 2005 Q521 2005 521 1993 Q521 1987 519 1984 L336 1683 Q330 1673 325 1669.5 Q320 1666 310 1666 L132 1666 Z " />
<glyph glyph-name="lcaron" unicode="&#x13e;" horiz-adv-x="678" d="M159 0 Q153 0 149.5 3 Q146 6 145 13 L124 130 L124 1523 Q124 1536 136 1536 L307 1536 Q320 1536 320 1523 L320 14 Q320 0 307 0 L159 0 Z M428 978 Q420 978 418 981 Q416 984 418 992 L502 1520 Q503 1532 519 1532 L677 1532 Q690 1532 686 1516 L592 991 Q589 978 574 978 L428 978 Z " />
<glyph glyph-name="lcommaaccent" unicode="&#x13c;" horiz-adv-x="444" d="M159 0 Q153 0 149.5 3 Q146 6 145 13 L124 130 L124 1523 Q124 1536 136 1536 L307 1536 Q320 1536 320 1523 L320 14 Q320 0 307 0 L159 0 Z M71 -440 Q63 -440 60 -437.5 Q57 -435 57 -430 Q57 -425 58 -421 L121 -108 Q122 -99 128 -96 Q134 -93 144 -93 L313 -93 Q319 -93 322.5 -96.5 Q326 -100 326 -105 Q326 -111 324 -114 L247 -423 Q243 -440 224 -440 L71 -440 Z " />
<glyph glyph-name="ldot" unicode="&#x140;" horiz-adv-x="734" d="M159 0 Q153 0 149.5 3 Q146 6 145 13 L124 130 L124 1523 Q124 1536 136 1536 L307 1536 Q320 1536 320 1523 L320 14 Q320 0 307 0 L159 0 Z M503 628 Q490 628 490 641 L490 826 Q490 840 503 840 L672 840 Q686 840 686 826 L686 641 Q686 628 672 628 L503 628 Z " />
<glyph glyph-name="lslash" unicode="&#x142;" horiz-adv-x="627" d="M582 1177 Q586 1179 589 1179 Q597 1179 597 1169 L597 1007 Q597 999 594 995.5 Q591 992 583 988 L408 896 L408 14 Q408 0 395 0 L247 0 Q241 0 237.5 3 Q234 6 233 13 L212 130 L212 794 L43 705 Q37 703 36 703 Q28 703 28 716 L28 877 Q28 884 31 888 Q34 892 41 895 L212 984 L212 1523 Q212 1536 224 1536 L395 1536 Q408 1536 408 1523 L408 1086 L582 1177 Z " />
<glyph glyph-name="m" unicode="m" horiz-adv-x="1968" d="M1455 1192 Q1646 1192 1750.5 1086.5 Q1855 981 1855 776 L1855 13 Q1855 0 1841 0 L1672 0 Q1659 0 1659 14 L1659 758 Q1659 880 1598.5 950.5 Q1538 1021 1412 1021 Q1319 1021 1245 980 Q1171 939 1129 861 Q1087 783 1087 674 L1087 13 Q1087 6 1084 3 Q1081 0 1074 0 L905 0 Q891 0 891 14 L891 758 Q891 881 831 951 Q771 1021 644 1021 Q551 1021 477.5 980 Q404 939 362 861 Q320 783 320 674 L320 14 Q320 0 307 0 L136 0 Q124 0 124 13 L124 1148 Q124 1161 136 1161 L273 1161 Q280 1161 283.5 1158 Q287 1155 288 1148 L308 972 Q356 1065 450 1128.5 Q544 1192 688 1192 Q827 1192 921 1134.5 Q1015 1077 1057 964 Q1107 1064 1208.5 1128 Q1310 1192 1455 1192 Z " />
<glyph glyph-name="n" unicode="n" horiz-adv-x="1221" d="M136 0 Q124 0 124 13 L124 1148 Q124 1161 136 1161 L273 1161 Q280 1161 283.5 1158 Q287 1155 288 1148 L308 972 Q355 1063 455.5 1127.5 Q556 1192 702 1192 Q895 1192 1001 1086.5 Q1107 981 1107 776 L1107 13 Q1107 6 1104 3 Q1101 0 1094 0 L924 0 Q911 0 911 14 L911 758 Q911 881 847.5 951 Q784 1021 655 1021 Q560 1021 484 980 Q408 939 364 860.5 Q320 782 320 674 L320 14 Q320 0 307 0 L136 0 Z " />
<glyph glyph-name="nacute" unicode="&#x144;" horiz-adv-x="1221" d="M136 0 Q124 0 124 13 L124 1148 Q124 1161 136 1161 L273 1161 Q280 1161 283.5 1158 Q287 1155 288 1148 L308 972 Q355 1063 455.5 1127.5 Q556 1192 702 1192 Q895 1192 1001 1086.5 Q1107 981 1107 776 L1107 13 Q1107 6 1104 3 Q1101 0 1094 0 L924 0 Q911 0 911 14 L911 758 Q911 881 847.5 951 Q784 1021 655 1021 Q560 1021 484 980 Q408 939 364 860.5 Q320 782 320 674 L320 14 Q320 0 307 0 L136 0 Z M539 1295 Q524 1295 524 1304 Q524 1308 527 1314 L690 1618 Q694 1628 699 1631 Q704 1634 713 1634 L913 1634 Q928 1634 928 1622 Q928 1616 926 1613 L743 1312 Q737 1302 732 1298.5 Q727 1295 717 1295 L539 1295 Z " />
<glyph glyph-name="ncaron" unicode="&#x148;" horiz-adv-x="1221" d="M136 0 Q124 0 124 13 L124 1148 Q124 1161 136 1161 L273 1161 Q280 1161 283.5 1158 Q287 1155 288 1148 L308 972 Q355 1063 455.5 1127.5 Q556 1192 702 1192 Q895 1192 1001 1086.5 Q1107 981 1107 776 L1107 13 Q1107 6 1104 3 Q1101 0 1094 0 L924 0 Q911 0 911 14 L911 758 Q911 881 847.5 951 Q784 1021 655 1021 Q560 1021 484 980 Q408 939 364 860.5 Q320 782 320 674 L320 14 Q320 0 307 0 L136 0 Z M525 1308 Q516 1308 510 1311.5 Q504 1315 495 1324 L241 1615 Q235 1621 235 1627 Q235 1634 246 1634 L417 1634 Q435 1634 450 1616 L632 1419 L810 1616 Q827 1634 843 1634 L1014 1634 Q1027 1634 1027 1626 Q1027 1621 1021 1615 L767 1324 Q759 1315 752.5 1311.5 Q746 1308 736 1308 L525 1308 Z " />
<glyph glyph-name="ncommaaccent" unicode="&#x146;" horiz-adv-x="1221" d="M136 0 Q124 0 124 13 L124 1148 Q124 1161 136 1161 L273 1161 Q280 1161 283.5 1158 Q287 1155 288 1148 L308 972 Q355 1063 455.5 1127.5 Q556 1192 702 1192 Q895 1192 1001 1086.5 Q1107 981 1107 776 L1107 13 Q1107 6 1104 3 Q1101 0 1094 0 L924 0 Q911 0 911 14 L911 758 Q911 881 847.5 951 Q784 1021 655 1021 Q560 1021 484 980 Q408 939 364 860.5 Q320 782 320 674 L320 14 Q320 0 307 0 L136 0 Z M467 -440 Q459 -440 456 -437.5 Q453 -435 453 -430 Q453 -425 454 -421 L517 -108 Q518 -99 524 -96 Q530 -93 540 -93 L709 -93 Q715 -93 718.5 -96.5 Q722 -100 722 -105 Q722 -111 720 -114 L643 -423 Q639 -440 620 -440 L467 -440 Z " />
<glyph glyph-name="eng" unicode="&#x14b;" horiz-adv-x="1221" d="M742 -402 Q734 -402 730.5 -399 Q727 -396 727 -388 L727 -258 Q727 -251 730.5 -248 Q734 -245 742 -245 Q821 -245 866 -195 Q911 -145 911 -47 L911 758 Q911 880 847.5 950.5 Q784 1021 655 1021 Q560 1021 484 980 Q408 939 364 860.5 Q320 782 320 674 L320 14 Q320 0 307 0 L136 0 Q124 0 124 13 L124 1148 Q124 1161 136 1161 L273 1161 Q280 1161 283.5 1158 Q287 1155 288 1148 L308 972 Q355 1063 454 1127.5 Q553 1192 699 1192 Q892 1192 999.5 1084.5 Q1107 977 1107 772 L1107 -48 Q1107 -222 1013.5 -312 Q920 -402 742 -402 Z " />
<glyph glyph-name="ntilde" unicode="&#xf1;" horiz-adv-x="1221" d="M136 0 Q124 0 124 13 L124 1148 Q124 1161 136 1161 L273 1161 Q280 1161 283.5 1158 Q287 1155 288 1148 L308 972 Q355 1063 455.5 1127.5 Q556 1192 702 1192 Q895 1192 1001 1086.5 Q1107 981 1107 776 L1107 13 Q1107 6 1104 3 Q1101 0 1094 0 L924 0 Q911 0 911 14 L911 758 Q911 881 847.5 951 Q784 1021 655 1021 Q560 1021 484 980 Q408 939 364 860.5 Q320 782 320 674 L320 14 Q320 0 307 0 L136 0 Z M822 1306 Q771 1306 732.5 1319.5 Q694 1333 667.5 1353 Q641 1373 608 1405 Q565 1445 534 1463.5 Q503 1482 458 1482 Q391 1482 360 1438 Q329 1394 329 1328 Q329 1312 310 1312 L202 1312 Q188 1312 184 1326 L167 1396 Q176 1452 205.5 1504.5 Q235 1557 293 1592.5 Q351 1628 438 1628 Q490 1628 529 1614 Q568 1600 595 1580 Q622 1560 656 1528 Q699 1489 729.5 1470.5 Q760 1452 803 1452 Q870 1452 901 1495.5 Q932 1539 932 1605 Q932 1621 950 1621 L1058 1621 Q1072 1621 1076 1607 L1094 1537 Q1085 1481 1055 1429 Q1025 1377 967 1341.5 Q909 1306 822 1306 Z " />
<glyph glyph-name="o" unicode="o" horiz-adv-x="1263" d="M632 -31 Q347 -31 215.5 134.5 Q84 300 84 579 Q84 860 215.5 1026 Q347 1192 632 1192 Q917 1192 1048 1025.5 Q1179 859 1179 579 Q1179 300 1048 134.5 Q917 -31 632 -31 Z M632 136 Q811 136 895 252.5 Q979 369 979 579 Q979 791 895 908 Q811 1025 632 1025 Q452 1025 368 908 Q284 791 284 579 Q284 368 368 252 Q452 136 632 136 Z " />
<glyph glyph-name="oacute" unicode="&#xf3;" horiz-adv-x="1263" d="M632 -31 Q347 -31 215.5 134.5 Q84 300 84 579 Q84 860 215.5 1026 Q347 1192 632 1192 Q917 1192 1048 1025.5 Q1179 859 1179 579 Q1179 300 1048 134.5 Q917 -31 632 -31 Z M632 136 Q811 136 895 252.5 Q979 369 979 579 Q979 791 895 908 Q811 1025 632 1025 Q452 1025 368 908 Q284 791 284 579 Q284 368 368 252 Q452 136 632 136 Z M540 1295 Q525 1295 525 1304 Q525 1308 528 1314 L691 1618 Q695 1628 700 1631 Q705 1634 714 1634 L914 1634 Q929 1634 929 1622 Q929 1616 927 1613 L744 1312 Q738 1302 733 1298.5 Q728 1295 718 1295 L540 1295 Z " />
<glyph glyph-name="ocircumflex" unicode="&#xf4;" horiz-adv-x="1263" d="M632 -31 Q347 -31 215.5 134.5 Q84 300 84 579 Q84 860 215.5 1026 Q347 1192 632 1192 Q917 1192 1048 1025.5 Q1179 859 1179 579 Q1179 300 1048 134.5 Q917 -31 632 -31 Z M632 136 Q811 136 895 252.5 Q979 369 979 579 Q979 791 895 908 Q811 1025 632 1025 Q452 1025 368 908 Q284 791 284 579 Q284 368 368 252 Q452 136 632 136 Z M246 1302 Q234 1302 234 1310 Q234 1315 240 1321 L493 1612 Q503 1622 508.5 1625 Q514 1628 523 1628 L735 1628 Q744 1628 750 1624.5 Q756 1621 764 1612 L1020 1321 Q1026 1315 1026 1310 Q1026 1302 1014 1302 L843 1302 Q826 1302 810 1319 L630 1519 L449 1319 Q435 1302 417 1302 L246 1302 Z " />
<glyph glyph-name="odieresis" unicode="&#xf6;" horiz-adv-x="1263" d="M632 -31 Q347 -31 215.5 134.5 Q84 300 84 579 Q84 860 215.5 1026 Q347 1192 632 1192 Q917 1192 1048 1025.5 Q1179 859 1179 579 Q1179 300 1048 134.5 Q917 -31 632 -31 Z M632 136 Q811 136 895 252.5 Q979 369 979 579 Q979 791 895 908 Q811 1025 632 1025 Q452 1025 368 908 Q284 791 284 579 Q284 368 368 252 Q452 136 632 136 Z M380 1338 Q371 1338 367 1342 Q363 1346 363 1356 L363 1514 Q363 1532 380 1532 L540 1532 Q549 1532 554 1527 Q559 1522 559 1514 L559 1356 Q559 1338 540 1338 L380 1338 Z M718 1338 Q709 1338 705 1342 Q701 1346 701 1356 L701 1514 Q701 1532 718 1532 L878 1532 Q887 1532 892 1527 Q897 1522 897 1514 L897 1356 Q897 1338 878 1338 L718 1338 Z " />
<glyph glyph-name="ograve" unicode="&#xf2;" horiz-adv-x="1263" d="M632 -31 Q347 -31 215.5 134.5 Q84 300 84 579 Q84 860 215.5 1026 Q347 1192 632 1192 Q917 1192 1048 1025.5 Q1179 859 1179 579 Q1179 300 1048 134.5 Q917 -31 632 -31 Z M632 136 Q811 136 895 252.5 Q979 369 979 579 Q979 791 895 908 Q811 1025 632 1025 Q452 1025 368 908 Q284 791 284 579 Q284 368 368 252 Q452 136 632 136 Z M547 1295 Q537 1295 532 1298.5 Q527 1302 521 1312 L333 1613 Q331 1616 331 1622 Q331 1634 346 1634 L546 1634 Q555 1634 560 1631 Q565 1628 570 1618 L735 1314 Q739 1309 739 1303 Q739 1295 725 1295 L547 1295 Z " />
<glyph glyph-name="ohungarumlaut" unicode="&#x151;" horiz-adv-x="1263" d="M632 -31 Q347 -31 215.5 134.5 Q84 300 84 579 Q84 860 215.5 1026 Q347 1192 632 1192 Q917 1192 1048 1025.5 Q1179 859 1179 579 Q1179 300 1048 134.5 Q917 -31 632 -31 Z M632 136 Q811 136 895 252.5 Q979 369 979 579 Q979 791 895 908 Q811 1025 632 1025 Q452 1025 368 908 Q284 791 284 579 Q284 368 368 252 Q452 136 632 136 Z M388 1295 Q376 1295 376 1303 Q376 1308 379 1314 L540 1618 Q546 1628 551 1631 Q556 1634 566 1634 L723 1634 Q729 1634 733 1631 Q737 1628 737 1623 Q737 1618 733 1613 L555 1311 Q549 1301 544 1298 Q539 1295 530 1295 L388 1295 Z M701 1295 Q689 1295 689 1303 Q689 1308 692 1314 L885 1618 Q890 1628 895.5 1631 Q901 1634 911 1634 L1071 1634 Q1085 1634 1085 1623 Q1085 1619 1082 1613 L869 1311 Q862 1302 856.5 1298.5 Q851 1295 841 1295 L701 1295 Z " />
<glyph glyph-name="omacron" unicode="&#x14d;" horiz-adv-x="1263" d="M632 -31 Q347 -31 215.5 134.5 Q84 300 84 579 Q84 860 215.5 1026 Q347 1192 632 1192 Q917 1192 1048 1025.5 Q1179 859 1179 579 Q1179 300 1048 134.5 Q917 -31 632 -31 Z M632 136 Q811 136 895 252.5 Q979 369 979 579 Q979 791 895 908 Q811 1025 632 1025 Q452 1025 368 908 Q284 791 284 579 Q284 368 368 252 Q452 136 632 136 Z M353 1377 Q344 1377 340.5 1381 Q337 1385 337 1395 L337 1527 Q337 1538 340 1541.5 Q343 1545 353 1545 L905 1545 Q915 1545 919 1541 Q923 1537 923 1527 L923 1395 Q923 1385 919 1381 Q915 1377 905 1377 L353 1377 Z " />
<glyph glyph-name="oslash" unicode="&#xf8;" horiz-adv-x="1259" d="M979 1091 Q1082 1013 1130.5 881.5 Q1179 750 1179 579 Q1179 300 1048 134.5 Q917 -31 632 -31 Q526 -31 443 -7 L359 -179 Q356 -193 344 -193 L220 -193 Q213 -193 210 -188.5 Q207 -184 211 -177 L319 45 Q198 119 141 257 Q84 395 84 579 Q84 860 215.5 1026 Q347 1192 632 1192 Q761 1192 861 1155 L947 1332 Q953 1343 962 1343 L1086 1343 Q1092 1343 1094.5 1338.5 Q1097 1334 1094 1327 L979 1091 Z M284 579 Q284 324 402 215 L783 997 Q718 1025 632 1025 Q452 1025 368 908 Q284 791 284 579 Z M632 136 Q811 136 895 252.5 Q979 369 979 579 Q979 799 892 912 L520 150 Q571 136 632 136 Z " />
<glyph glyph-name="otilde" unicode="&#xf5;" horiz-adv-x="1263" d="M632 -31 Q347 -31 215.5 134.5 Q84 300 84 579 Q84 860 215.5 1026 Q347 1192 632 1192 Q917 1192 1048 1025.5 Q1179 859 1179 579 Q1179 300 1048 134.5 Q917 -31 632 -31 Z M632 136 Q811 136 895 252.5 Q979 369 979 579 Q979 791 895 908 Q811 1025 632 1025 Q452 1025 368 908 Q284 791 284 579 Q284 368 368 252 Q452 136 632 136 Z M823 1306 Q772 1306 733.5 1319.5 Q695 1333 668.5 1353 Q642 1373 609 1405 Q566 1445 535 1463.5 Q504 1482 459 1482 Q392 1482 361 1438 Q330 1394 330 1328 Q330 1312 311 1312 L203 1312 Q189 1312 185 1326 L168 1396 Q177 1452 206.5 1504.5 Q236 1557 294 1592.5 Q352 1628 439 1628 Q491 1628 530 1614 Q569 1600 596 1580 Q623 1560 657 1528 Q700 1489 730.5 1470.5 Q761 1452 804 1452 Q871 1452 902 1495.5 Q933 1539 933 1605 Q933 1621 951 1621 L1059 1621 Q1073 1621 1077 1607 L1095 1537 Q1086 1481 1056 1429 Q1026 1377 968 1341.5 Q910 1306 823 1306 Z " />
<glyph glyph-name="oe" unicode="&#x153;" horiz-adv-x="2104" d="M1978 311 Q1985 311 1988.5 308 Q1992 305 1993 298 L2013 215 Q1987 162 1933 107 Q1879 52 1783.5 10.5 Q1688 -31 1553 -31 Q1385 -31 1268.5 29 Q1152 89 1085 199 Q957 -31 632 -31 Q347 -31 215.5 134.5 Q84 300 84 579 Q84 860 215.5 1026 Q347 1192 632 1192 Q954 1192 1084 964 Q1147 1073 1254 1132.5 Q1361 1192 1513 1192 Q1697 1192 1811.5 1105.5 Q1926 1019 1975 890 Q2024 761 2024 626 L2001 542 Q1998 528 1985 528 L1182 527 Q1193 342 1283.5 240.5 Q1374 139 1554 139 Q1675 139 1746 190.5 Q1817 242 1847 299 Q1851 306 1854.5 308.5 Q1858 311 1864 311 L1978 311 Z M632 136 Q811 136 895.5 252.5 Q980 369 980 579 Q980 791 895.5 907.5 Q811 1024 632 1024 Q452 1024 368 907.5 Q284 791 284 579 Q284 368 368 252 Q452 136 632 136 Z M1512 1024 Q1362 1024 1281.5 931 Q1201 838 1185 668 L1818 670 Q1810 822 1738 923 Q1666 1024 1512 1024 Z " />
<glyph glyph-name="p" unicode="p" horiz-adv-x="1288" d="M138 -379 Q124 -379 124 -364 L124 1147 Q124 1161 138 1161 L270 1161 Q278 1161 281.5 1158 Q285 1155 287 1148 L306 953 L329 982 Q371 1037 415 1080 Q459 1123 531 1157.5 Q603 1192 699 1192 Q869 1192 982 1112.5 Q1095 1033 1149.5 895 Q1204 757 1204 579 Q1204 400 1150.5 263 Q1097 126 985 47.5 Q873 -31 702 -31 Q610 -31 541 -0.5 Q472 30 430 68.5 Q388 107 345 158 Q327 180 320 187 L320 -364 Q320 -379 306 -379 L138 -379 Z M666 136 Q840 136 922.5 251 Q1005 366 1005 579 Q1005 792 921.5 908 Q838 1024 663 1024 Q552 1024 474.5 967.5 Q397 911 357.5 810.5 Q318 710 318 579 Q318 442 359 342.5 Q400 243 478.5 189.5 Q557 136 666 136 Z " />
<glyph glyph-name="thorn" unicode="&#xfe;" horiz-adv-x="1288" d="M132 -379 Q118 -379 118 -364 L118 1521 Q118 1535 132 1535 L300 1535 Q314 1535 314 1521 L314 967 Q321 974 327.5 982 Q334 990 341 998 Q384 1050 426 1089.5 Q468 1129 536.5 1160.5 Q605 1192 696 1192 Q864 1192 978 1112.5 Q1092 1033 1148 895.5 Q1204 758 1204 581 Q1204 403 1148.5 265 Q1093 127 979 48 Q865 -31 696 -31 Q604 -31 535 -0.5 Q466 30 424 68.5 Q382 107 339 158 Q321 180 314 187 L314 -364 Q314 -379 300 -379 L132 -379 Z M660 136 Q832 136 918.5 253 Q1005 370 1005 581 Q1005 791 919 908 Q833 1025 660 1025 Q550 1025 471.5 969.5 Q393 914 352.5 813.5 Q312 713 312 581 Q312 444 353 344 Q394 244 472.5 190 Q551 136 660 136 Z " />
<glyph glyph-name="q" unicode="q" horiz-adv-x="1288" d="M583 -31 Q412 -31 300.5 47.5 Q189 126 136.5 263 Q84 400 84 579 Q84 757 139.5 895 Q195 1033 309 1112.5 Q423 1192 592 1192 Q687 1192 758.5 1158 Q830 1124 873 1081.5 Q916 1039 959 983 Q978 957 982 953 L1001 1148 Q1003 1155 1006.5 1158 Q1010 1161 1018 1161 L1151 1161 Q1164 1161 1164 1147 L1164 -364 Q1164 -379 1150 -379 L983 -379 Q968 -379 968 -364 L968 187 Q961 180 955 173 Q949 166 943 159 Q901 108 858 69.5 Q815 31 745 0 Q675 -31 583 -31 Z M619 136 Q728 136 807.5 189.5 Q887 243 928.5 343 Q970 443 970 579 Q970 711 931.5 811 Q893 911 816 967.5 Q739 1024 628 1024 Q453 1024 368 907.5 Q283 791 283 579 Q283 136 619 136 Z " />
<glyph glyph-name="r" unicode="r" horiz-adv-x="850" d="M136 0 Q124 0 124 13 L124 1148 Q124 1161 136 1161 L273 1161 Q280 1161 283.5 1158 Q287 1155 288 1148 L308 947 Q359 1036 450 1098.5 Q541 1161 675 1161 L781 1161 Q795 1161 795 1148 L795 997 Q795 983 781 983 L657 983 Q558 983 481.5 938 Q405 893 362.5 810.5 Q320 728 320 619 L320 14 Q320 0 307 0 L136 0 Z " />
<glyph glyph-name="racute" unicode="&#x155;" horiz-adv-x="850" d="M136 0 Q124 0 124 13 L124 1148 Q124 1161 136 1161 L273 1161 Q280 1161 283.5 1158 Q287 1155 288 1148 L308 947 Q359 1036 450 1098.5 Q541 1161 675 1161 L781 1161 Q795 1161 795 1148 L795 997 Q795 983 781 983 L657 983 Q558 983 481.5 938 Q405 893 362.5 810.5 Q320 728 320 619 L320 14 Q320 0 307 0 L136 0 Z M393 1295 Q378 1295 378 1304 Q378 1308 381 1314 L544 1618 Q548 1628 553 1631 Q558 1634 567 1634 L767 1634 Q782 1634 782 1622 Q782 1616 780 1613 L597 1312 Q591 1302 586 1298.5 Q581 1295 571 1295 L393 1295 Z " />
<glyph glyph-name="rcaron" unicode="&#x159;" horiz-adv-x="850" d="M136 0 Q124 0 124 13 L124 1148 Q124 1161 136 1161 L273 1161 Q280 1161 283.5 1158 Q287 1155 288 1148 L308 947 Q359 1036 450 1098.5 Q541 1161 675 1161 L781 1161 Q795 1161 795 1148 L795 997 Q795 983 781 983 L657 983 Q558 983 481.5 938 Q405 893 362.5 810.5 Q320 728 320 619 L320 14 Q320 0 307 0 L136 0 Z M379 1308 Q370 1308 364 1311.5 Q358 1315 349 1324 L95 1615 Q89 1621 89 1627 Q89 1634 100 1634 L271 1634 Q289 1634 304 1616 L486 1419 L664 1616 Q681 1634 697 1634 L868 1634 Q881 1634 881 1626 Q881 1621 875 1615 L621 1324 Q613 1315 606.5 1311.5 Q600 1308 590 1308 L379 1308 Z " />
<glyph glyph-name="rcommaaccent" unicode="&#x157;" horiz-adv-x="850" d="M136 0 Q124 0 124 13 L124 1148 Q124 1161 136 1161 L273 1161 Q280 1161 283.5 1158 Q287 1155 288 1148 L308 947 Q359 1036 450 1098.5 Q541 1161 675 1161 L781 1161 Q795 1161 795 1148 L795 997 Q795 983 781 983 L657 983 Q558 983 481.5 938 Q405 893 362.5 810.5 Q320 728 320 619 L320 14 Q320 0 307 0 L136 0 Z M62 -440 Q54 -440 51 -437.5 Q48 -435 48 -430 Q48 -425 49 -421 L112 -108 Q113 -99 119 -96 Q125 -93 135 -93 L304 -93 Q310 -93 313.5 -96.5 Q317 -100 317 -105 Q317 -111 315 -114 L238 -423 Q234 -440 215 -440 L62 -440 Z " />
<glyph glyph-name="s" unicode="s" horiz-adv-x="1106" d="M555 -31 Q415 -31 315.5 11 Q216 53 160.5 109 Q105 165 80 217 L101 301 Q103 308 106.5 310.5 Q110 313 117 313 L227 313 Q233 313 236.5 310.5 Q240 308 244 302 Q260 267 295.5 229.5 Q331 192 396 163.5 Q461 135 552 135 Q679 135 751.5 186 Q824 237 824 324 Q824 378 797.5 410.5 Q771 443 726 460 Q681 477 611 490 L400 529 Q267 552 189.5 620.5 Q112 689 112 831 Q112 942 167 1023.5 Q222 1105 322.5 1148.5 Q423 1192 558 1192 Q754 1192 858.5 1115 Q963 1038 1006 947 L985 863 Q982 850 969 850 L859 850 Q848 850 842 862 Q815 923 749 974.5 Q683 1026 556 1026 Q440 1026 377 975 Q314 924 314 837 Q314 760 363.5 723.5 Q413 687 507 671 L709 636 Q805 618 873 588 Q941 558 983.5 496.5 Q1026 435 1026 333 Q1026 223 966 140.5 Q906 58 799 13.5 Q692 -31 555 -31 Z " />
<glyph glyph-name="sacute" unicode="&#x15b;" horiz-adv-x="1106" d="M555 -31 Q415 -31 315.5 11 Q216 53 160.5 109 Q105 165 80 217 L101 301 Q103 308 106.5 310.5 Q110 313 117 313 L227 313 Q233 313 236.5 310.5 Q240 308 244 302 Q260 267 295.5 229.5 Q331 192 396 163.5 Q461 135 552 135 Q679 135 751.5 186 Q824 237 824 324 Q824 378 797.5 410.5 Q771 443 726 460 Q681 477 611 490 L400 529 Q267 552 189.5 620.5 Q112 689 112 831 Q112 942 167 1023.5 Q222 1105 322.5 1148.5 Q423 1192 558 1192 Q754 1192 858.5 1115 Q963 1038 1006 947 L985 863 Q982 850 969 850 L859 850 Q848 850 842 862 Q815 923 749 974.5 Q683 1026 556 1026 Q440 1026 377 975 Q314 924 314 837 Q314 760 363.5 723.5 Q413 687 507 671 L709 636 Q805 618 873 588 Q941 558 983.5 496.5 Q1026 435 1026 333 Q1026 223 966 140.5 Q906 58 799 13.5 Q692 -31 555 -31 Z M467 1295 Q452 1295 452 1304 Q452 1308 455 1314 L618 1618 Q622 1628 627 1631 Q632 1634 641 1634 L841 1634 Q856 1634 856 1622 Q856 1616 854 1613 L671 1312 Q665 1302 660 1298.5 Q655 1295 645 1295 L467 1295 Z " />
<glyph glyph-name="scaron" unicode="&#x161;" horiz-adv-x="1106" d="M555 -31 Q415 -31 315.5 11 Q216 53 160.5 109 Q105 165 80 217 L101 301 Q103 308 106.5 310.5 Q110 313 117 313 L227 313 Q233 313 236.5 310.5 Q240 308 244 302 Q260 267 295.5 229.5 Q331 192 396 163.5 Q461 135 552 135 Q679 135 751.5 186 Q824 237 824 324 Q824 378 797.5 410.5 Q771 443 726 460 Q681 477 611 490 L400 529 Q267 552 189.5 620.5 Q112 689 112 831 Q112 942 167 1023.5 Q222 1105 322.5 1148.5 Q423 1192 558 1192 Q754 1192 858.5 1115 Q963 1038 1006 947 L985 863 Q982 850 969 850 L859 850 Q848 850 842 862 Q815 923 749 974.5 Q683 1026 556 1026 Q440 1026 377 975 Q314 924 314 837 Q314 760 363.5 723.5 Q413 687 507 671 L709 636 Q805 618 873 588 Q941 558 983.5 496.5 Q1026 435 1026 333 Q1026 223 966 140.5 Q906 58 799 13.5 Q692 -31 555 -31 Z M453 1308 Q444 1308 438 1311.5 Q432 1315 423 1324 L169 1615 Q163 1621 163 1627 Q163 1634 174 1634 L345 1634 Q363 1634 378 1616 L560 1419 L738 1616 Q755 1634 771 1634 L942 1634 Q955 1634 955 1626 Q955 1621 949 1615 L695 1324 Q687 1315 680.5 1311.5 Q674 1308 664 1308 L453 1308 Z " />
<glyph glyph-name="scedilla" unicode="&#x15f;" horiz-adv-x="1106" d="M1026 333 Q1026 230 972.5 150.5 Q919 71 823 24.5 Q727 -22 602 -30 L552 -103 L618 -103 Q700 -103 748 -142.5 Q796 -182 796 -261 Q796 -339 746 -381.5 Q696 -424 614 -424 L413 -424 Q403 -424 399 -420.5 Q395 -417 392 -407 L377 -346 Q376 -344 376 -340 Q376 -326 395 -326 L576 -326 Q657 -326 657 -260 Q657 -226 637 -209 Q617 -192 580 -192 L392 -192 Q379 -192 379 -183 Q379 -179 382 -173 L479 -27 Q364 -16 281 26.5 Q198 69 150 120 Q102 171 80 217 L101 301 Q103 308 106.5 310.5 Q110 313 117 313 L227 313 Q233 313 236.5 310.5 Q240 308 244 302 Q260 267 295.5 229.5 Q331 192 396 163.5 Q461 135 552 135 Q679 135 751.5 186 Q824 237 824 324 Q824 378 797.5 410.5 Q771 443 726 460 Q681 477 611 490 L400 529 Q267 552 189.5 620.5 Q112 689 112 831 Q112 942 167 1023.5 Q222 1105 322.5 1148.5 Q423 1192 558 1192 Q754 1192 858.5 1115 Q963 1038 1006 947 L985 863 Q982 850 969 850 L859 850 Q848 850 842 862 Q815 923 749 974.5 Q683 1026 556 1026 Q440 1026 377 975 Q314 924 314 837 Q314 760 363.5 723.5 Q413 687 507 671 L709 636 Q805 618 873 588 Q941 558 983.5 496.5 Q1026 435 1026 333 Z " />
<glyph glyph-name="scommaaccent" unicode="&#x219;" horiz-adv-x="1106" d="M555 -31 Q415 -31 315.5 11 Q216 53 160.5 109 Q105 165 80 217 L101 301 Q103 308 106.5 310.5 Q110 313 117 313 L227 313 Q233 313 236.5 310.5 Q240 308 244 302 Q260 267 295.5 229.5 Q331 192 396 163.5 Q461 135 552 135 Q679 135 751.5 186 Q824 237 824 324 Q824 378 797.5 410.5 Q771 443 726 460 Q681 477 611 490 L400 529 Q267 552 189.5 620.5 Q112 689 112 831 Q112 942 167 1023.5 Q222 1105 322.5 1148.5 Q423 1192 558 1192 Q754 1192 858.5 1115 Q963 1038 1006 947 L985 863 Q982 850 969 850 L859 850 Q848 850 842 862 Q815 923 749 974.5 Q683 1026 556 1026 Q440 1026 377 975 Q314 924 314 837 Q314 760 363.5 723.5 Q413 687 507 671 L709 636 Q805 618 873 588 Q941 558 983.5 496.5 Q1026 435 1026 333 Q1026 223 966 140.5 Q906 58 799 13.5 Q692 -31 555 -31 Z M403 -440 Q395 -440 392 -437.5 Q389 -435 389 -430 Q389 -425 390 -421 L453 -108 Q454 -99 460 -96 Q466 -93 476 -93 L645 -93 Q651 -93 654.5 -96.5 Q658 -100 658 -105 Q658 -111 656 -114 L579 -423 Q575 -440 556 -440 L403 -440 Z " />
<glyph glyph-name="germandbls" unicode="&#xdf;" horiz-adv-x="1175" d="M137 0 Q124 0 124 13 L124 1150 Q124 1274 180.5 1368 Q237 1462 338 1513 Q439 1564 568 1564 Q699 1564 799.5 1513.5 Q900 1463 955.5 1370.5 Q1011 1278 1011 1155 Q1011 1036 964 959.5 Q917 883 858 843 Q799 803 799 810 Q799 819 879 781.5 Q959 744 1023 661.5 Q1087 579 1087 438 Q1087 303 1027 204 Q967 105 856.5 52.5 Q746 0 598 0 L519 0 Q511 0 508.5 2 Q506 4 506 12 L506 156 Q506 165 508.5 168 Q511 171 519 171 L579 171 Q731 171 810.5 246 Q890 321 890 451 Q890 529 854 588.5 Q818 648 748.5 681 Q679 714 581 714 L522 714 Q514 714 511.5 717 Q509 720 509 729 L509 870 Q509 878 511.5 880.5 Q514 883 522 883 L581 883 Q654 883 709.5 917 Q765 951 795 1010.5 Q825 1070 825 1144 Q825 1263 758.5 1332.5 Q692 1402 575 1402 Q501 1402 443 1372 Q385 1342 352.5 1284 Q320 1226 320 1146 L320 131 L298 14 Q297 0 285 0 L137 0 Z " />
<glyph glyph-name="t" unicode="t" horiz-adv-x="822" d="M585 0 Q411 0 319.5 94 Q228 188 228 355 L228 991 L68 991 Q60 991 57.5 993.5 Q55 996 55 1004 L55 1148 Q55 1156 57.5 1158.5 Q60 1161 68 1161 L228 1161 L228 1314 L250 1433 Q251 1446 265 1446 L405 1446 Q419 1446 419 1433 L419 1161 L734 1161 Q741 1161 744 1158.5 Q747 1156 747 1148 L747 1004 Q747 996 744 993.5 Q741 991 734 991 L419 991 L419 361 Q419 265 465.5 214 Q512 163 601 163 L732 163 Q740 163 743 160.5 Q746 158 746 149 L746 13 Q746 5 743 2.5 Q740 0 732 0 L585 0 Z " />
<glyph glyph-name="tbar" unicode="&#x167;" horiz-adv-x="818" d="M419 991 L419 680 L731 680 Q739 680 742.5 677 Q746 674 746 666 L746 521 Q746 513 743 510.5 Q740 508 731 508 L419 508 L419 361 Q419 265 465.5 214 Q512 163 601 163 L732 163 Q740 163 743 160.5 Q746 158 746 149 L746 13 Q746 5 743 2.5 Q740 0 732 0 L585 0 Q411 0 319.5 94 Q228 188 228 355 L228 508 L70 508 Q62 508 59.5 510.5 Q57 513 57 521 L57 666 Q57 674 59.5 677 Q62 680 70 680 L228 680 L228 991 L68 991 Q60 991 57.5 993.5 Q55 996 55 1004 L55 1148 Q55 1156 57.5 1158.5 Q60 1161 68 1161 L228 1161 L228 1314 L250 1433 Q251 1446 265 1446 L405 1446 Q419 1446 419 1433 L419 1161 L734 1161 Q741 1161 744 1158.5 Q747 1156 747 1148 L747 1004 Q747 996 744 993.5 Q741 991 734 991 L419 991 Z " />
<glyph glyph-name="tcaron" unicode="&#x165;" horiz-adv-x="817" d="M549 1220 Q540 1220 538 1223.5 Q536 1227 538 1235 L594 1520 Q595 1527 599.5 1529.5 Q604 1532 611 1532 L723 1532 Q730 1532 732 1527.5 Q734 1523 732 1516 L660 1234 Q657 1220 642 1220 L549 1220 Z M585 0 Q411 0 319.5 94 Q228 188 228 355 L228 991 L68 991 Q60 991 57.5 993.5 Q55 996 55 1004 L55 1148 Q55 1156 57.5 1158.5 Q60 1161 68 1161 L228 1161 L228 1314 L250 1433 Q251 1446 265 1446 L405 1446 Q419 1446 419 1433 L419 1161 L734 1161 Q741 1161 744 1158.5 Q747 1156 747 1148 L747 1004 Q747 996 744 993.5 Q741 991 734 991 L419 991 L419 361 Q419 265 465.5 214 Q512 163 601 163 L732 163 Q740 163 743 160.5 Q746 158 746 149 L746 13 Q746 5 743 2.5 Q740 0 732 0 L585 0 Z " />
<glyph glyph-name="uni0163" unicode="&#x163;" horiz-adv-x="822" d="M594 -103 Q676 -103 724 -142.5 Q772 -182 772 -261 Q772 -339 722 -381.5 Q672 -424 590 -424 L389 -424 Q379 -424 375 -420.5 Q371 -417 368 -407 L353 -346 Q352 -344 352 -340 Q352 -326 371 -326 L552 -326 Q633 -326 633 -260 Q633 -226 613 -209 Q593 -192 556 -192 L368 -192 Q355 -192 355 -183 Q355 -179 358 -173 L480 10 Q356 37 292 126 Q228 215 228 355 L228 991 L68 991 Q60 991 57.5 993.5 Q55 996 55 1004 L55 1148 Q55 1156 57.5 1158.5 Q60 1161 68 1161 L228 1161 L228 1314 L250 1433 Q251 1446 265 1446 L405 1446 Q419 1446 419 1433 L419 1161 L734 1161 Q741 1161 744 1158.5 Q747 1156 747 1148 L747 1004 Q747 996 744 993.5 Q741 991 734 991 L419 991 L419 361 Q419 265 465.5 214 Q512 163 601 163 L732 163 Q740 163 743 160.5 Q746 158 746 149 L746 13 Q746 5 743 2.5 Q740 0 732 0 L599 0 L528 -103 L594 -103 Z " />
<glyph glyph-name="uni021B" unicode="&#x21b;" horiz-adv-x="822" d="M585 0 Q411 0 319.5 94 Q228 188 228 355 L228 991 L68 991 Q60 991 57.5 993.5 Q55 996 55 1004 L55 1148 Q55 1156 57.5 1158.5 Q60 1161 68 1161 L228 1161 L228 1314 L250 1433 Q251 1446 265 1446 L405 1446 Q419 1446 419 1433 L419 1161 L734 1161 Q741 1161 744 1158.5 Q747 1156 747 1148 L747 1004 Q747 996 744 993.5 Q741 991 734 991 L419 991 L419 361 Q419 265 465.5 214 Q512 163 601 163 L732 163 Q740 163 743 160.5 Q746 158 746 149 L746 13 Q746 5 743 2.5 Q740 0 732 0 L585 0 Z M379 -440 Q371 -440 368 -437.5 Q365 -435 365 -430 Q365 -425 366 -421 L429 -108 Q430 -99 436 -96 Q442 -93 452 -93 L621 -93 Q627 -93 630.5 -96.5 Q634 -100 634 -105 Q634 -111 632 -114 L555 -423 Q551 -440 532 -440 L379 -440 Z " />
<glyph glyph-name="u" unicode="u" horiz-adv-x="1221" d="M522 -31 Q329 -31 221 76.5 Q113 184 113 389 L113 1148 Q113 1161 127 1161 L296 1161 Q310 1161 310 1148 L310 403 Q310 281 373 210.5 Q436 140 565 140 Q660 140 736 181 Q812 222 856.5 300.5 Q901 379 901 487 L901 1148 Q901 1161 913 1161 L1084 1161 Q1097 1161 1097 1148 L1097 13 Q1097 0 1084 0 L952 0 Q945 0 942 3 Q939 6 938 13 L912 189 Q865 97 766.5 33 Q668 -31 522 -31 Z " />
<glyph glyph-name="uacute" unicode="&#xfa;" horiz-adv-x="1221" d="M522 -31 Q329 -31 221 76.5 Q113 184 113 389 L113 1148 Q113 1161 127 1161 L296 1161 Q310 1161 310 1148 L310 403 Q310 281 373 210.5 Q436 140 565 140 Q660 140 736 181 Q812 222 856.5 300.5 Q901 379 901 487 L901 1148 Q901 1161 913 1161 L1084 1161 Q1097 1161 1097 1148 L1097 13 Q1097 0 1084 0 L952 0 Q945 0 942 3 Q939 6 938 13 L912 189 Q865 97 766.5 33 Q668 -31 522 -31 Z M519 1295 Q504 1295 504 1304 Q504 1308 507 1314 L670 1618 Q674 1628 679 1631 Q684 1634 693 1634 L893 1634 Q908 1634 908 1622 Q908 1616 906 1613 L723 1312 Q717 1302 712 1298.5 Q707 1295 697 1295 L519 1295 Z " />
<glyph glyph-name="ucircumflex" unicode="&#xfb;" horiz-adv-x="1221" d="M522 -31 Q329 -31 221 76.5 Q113 184 113 389 L113 1148 Q113 1161 127 1161 L296 1161 Q310 1161 310 1148 L310 403 Q310 281 373 210.5 Q436 140 565 140 Q660 140 736 181 Q812 222 856.5 300.5 Q901 379 901 487 L901 1148 Q901 1161 913 1161 L1084 1161 Q1097 1161 1097 1148 L1097 13 Q1097 0 1084 0 L952 0 Q945 0 942 3 Q939 6 938 13 L912 189 Q865 97 766.5 33 Q668 -31 522 -31 Z M225 1302 Q213 1302 213 1310 Q213 1315 219 1321 L472 1612 Q482 1622 487.5 1625 Q493 1628 502 1628 L714 1628 Q723 1628 729 1624.5 Q735 1621 743 1612 L999 1321 Q1005 1315 1005 1310 Q1005 1302 993 1302 L822 1302 Q805 1302 789 1319 L609 1519 L428 1319 Q414 1302 396 1302 L225 1302 Z " />
<glyph glyph-name="udieresis" unicode="&#xfc;" horiz-adv-x="1221" d="M522 -31 Q329 -31 221 76.5 Q113 184 113 389 L113 1148 Q113 1161 127 1161 L296 1161 Q310 1161 310 1148 L310 403 Q310 281 373 210.5 Q436 140 565 140 Q660 140 736 181 Q812 222 856.5 300.5 Q901 379 901 487 L901 1148 Q901 1161 913 1161 L1084 1161 Q1097 1161 1097 1148 L1097 13 Q1097 0 1084 0 L952 0 Q945 0 942 3 Q939 6 938 13 L912 189 Q865 97 766.5 33 Q668 -31 522 -31 Z M359 1338 Q350 1338 346 1342 Q342 1346 342 1356 L342 1514 Q342 1532 359 1532 L519 1532 Q528 1532 533 1527 Q538 1522 538 1514 L538 1356 Q538 1338 519 1338 L359 1338 Z M697 1338 Q688 1338 684 1342 Q680 1346 680 1356 L680 1514 Q680 1532 697 1532 L857 1532 Q866 1532 871 1527 Q876 1522 876 1514 L876 1356 Q876 1338 857 1338 L697 1338 Z " />
<glyph glyph-name="ugrave" unicode="&#xf9;" horiz-adv-x="1221" d="M522 -31 Q329 -31 221 76.5 Q113 184 113 389 L113 1148 Q113 1161 127 1161 L296 1161 Q310 1161 310 1148 L310 403 Q310 281 373 210.5 Q436 140 565 140 Q660 140 736 181 Q812 222 856.5 300.5 Q901 379 901 487 L901 1148 Q901 1161 913 1161 L1084 1161 Q1097 1161 1097 1148 L1097 13 Q1097 0 1084 0 L952 0 Q945 0 942 3 Q939 6 938 13 L912 189 Q865 97 766.5 33 Q668 -31 522 -31 Z M526 1295 Q516 1295 511 1298.5 Q506 1302 500 1312 L312 1613 Q310 1616 310 1622 Q310 1634 325 1634 L525 1634 Q534 1634 539 1631 Q544 1628 549 1618 L714 1314 Q718 1309 718 1303 Q718 1295 704 1295 L526 1295 Z " />
<glyph glyph-name="uhungarumlaut" unicode="&#x171;" horiz-adv-x="1221" d="M522 -31 Q329 -31 221 76.5 Q113 184 113 389 L113 1148 Q113 1161 127 1161 L296 1161 Q310 1161 310 1148 L310 403 Q310 281 373 210.5 Q436 140 565 140 Q660 140 736 181 Q812 222 856.5 300.5 Q901 379 901 487 L901 1148 Q901 1161 913 1161 L1084 1161 Q1097 1161 1097 1148 L1097 13 Q1097 0 1084 0 L952 0 Q945 0 942 3 Q939 6 938 13 L912 189 Q865 97 766.5 33 Q668 -31 522 -31 Z M367 1295 Q355 1295 355 1303 Q355 1308 358 1314 L519 1618 Q525 1628 530 1631 Q535 1634 545 1634 L702 1634 Q708 1634 712 1631 Q716 1628 716 1623 Q716 1618 712 1613 L534 1311 Q528 1301 523 1298 Q518 1295 509 1295 L367 1295 Z M680 1295 Q668 1295 668 1303 Q668 1308 671 1314 L864 1618 Q869 1628 874.5 1631 Q880 1634 890 1634 L1050 1634 Q1064 1634 1064 1623 Q1064 1619 1061 1613 L848 1311 Q841 1302 835.5 1298.5 Q830 1295 820 1295 L680 1295 Z " />
<glyph glyph-name="umacron" unicode="&#x16b;" horiz-adv-x="1221" d="M522 -31 Q329 -31 221 76.5 Q113 184 113 389 L113 1148 Q113 1161 127 1161 L296 1161 Q310 1161 310 1148 L310 403 Q310 281 373 210.5 Q436 140 565 140 Q660 140 736 181 Q812 222 856.5 300.5 Q901 379 901 487 L901 1148 Q901 1161 913 1161 L1084 1161 Q1097 1161 1097 1148 L1097 13 Q1097 0 1084 0 L952 0 Q945 0 942 3 Q939 6 938 13 L912 189 Q865 97 766.5 33 Q668 -31 522 -31 Z M332 1377 Q323 1377 319.5 1381 Q316 1385 316 1395 L316 1527 Q316 1538 319 1541.5 Q322 1545 332 1545 L884 1545 Q894 1545 898 1541 Q902 1537 902 1527 L902 1395 Q902 1385 898 1381 Q894 1377 884 1377 L332 1377 Z " />
<glyph glyph-name="uogonek" unicode="&#x173;" horiz-adv-x="1221" d="M1110 -301 Q1132 -301 1128 -319 L1115 -406 Q1113 -416 1109 -420 Q1105 -424 1097 -424 L948 -424 Q836 -424 770.5 -374.5 Q705 -325 706 -239 Q706 -166 746.5 -112.5 Q787 -59 837.5 -27 Q888 5 888 0 L939 9 Q938 10 938 13 L912 189 Q865 97 766.5 33 Q668 -31 522 -31 Q329 -31 221 76.5 Q113 184 113 389 L113 1148 Q113 1161 127 1161 L296 1161 Q310 1161 310 1148 L310 403 Q310 281 373 210.5 Q436 140 565 140 Q660 140 736 181 Q812 222 856.5 300.5 Q901 379 901 487 L901 1148 Q901 1161 913 1161 L1084 1161 Q1097 1161 1097 1148 L1097 13 Q1097 0 1084 0 L1052 0 Q1052 4 999.5 -25 Q947 -54 905 -99.5 Q863 -145 863 -205 Q863 -252 895.5 -276.5 Q928 -301 986 -301 L1110 -301 Z " />
<glyph glyph-name="uring" unicode="&#x16f;" horiz-adv-x="1221" d="M522 -31 Q329 -31 221 76.5 Q113 184 113 389 L113 1148 Q113 1161 127 1161 L296 1161 Q310 1161 310 1148 L310 403 Q310 281 373 210.5 Q436 140 565 140 Q660 140 736 181 Q812 222 856.5 300.5 Q901 379 901 487 L901 1148 Q901 1161 913 1161 L1084 1161 Q1097 1161 1097 1148 L1097 13 Q1097 0 1084 0 L952 0 Q945 0 942 3 Q939 6 938 13 L912 189 Q865 97 766.5 33 Q668 -31 522 -31 Z M607 1286 Q532 1286 474.5 1316 Q417 1346 385.5 1401 Q354 1456 354 1528 Q354 1597 386 1652.5 Q418 1708 475.5 1740 Q533 1772 607 1772 Q680 1772 738.5 1740 Q797 1708 829.5 1652.5 Q862 1597 862 1528 Q862 1457 829.5 1402 Q797 1347 739 1316.5 Q681 1286 607 1286 Z M608 1412 Q659 1412 690 1444 Q721 1476 721 1528 Q721 1581 690 1613.5 Q659 1646 608 1646 Q557 1646 526.5 1613.5 Q496 1581 496 1528 Q496 1475 526.5 1443.5 Q557 1412 608 1412 Z " />
<glyph glyph-name="v" unicode="v" horiz-adv-x="1188" d="M486 0 Q474 0 471 13 L66 1073 L76 1147 Q80 1161 91 1161 L236 1161 Q249 1161 252 1147 L600 222 L946 1147 Q951 1161 963 1161 L1097 1161 Q1109 1161 1112 1147 L1122 1073 L711 13 Q706 0 696 0 L486 0 Z " />
<glyph glyph-name="w" unicode="w" horiz-adv-x="1629" d="M362 0 Q350 0 347 13 L66 1072 L76 1147 Q78 1161 91 1161 L237 1161 Q248 1161 251 1147 L467 291 L721 1147 Q725 1161 735 1161 L906 1161 Q919 1161 922 1147 L1178 291 L1395 1147 Q1399 1161 1409 1161 L1539 1161 Q1552 1161 1554 1147 L1563 1072 L1280 13 Q1277 0 1265 0 L1093 0 Q1081 0 1078 13 L820 877 L560 13 Q557 0 544 0 L362 0 Z " />
<glyph glyph-name="wacute" unicode="&#x1e83;" horiz-adv-x="1629" d="M362 0 Q350 0 347 13 L66 1072 L76 1147 Q78 1161 91 1161 L237 1161 Q248 1161 251 1147 L467 291 L721 1147 Q725 1161 735 1161 L906 1161 Q919 1161 922 1147 L1178 291 L1395 1147 Q1399 1161 1409 1161 L1539 1161 Q1552 1161 1554 1147 L1563 1072 L1280 13 Q1277 0 1265 0 L1093 0 Q1081 0 1078 13 L820 877 L560 13 Q557 0 544 0 L362 0 Z M743 1295 Q728 1295 728 1304 Q728 1308 731 1314 L894 1618 Q898 1628 903 1631 Q908 1634 917 1634 L1117 1634 Q1132 1634 1132 1622 Q1132 1616 1130 1613 L947 1312 Q941 1302 936 1298.5 Q931 1295 921 1295 L743 1295 Z " />
<glyph glyph-name="wcircumflex" unicode="&#x175;" horiz-adv-x="1629" d="M362 0 Q350 0 347 13 L66 1072 L76 1147 Q78 1161 91 1161 L237 1161 Q248 1161 251 1147 L467 291 L721 1147 Q725 1161 735 1161 L906 1161 Q919 1161 922 1147 L1178 291 L1395 1147 Q1399 1161 1409 1161 L1539 1161 Q1552 1161 1554 1147 L1563 1072 L1280 13 Q1277 0 1265 0 L1093 0 Q1081 0 1078 13 L820 877 L560 13 Q557 0 544 0 L362 0 Z M449 1302 Q437 1302 437 1310 Q437 1315 443 1321 L696 1612 Q706 1622 711.5 1625 Q717 1628 726 1628 L938 1628 Q947 1628 953 1624.5 Q959 1621 967 1612 L1223 1321 Q1229 1315 1229 1310 Q1229 1302 1217 1302 L1046 1302 Q1029 1302 1013 1319 L833 1519 L652 1319 Q638 1302 620 1302 L449 1302 Z " />
<glyph glyph-name="wdieresis" unicode="&#x1e85;" horiz-adv-x="1629" d="M362 0 Q350 0 347 13 L66 1072 L76 1147 Q78 1161 91 1161 L237 1161 Q248 1161 251 1147 L467 291 L721 1147 Q725 1161 735 1161 L906 1161 Q919 1161 922 1147 L1178 291 L1395 1147 Q1399 1161 1409 1161 L1539 1161 Q1552 1161 1554 1147 L1563 1072 L1280 13 Q1277 0 1265 0 L1093 0 Q1081 0 1078 13 L820 877 L560 13 Q557 0 544 0 L362 0 Z M583 1338 Q574 1338 570 1342 Q566 1346 566 1356 L566 1514 Q566 1532 583 1532 L743 1532 Q752 1532 757 1527 Q762 1522 762 1514 L762 1356 Q762 1338 743 1338 L583 1338 Z M921 1338 Q912 1338 908 1342 Q904 1346 904 1356 L904 1514 Q904 1532 921 1532 L1081 1532 Q1090 1532 1095 1527 Q1100 1522 1100 1514 L1100 1356 Q1100 1338 1081 1338 L921 1338 Z " />
<glyph glyph-name="wgrave" unicode="&#x1e81;" horiz-adv-x="1629" d="M362 0 Q350 0 347 13 L66 1072 L76 1147 Q78 1161 91 1161 L237 1161 Q248 1161 251 1147 L467 291 L721 1147 Q725 1161 735 1161 L906 1161 Q919 1161 922 1147 L1178 291 L1395 1147 Q1399 1161 1409 1161 L1539 1161 Q1552 1161 1554 1147 L1563 1072 L1280 13 Q1277 0 1265 0 L1093 0 Q1081 0 1078 13 L820 877 L560 13 Q557 0 544 0 L362 0 Z M750 1295 Q740 1295 735 1298.5 Q730 1302 724 1312 L536 1613 Q534 1616 534 1622 Q534 1634 549 1634 L749 1634 Q758 1634 763 1631 Q768 1628 773 1618 L938 1314 Q942 1309 942 1303 Q942 1295 928 1295 L750 1295 Z " />
<glyph glyph-name="x" unicode="x" horiz-adv-x="1195" d="M84 0 Q71 0 69 14 L60 94 L435 581 L68 1067 L77 1147 Q81 1161 92 1161 L247 1161 Q255 1161 265 1149 L587 695 L910 1149 Q920 1161 928 1161 L1079 1161 Q1085 1161 1089 1157 Q1093 1153 1094 1147 L1103 1067 L739 584 L1112 94 L1102 14 Q1100 0 1088 0 L933 0 Q925 0 915 12 L585 470 L254 12 Q244 0 236 0 L84 0 Z " />
<glyph glyph-name="y" unicode="y" horiz-adv-x="1182" d="M208 -379 Q200 -379 197.5 -376.5 Q195 -374 195 -365 L195 -226 Q195 -217 197.5 -214 Q200 -211 208 -211 L285 -211 Q350 -211 395.5 -178.5 Q441 -146 468 -77 L506 24 L66 1074 L76 1147 Q78 1161 91 1161 L237 1161 Q249 1161 254 1147 L613 263 L939 1147 Q944 1161 955 1161 L1091 1161 Q1104 1161 1106 1147 L1116 1074 L669 -105 Q621 -242 534.5 -310.5 Q448 -379 301 -379 L208 -379 Z " />
<glyph glyph-name="yacute" unicode="&#xfd;" horiz-adv-x="1182" d="M208 -379 Q200 -379 197.5 -376.5 Q195 -374 195 -365 L195 -226 Q195 -217 197.5 -214 Q200 -211 208 -211 L285 -211 Q350 -211 395.5 -178.5 Q441 -146 468 -77 L506 24 L66 1074 L76 1147 Q78 1161 91 1161 L237 1161 Q249 1161 254 1147 L613 263 L939 1147 Q944 1161 955 1161 L1091 1161 Q1104 1161 1106 1147 L1116 1074 L669 -105 Q621 -242 534.5 -310.5 Q448 -379 301 -379 L208 -379 Z M508 1295 Q493 1295 493 1304 Q493 1308 496 1314 L659 1618 Q663 1628 668 1631 Q673 1634 682 1634 L882 1634 Q897 1634 897 1622 Q897 1616 895 1613 L712 1312 Q706 1302 701 1298.5 Q696 1295 686 1295 L508 1295 Z " />
<glyph glyph-name="ycircumflex" unicode="&#x177;" horiz-adv-x="1182" d="M208 -379 Q200 -379 197.5 -376.5 Q195 -374 195 -365 L195 -226 Q195 -217 197.5 -214 Q200 -211 208 -211 L285 -211 Q350 -211 395.5 -178.5 Q441 -146 468 -77 L506 24 L66 1074 L76 1147 Q78 1161 91 1161 L237 1161 Q249 1161 254 1147 L613 263 L939 1147 Q944 1161 955 1161 L1091 1161 Q1104 1161 1106 1147 L1116 1074 L669 -105 Q621 -242 534.5 -310.5 Q448 -379 301 -379 L208 -379 Z M214 1302 Q202 1302 202 1310 Q202 1315 208 1321 L461 1612 Q471 1622 476.5 1625 Q482 1628 491 1628 L703 1628 Q712 1628 718 1624.5 Q724 1621 732 1612 L988 1321 Q994 1315 994 1310 Q994 1302 982 1302 L811 1302 Q794 1302 778 1319 L598 1519 L417 1319 Q403 1302 385 1302 L214 1302 Z " />
<glyph glyph-name="ydieresis" unicode="&#xff;" horiz-adv-x="1182" d="M208 -379 Q200 -379 197.5 -376.5 Q195 -374 195 -365 L195 -226 Q195 -217 197.5 -214 Q200 -211 208 -211 L285 -211 Q350 -211 395.5 -178.5 Q441 -146 468 -77 L506 24 L66 1074 L76 1147 Q78 1161 91 1161 L237 1161 Q249 1161 254 1147 L613 263 L939 1147 Q944 1161 955 1161 L1091 1161 Q1104 1161 1106 1147 L1116 1074 L669 -105 Q621 -242 534.5 -310.5 Q448 -379 301 -379 L208 -379 Z M348 1338 Q339 1338 335 1342 Q331 1346 331 1356 L331 1514 Q331 1532 348 1532 L508 1532 Q517 1532 522 1527 Q527 1522 527 1514 L527 1356 Q527 1338 508 1338 L348 1338 Z M686 1338 Q677 1338 673 1342 Q669 1346 669 1356 L669 1514 Q669 1532 686 1532 L846 1532 Q855 1532 860 1527 Q865 1522 865 1514 L865 1356 Q865 1338 846 1338 L686 1338 Z " />
<glyph glyph-name="ygrave" unicode="&#x1ef3;" horiz-adv-x="1182" d="M208 -379 Q200 -379 197.5 -376.5 Q195 -374 195 -365 L195 -226 Q195 -217 197.5 -214 Q200 -211 208 -211 L285 -211 Q350 -211 395.5 -178.5 Q441 -146 468 -77 L506 24 L66 1074 L76 1147 Q78 1161 91 1161 L237 1161 Q249 1161 254 1147 L613 263 L939 1147 Q944 1161 955 1161 L1091 1161 Q1104 1161 1106 1147 L1116 1074 L669 -105 Q621 -242 534.5 -310.5 Q448 -379 301 -379 L208 -379 Z M515 1295 Q505 1295 500 1298.5 Q495 1302 489 1312 L301 1613 Q299 1616 299 1622 Q299 1634 314 1634 L514 1634 Q523 1634 528 1631 Q533 1628 538 1618 L703 1314 Q707 1309 707 1303 Q707 1295 693 1295 L515 1295 Z " />
<glyph glyph-name="z" unicode="z" horiz-adv-x="1106" d="M109 0 Q97 0 93 14 L72 164 L769 991 L97 991 Q89 991 86 993.5 Q83 996 83 1004 L83 1147 Q83 1161 97 1161 L993 1161 Q1006 1161 1009 1147 L1030 996 L333 171 L1017 171 Q1031 171 1031 157 L1031 14 Q1031 5 1028 2.5 Q1025 0 1017 0 L109 0 Z " />
<glyph glyph-name="zacute" unicode="&#x17a;" horiz-adv-x="1106" d="M109 0 Q97 0 93 14 L72 164 L769 991 L97 991 Q89 991 86 993.5 Q83 996 83 1004 L83 1147 Q83 1161 97 1161 L993 1161 Q1006 1161 1009 1147 L1030 996 L333 171 L1017 171 Q1031 171 1031 157 L1031 14 Q1031 5 1028 2.5 Q1025 0 1017 0 L109 0 Z M464 1295 Q449 1295 449 1304 Q449 1308 452 1314 L615 1618 Q619 1628 624 1631 Q629 1634 638 1634 L838 1634 Q853 1634 853 1622 Q853 1616 851 1613 L668 1312 Q662 1302 657 1298.5 Q652 1295 642 1295 L464 1295 Z " />
<glyph glyph-name="zcaron" unicode="&#x17e;" horiz-adv-x="1106" d="M109 0 Q97 0 93 14 L72 164 L769 991 L97 991 Q89 991 86 993.5 Q83 996 83 1004 L83 1147 Q83 1161 97 1161 L993 1161 Q1006 1161 1009 1147 L1030 996 L333 171 L1017 171 Q1031 171 1031 157 L1031 14 Q1031 5 1028 2.5 Q1025 0 1017 0 L109 0 Z M450 1308 Q441 1308 435 1311.5 Q429 1315 420 1324 L166 1615 Q160 1621 160 1627 Q160 1634 171 1634 L342 1634 Q360 1634 375 1616 L557 1419 L735 1616 Q752 1634 768 1634 L939 1634 Q952 1634 952 1626 Q952 1621 946 1615 L692 1324 Q684 1315 677.5 1311.5 Q671 1308 661 1308 L450 1308 Z " />
<glyph glyph-name="zdotaccent" unicode="&#x17c;" horiz-adv-x="1106" d="M109 0 Q97 0 93 14 L72 164 L769 991 L97 991 Q89 991 86 993.5 Q83 996 83 1004 L83 1147 Q83 1161 97 1161 L993 1161 Q1006 1161 1009 1147 L1030 996 L333 171 L1017 171 Q1031 171 1031 157 L1031 14 Q1031 5 1028 2.5 Q1025 0 1017 0 L109 0 Z M473 1338 Q464 1338 460 1342 Q456 1346 456 1356 L456 1514 Q456 1532 473 1532 L633 1532 Q642 1532 647 1527 Q652 1522 652 1514 L652 1356 Q652 1338 633 1338 L473 1338 Z " />
<glyph glyph-name="fi" unicode="&#xfb01;" horiz-adv-x="1237" d="M242 0 Q228 0 228 13 L228 991 L68 991 Q60 991 57.5 993.5 Q55 996 55 1004 L55 1148 Q55 1156 57.5 1158.5 Q60 1161 68 1161 L228 1161 L228 1199 Q228 1366 319.5 1460 Q411 1554 585 1554 L732 1554 Q740 1554 743 1551.5 Q746 1549 746 1540 L746 1404 Q746 1395 743 1392 Q740 1389 732 1389 L603 1389 Q513 1389 467 1339 Q421 1289 421 1193 L421 1161 L734 1161 Q741 1161 744 1158 Q747 1155 747 1148 L747 1004 Q747 996 744 993.5 Q741 991 734 991 L421 991 L421 13 Q421 0 408 0 L242 0 Z M929 1342 Q917 1342 917 1356 L917 1523 Q917 1536 929 1536 L1099 1536 Q1113 1536 1113 1523 L1113 1356 Q1113 1342 1099 1342 L929 1342 Z M929 0 Q917 0 917 13 L917 1148 Q917 1161 929 1161 L1100 1161 Q1113 1161 1113 1148 L1113 13 Q1113 0 1100 0 L929 0 Z " />
<glyph glyph-name="fl" unicode="&#xfb02;" horiz-adv-x="1237" d="M242 0 Q228 0 228 13 L228 991 L68 991 Q60 991 57.5 993.5 Q55 996 55 1004 L55 1148 Q55 1156 57.5 1158.5 Q60 1161 68 1161 L228 1161 L228 1199 Q228 1366 319.5 1460 Q411 1554 585 1554 L732 1554 Q740 1554 743 1551.5 Q746 1549 746 1540 L746 1404 Q746 1395 743 1392 Q740 1389 732 1389 L603 1389 Q513 1389 467 1339 Q421 1289 421 1193 L421 1161 L734 1161 Q741 1161 744 1158 Q747 1155 747 1148 L747 1004 Q747 996 744 993.5 Q741 991 734 991 L421 991 L421 13 Q421 0 408 0 L242 0 Z M952 0 Q946 0 942.5 3 Q939 6 938 13 L917 130 L917 1523 Q917 1536 929 1536 L1100 1536 Q1113 1536 1113 1523 L1113 14 Q1113 0 1100 0 L952 0 Z " />
<glyph glyph-name="ordfeminine" unicode="&#xaa;" horiz-adv-x="851" d="M358 723 Q227 723 152.5 790.5 Q78 858 78 979 Q78 1098 157 1165 Q236 1232 373 1232 Q463 1232 520.5 1211 Q578 1190 605 1166.5 Q632 1143 632 1138 L632 1279 Q632 1451 434 1451 Q371 1451 325 1432.5 Q279 1414 253.5 1388.5 Q228 1363 219 1340 Q213 1330 203 1330 L134 1330 Q125 1330 120 1339 L106 1396 Q137 1457 216 1510 Q295 1563 438 1563 Q599 1563 681.5 1490 Q764 1417 764 1285 L764 757 Q764 745 752 745 L669 745 Q661 745 658 747.5 Q655 750 654 757 L641 845 Q533 723 358 723 Z M396 828 Q468 828 521 848 Q574 868 601.5 903.5 Q629 939 629 985 Q629 1053 568.5 1094 Q508 1135 398 1135 Q308 1135 261 1096 Q214 1057 214 984 Q214 909 260 868.5 Q306 828 396 828 Z " />
<glyph glyph-name="ordmasculine" unicode="&#xba;" horiz-adv-x="919" d="M460 723 Q265 723 174.5 837 Q84 951 84 1142 Q84 1334 174.5 1448.5 Q265 1563 460 1563 Q655 1563 745 1448.5 Q835 1334 835 1142 Q835 950 745 836.5 Q655 723 460 723 Z M460 839 Q584 839 642 918.5 Q700 998 700 1142 Q700 1287 642 1366.5 Q584 1446 460 1446 Q221 1446 221 1142 Q221 839 460 839 Z " />
<glyph glyph-name="uni0394" unicode="&#x394;" horiz-adv-x="1318" d="M66 0 Q59 0 56 4.5 Q53 9 56 17 L530 1521 Q536 1534 546 1534 L784 1534 Q796 1534 799 1523 L1270 19 L1272 11 Q1272 0 1261 0 L66 0 Z M1028 166 L662 1313 L289 166 L1028 166 Z " />
<glyph glyph-name="uni03A9" unicode="&#x3a9;" horiz-adv-x="1605" d="M111 0 Q103 0 100 2.5 Q97 5 97 12 L97 161 Q97 173 111 173 L412 172 Q278 273 185.5 434.5 Q93 596 93 802 Q93 1037 171 1207.5 Q249 1378 406 1470.5 Q563 1563 794 1563 Q1026 1563 1182.5 1470 Q1339 1377 1416.5 1206 Q1494 1035 1494 802 Q1494 596 1401.5 434.5 Q1309 273 1175 172 L1476 173 Q1490 173 1490 161 L1490 12 Q1490 5 1487 2.5 Q1484 0 1476 0 L883 0 Q867 0 867 10 Q867 17 876 23 Q1036 139 1161 332 Q1286 525 1286 798 Q1286 971 1235.5 1103 Q1185 1235 1075 1311 Q965 1387 794 1387 Q622 1387 512 1311 Q402 1235 351.5 1103 Q301 971 301 798 Q301 525 426 332 Q551 139 712 23 Q721 17 721 10 Q721 0 704 0 L111 0 Z " />
<glyph glyph-name="uni03BC" unicode="&#x3bc;" horiz-adv-x="1230" d="M1093 1161 Q1105 1161 1105 1148 L1105 13 Q1105 0 1093 0 L959 -1 Q952 -1 949 1.5 Q946 4 944 12 L921 189 Q874 98 775 33.5 Q676 -31 530 -31 Q406 -31 318 24 L318 -363 Q318 -376 305 -376 L136 -376 Q122 -376 122 -363 L122 1148 Q122 1161 136 1161 L305 1161 Q318 1161 318 1148 L318 403 Q318 281 381.5 210.5 Q445 140 574 140 Q669 140 745 181 Q821 222 865 300.5 Q909 379 909 487 L909 1148 Q909 1161 922 1161 L1093 1161 Z " />
<glyph glyph-name="pi" unicode="&#x3c0;" horiz-adv-x="1394" d="M272 0 Q263 0 260.5 2 Q258 4 258 12 L258 991 L80 991 Q71 991 68.5 993.5 Q66 996 66 1004 L66 1148 Q66 1156 68.5 1158.5 Q71 1161 80 1161 L1300 1161 Q1307 1161 1309.5 1158.5 Q1312 1156 1312 1148 L1312 1004 Q1312 996 1309.5 993.5 Q1307 991 1300 991 L998 991 L998 395 Q998 293 1049 238.5 Q1100 184 1191 184 L1298 184 Q1305 184 1307.5 181 Q1310 178 1310 169 L1310 13 Q1310 5 1307.5 2.5 Q1305 0 1298 0 L1168 0 Q1051 0 965.5 44.5 Q880 89 834 174 Q788 259 788 376 L788 991 L467 991 L467 16 Q467 6 463.5 3 Q460 0 450 0 L272 0 Z " />
<glyph glyph-name="zero" unicode="0" horiz-adv-x="1312" d="M656 -31 Q356 -31 221 184 Q86 399 86 764 Q86 1133 221 1350 Q356 1567 656 1567 Q956 1567 1091 1350 Q1226 1133 1226 764 Q1226 399 1091 184 Q956 -31 656 -31 Z M656 140 Q856 140 943 302 Q1030 464 1030 764 Q1030 1068 943 1232 Q856 1396 656 1396 Q456 1396 369 1232 Q282 1068 282 764 Q282 464 369 302 Q456 140 656 140 Z " />
<glyph glyph-name="one" unicode="1" horiz-adv-x="726" d="M417 0 Q404 0 404 12 L405 1349 L104 1349 Q90 1349 93 1361 L114 1521 Q116 1530 117.5 1532 Q119 1534 126 1534 L579 1534 Q586 1534 589 1531 Q592 1528 592 1519 L591 12 Q591 5 588.5 2.5 Q586 0 579 0 L417 0 Z " />
<glyph glyph-name="two" unicode="2" horiz-adv-x="1208" d="M117 0 Q106 0 102 14 L81 172 L691 713 Q798 806 855 895 Q912 984 912 1097 Q912 1232 829.5 1308.5 Q747 1385 589 1385 Q449 1385 369 1319.5 Q289 1254 257 1182 Q254 1174 250 1171.5 Q246 1169 239 1169 L124 1169 Q116 1169 112 1172 Q108 1175 107 1182 L84 1280 Q113 1340 171 1403 Q229 1466 335 1514 Q441 1562 592 1562 Q844 1562 979 1442.5 Q1114 1323 1114 1102 Q1114 987 1075 895 Q1036 803 972.5 730 Q909 657 813 575 L359 174 L1111 174 Q1118 174 1120.5 171.5 Q1123 169 1123 162 L1123 12 Q1123 5 1120.5 2.5 Q1118 0 1111 0 L117 0 Z " />
<glyph glyph-name="three" unicode="3" horiz-adv-x="1214" d="M595 -31 Q444 -31 338 17.5 Q232 66 174 129 Q116 192 87 252 L110 350 Q113 362 127 362 L243 362 Q256 362 261 350 Q278 309 318.5 263 Q359 217 431 181.5 Q503 146 603 146 Q763 146 843.5 221 Q924 296 924 427 Q924 543 847 612 Q770 681 621 681 L398 681 Q390 681 387.5 683 Q385 685 385 693 L385 844 Q385 852 387.5 854.5 Q390 857 398 857 L621 857 Q766 857 837 931 Q908 1005 908 1124 Q908 1247 831 1316 Q754 1385 601 1385 Q457 1385 378 1319.5 Q299 1254 268 1182 Q265 1175 261 1172 Q257 1169 250 1169 L134 1169 Q126 1169 122 1172 Q118 1175 117 1182 L94 1280 Q144 1384 263.5 1473.5 Q383 1563 602 1563 Q773 1563 887.5 1510.5 Q1002 1458 1057 1364 Q1112 1270 1112 1144 Q1112 1012 1056 929 Q1000 846 930.5 804.5 Q861 763 861 771 Q861 779 935.5 744 Q1010 709 1070 630 Q1130 551 1130 417 Q1130 285 1066 183.5 Q1002 82 881 25.5 Q760 -31 595 -31 Z " />
<glyph glyph-name="four" unicode="4" horiz-adv-x="1308" d="M846 0 Q839 0 836.5 2.5 Q834 5 834 12 L834 285 L106 285 Q95 285 92 300 L71 466 L750 1525 Q757 1534 767 1534 L1023 1534 Q1029 1534 1033 1529.5 Q1037 1525 1037 1519 L1037 456 L1224 456 Q1231 456 1233.5 453 Q1236 450 1236 443 L1236 297 Q1236 285 1224 285 L1037 285 L1037 12 Q1037 5 1034 2.5 Q1031 0 1024 0 L846 0 Z M834 456 L834 1302 L285 457 L834 456 Z " />
<glyph glyph-name="five" unicode="5" horiz-adv-x="1253" d="M609 -31 Q450 -31 340 17.5 Q230 66 170 129.5 Q110 193 81 253 L104 351 Q105 358 109 361 Q113 364 121 364 L240 364 Q248 364 251 361.5 Q254 359 258 351 Q276 310 317.5 264 Q359 218 434.5 182 Q510 146 618 146 Q793 146 879.5 245 Q966 344 966 527 Q966 707 882.5 798 Q799 889 628 889 Q559 889 492.5 865 Q426 841 372.5 795.5 Q319 750 290 688 Q284 675 269 675 L109 675 Q100 675 97 677 Q94 679 94 687 L203 1521 Q205 1528 207.5 1531 Q210 1534 216 1534 L1076 1534 Q1084 1534 1086 1531.5 Q1088 1529 1088 1521 L1088 1370 Q1088 1362 1085.5 1359 Q1083 1356 1076 1356 L361 1356 L305 916 Q305 922 350 959.5 Q395 997 473 1029 Q551 1061 656 1061 Q818 1061 932.5 1000 Q1047 939 1107.5 820 Q1168 701 1168 530 Q1168 360 1100.5 233.5 Q1033 107 906.5 38 Q780 -31 609 -31 Z " />
<glyph glyph-name="six" unicode="6" horiz-adv-x="1310" d="M675 -31 Q475 -31 343.5 64 Q212 159 149 328 Q86 497 86 723 Q86 968 150 1157 Q214 1346 349 1454.5 Q484 1563 688 1563 Q835 1563 936.5 1519.5 Q1038 1476 1093.5 1417.5 Q1149 1359 1173 1302 L1150 1204 Q1148 1197 1144.5 1194.5 Q1141 1192 1133 1192 L1017 1192 Q1010 1192 1006.5 1194.5 Q1003 1197 999 1204 Q984 1242 949 1283.5 Q914 1325 848.5 1356.5 Q783 1388 689 1388 Q559 1388 468.5 1310.5 Q378 1233 332.5 1094 Q287 955 285 772 Q291 822 338 888.5 Q385 955 477 1005 Q569 1055 701 1055 Q860 1055 977.5 995 Q1095 935 1159.5 816 Q1224 697 1224 525 Q1224 355 1152.5 229 Q1081 103 956 36 Q831 -31 675 -31 Z M675 138 Q777 138 856 184 Q935 230 979.5 315.5 Q1024 401 1024 516 Q1024 635 982 720.5 Q940 806 861.5 850.5 Q783 895 675 895 Q571 895 491.5 849.5 Q412 804 368 719 Q324 634 324 520 Q324 403 370.5 316.5 Q417 230 497 184 Q577 138 675 138 Z " />
<glyph glyph-name="seven" unicode="7" horiz-adv-x="1140" d="M280 0 Q274 0 271.5 4 Q269 8 272 14 L843 1345 L80 1345 Q72 1345 69.5 1347.5 Q67 1350 67 1358 L67 1519 Q67 1529 69.5 1531.5 Q72 1534 80 1534 L1034 1534 Q1041 1534 1044 1530.5 Q1047 1527 1050 1519 L1073 1371 L501 12 Q497 4 493.5 2 Q490 0 482 0 L280 0 Z " />
<glyph glyph-name="eight" unicode="8" horiz-adv-x="1285" d="M643 -31 Q475 -31 348.5 24.5 Q222 80 154 180 Q86 280 86 409 Q86 539 148.5 620.5 Q211 702 289 743 Q367 784 367 776 Q367 768 295.5 808.5 Q224 849 166.5 929.5 Q109 1010 109 1137 Q109 1257 170 1354 Q231 1451 351.5 1507.5 Q472 1564 643 1564 Q815 1564 934.5 1507.5 Q1054 1451 1114.5 1354.5 Q1175 1258 1175 1138 Q1175 1014 1117.5 934 Q1060 854 988.5 811.5 Q917 769 917 777 Q917 785 995.5 743.5 Q1074 702 1136.5 620 Q1199 538 1199 409 Q1199 279 1131.5 179.5 Q1064 80 938 24.5 Q812 -31 643 -31 Z M642 853 Q750 853 825.5 890 Q901 927 939 988.5 Q977 1050 977 1125 Q977 1201 941 1263 Q905 1325 830 1362.5 Q755 1400 643 1400 Q531 1400 455.5 1363 Q380 1326 343.5 1263.5 Q307 1201 307 1126 Q307 1048 345 986.5 Q383 925 458.5 889 Q534 853 642 853 Z M643 135 Q755 135 835.5 171.5 Q916 208 957 272 Q998 336 998 417 Q998 498 955 560.5 Q912 623 831.5 658 Q751 693 642 693 Q532 693 452.5 658.5 Q373 624 330.5 561.5 Q288 499 288 417 Q288 337 329.5 273 Q371 209 451.5 172 Q532 135 643 135 Z " />
<glyph glyph-name="nine" unicode="9" horiz-adv-x="1310" d="M621 -31 Q475 -31 373.5 12.5 Q272 56 216.5 114.5 Q161 173 136 230 L160 328 Q163 341 176 341 L293 341 Q305 341 311 328 Q323 292 359 250 Q395 208 461 176.5 Q527 145 621 145 Q751 145 841 222.5 Q931 300 976.5 438.5 Q1022 577 1024 760 Q1019 710 972 643.5 Q925 577 832.5 527 Q740 477 608 477 Q450 477 332.5 537 Q215 597 150.5 715.5 Q86 834 86 1006 Q86 1176 157.5 1302 Q229 1428 354 1495.5 Q479 1563 635 1563 Q835 1563 966.5 1468 Q1098 1373 1161 1203.5 Q1224 1034 1224 809 Q1224 564 1160 375 Q1096 186 961 77.5 Q826 -31 621 -31 Z M635 636 Q738 636 817.5 682 Q897 728 941.5 813 Q986 898 986 1012 Q986 1129 939.5 1216 Q893 1303 813 1349 Q733 1395 635 1395 Q533 1395 454 1349 Q375 1303 330.5 1217 Q286 1131 286 1016 Q286 896 328 810.5 Q370 725 448.5 680.5 Q527 636 635 636 Z " />
<glyph glyph-name="fraction" unicode="&#x2044;" horiz-adv-x="60" d="M-340 0 Q-345 0 -348 2 Q-351 4 -352 11 L-364 79 L285 1520 Q291 1534 303 1534 L396 1534 Q402 1534 405 1531.5 Q408 1529 409 1523 L420 1455 L-229 13 Q-235 0 -247 0 L-340 0 Z " />
<glyph glyph-name="onehalf" unicode="&#xbd;" horiz-adv-x="1334" d="M219 799 Q213 799 210.5 801 Q208 803 208 809 L208 1408 L61 1408 Q48 1408 49 1419 L61 1521 Q62 1529 64 1531.5 Q66 1534 72 1534 L314 1534 Q322 1534 324 1532 Q326 1530 326 1522 L326 809 Q326 803 323.5 801 Q321 799 314 799 L219 799 Z M199 0 Q194 0 191 2 Q188 4 187 11 L175 79 L824 1520 Q830 1534 843 1534 L935 1534 Q941 1534 944 1532 Q947 1530 948 1523 L959 1455 L310 13 Q306 0 292 0 L199 0 Z M730 0 Q716 0 713 14 L703 101 L1004 357 Q1058 405 1083 442.5 Q1108 480 1108 531 Q1108 589 1073 620 Q1038 651 966 651 Q860 651 813 557 Q810 551 806.5 548.5 Q803 546 797 546 L736 546 Q728 546 724.5 548.5 Q721 551 718 559 L706 614 Q728 666 790.5 715 Q853 764 967 764 Q1097 764 1165 706.5 Q1233 649 1233 536 Q1233 478 1212.5 431.5 Q1192 385 1160 350 Q1128 315 1079 274 L890 112 L1224 112 Q1232 112 1234.5 109.5 Q1237 107 1237 98 L1237 13 Q1237 0 1223 0 L730 0 Z " />
<glyph glyph-name="onequarter" unicode="&#xbc;" horiz-adv-x="1228" d="M219 799 Q213 799 210.5 801 Q208 803 208 809 L208 1408 L61 1408 Q48 1408 49 1419 L61 1521 Q62 1529 64 1531.5 Q66 1534 72 1534 L314 1534 Q322 1534 324 1532 Q326 1530 326 1522 L326 809 Q326 803 323.5 801 Q321 799 314 799 L219 799 Z M213 0 Q207 0 204 2 Q201 4 200 11 L188 79 L837 1520 Q843 1534 856 1534 L949 1534 Q954 1534 957 1532 Q960 1530 961 1523 L973 1455 L324 13 Q318 0 305 0 L213 0 Z M944 0 Q930 0 930 15 L930 125 L585 125 Q578 125 574.5 127 Q571 129 570 135 L558 231 L893 722 Q899 733 909 733 L1039 733 Q1049 733 1052 730 Q1055 727 1055 717 L1055 236 L1139 236 Q1153 236 1153 220 L1153 140 Q1153 125 1139 125 L1055 125 L1055 15 Q1055 0 1040 0 L944 0 Z M930 236 L930 564 L699 236 L930 236 Z " />
<glyph glyph-name="threequarters" unicode="&#xbe;" horiz-adv-x="1492" d="M353 769 Q274 769 218.5 794.5 Q163 820 133.5 853 Q104 886 93 915 L105 970 Q109 983 122 983 L183 983 Q194 983 200 970 Q217 936 254 906.5 Q291 877 358 877 Q500 877 500 1001 Q500 1052 466 1081.5 Q432 1111 366 1111 L252 1111 Q244 1111 241 1114 Q238 1117 238 1125 L238 1209 Q238 1216 241 1219.5 Q244 1223 253 1223 L361 1223 Q428 1223 460 1254.5 Q492 1286 492 1340 Q492 1394 458.5 1424.5 Q425 1455 357 1455 Q291 1455 255.5 1424.5 Q220 1394 204 1360 Q200 1354 196 1351.5 Q192 1349 185 1349 L126 1349 Q111 1349 108 1362 L96 1418 Q107 1446 136 1479.5 Q165 1513 220.5 1539 Q276 1565 357 1565 Q487 1565 552.5 1506.5 Q618 1448 618 1348 Q618 1273 583.5 1230.5 Q549 1188 507 1169 Q552 1154 589.5 1114.5 Q627 1075 627 997 Q627 928 594 876.5 Q561 825 499.5 797 Q438 769 353 769 Z M438 0 Q430 0 426.5 3 Q423 6 422 14 L410 79 L1059 1517 Q1068 1534 1082 1534 L1167 1534 Q1180 1534 1183 1519 L1194 1455 L545 17 Q541 9 536 4.5 Q531 0 522 0 L438 0 Z M1208 0 Q1193 0 1193 15 L1193 125 L848 125 Q841 125 838 127 Q835 129 834 135 L822 231 L1157 722 Q1160 728 1163.5 730.5 Q1167 733 1173 733 L1303 733 Q1312 733 1315.5 730 Q1319 727 1319 717 L1319 236 L1402 236 Q1417 236 1417 220 L1417 140 Q1417 125 1402 125 L1319 125 L1319 15 Q1319 0 1303 0 L1208 0 Z M1193 236 L1193 564 L963 236 L1193 236 Z " />
<glyph glyph-name="uni00B9" unicode="&#xb9;" horiz-adv-x="426" d="M219 799 Q213 799 210.5 801 Q208 803 208 809 L208 1407 L61 1407 Q48 1407 49 1417 L61 1520 Q62 1527 64 1529.5 Q66 1532 72 1532 L314 1532 Q321 1532 323.5 1530 Q326 1528 326 1521 L326 809 Q326 803 323.5 801 Q321 799 314 799 L219 799 Z " />
<glyph glyph-name="uni00B2" unicode="&#xb2;" horiz-adv-x="732" d="M123 799 Q113 799 110 810 L99 900 L401 1156 Q455 1204 480 1241.5 Q505 1279 505 1330 Q505 1388 470 1419 Q435 1450 363 1450 Q298 1450 262 1420 Q226 1390 210 1356 Q205 1345 194 1345 L128 1345 Q122 1345 119 1347 Q116 1349 115 1354 L102 1413 Q126 1466 188 1514.5 Q250 1563 364 1563 Q494 1563 562 1505.5 Q630 1448 630 1335 Q630 1277 609.5 1230.5 Q589 1184 557 1149 Q525 1114 476 1073 L287 911 L621 911 Q629 911 631.5 908.5 Q634 906 634 897 L634 812 Q634 799 620 799 L123 799 Z " />
<glyph glyph-name="uni00B3" unicode="&#xb3;" horiz-adv-x="732" d="M353 767 Q274 767 218.5 792.5 Q163 818 134 851 Q105 884 93 913 L105 972 Q109 982 117 982 L183 982 Q194 982 200 969 Q216 935 253 905.5 Q290 876 358 876 Q500 876 500 1000 Q500 1050 466 1079.5 Q432 1109 366 1109 L252 1109 Q238 1109 238 1123 L238 1207 Q238 1215 241 1218 Q244 1221 253 1221 L361 1221 Q428 1221 460 1253 Q492 1285 492 1338 Q492 1392 458.5 1422.5 Q425 1453 357 1453 Q291 1453 255 1422.5 Q219 1392 204 1358 Q200 1353 196 1350.5 Q192 1348 185 1348 L121 1348 Q111 1348 108 1357 L96 1417 Q107 1445 136 1478 Q165 1511 220.5 1537 Q276 1563 357 1563 Q488 1563 553 1505 Q618 1447 618 1346 Q618 1271 583.5 1228.5 Q549 1186 507 1167 Q552 1152 589.5 1112.5 Q627 1073 627 995 Q627 926 594 874.5 Q561 823 499.5 795 Q438 767 353 767 Z " />
<glyph glyph-name="asterisk" unicode="&#x2a;" horiz-adv-x="1003" d="M198 845 Q191 851 191 856 Q191 861 196 868 L362 1083 L101 1160 Q88 1164 88 1171 Q88 1172 90 1180 L139 1328 Q142 1340 150 1340 Q156 1340 160 1338 L413 1246 L407 1519 Q407 1530 409.5 1533 Q412 1536 421 1536 L580 1536 Q588 1536 591.5 1533 Q595 1530 595 1519 L585 1246 L844 1338 Q847 1339 852 1339 Q862 1339 863 1327 L913 1179 Q914 1176 914 1171 Q914 1164 899 1160 L640 1083 L809 869 Q814 862 814 858 Q814 854 805 846 L677 754 Q673 751 669 751 Q662 751 656 760 L500 983 L347 758 Q341 750 336 750 Q331 750 326 754 L198 845 Z " />
<glyph glyph-name="backslash" unicode="&#x5c;" horiz-adv-x="782" d="M536 0 Q520 0 517 18 L68 1517 L66 1525 Q66 1536 82 1536 L246 1536 Q255 1536 259 1531.5 Q263 1527 266 1518 L715 19 Q717 13 717 12 Q717 0 701 0 L536 0 Z " />
<glyph glyph-name="middot" unicode="&#xb7;" horiz-adv-x="886" d="M444 545 Q387 545 349.5 579.5 Q312 614 312 673 Q312 732 349.5 767 Q387 802 444 802 Q502 802 539.5 767 Q577 732 577 673 Q577 614 539.5 579.5 Q502 545 444 545 Z " />
<glyph glyph-name="bullet" unicode="&#x2022;" horiz-adv-x="893" d="M443 336 Q355 336 281.5 377.5 Q208 419 165 494.5 Q122 570 122 669 Q122 765 165.5 843 Q209 921 282.5 965.5 Q356 1010 443 1010 Q534 1010 611.5 965.5 Q689 921 735 843 Q781 765 781 669 Q781 570 735.5 494.5 Q690 419 612.5 377.5 Q535 336 443 336 Z " />
<glyph glyph-name="colon" unicode="&#x3a;" horiz-adv-x="432" d="M130 950 Q118 950 118 964 L118 1147 Q118 1161 130 1161 L300 1161 Q314 1161 314 1147 L314 964 Q314 950 300 950 L130 950 Z M130 0 Q118 0 118 13 L118 197 Q118 211 130 211 L300 211 Q314 211 314 197 L314 13 Q314 0 300 0 L130 0 Z " />
<glyph glyph-name="comma" unicode="&#x2c;" horiz-adv-x="507" d="M78 -310 Q70 -310 67 -307.5 Q64 -305 64 -300 Q64 -294 65 -290 L212 229 Q214 238 219.5 241.5 Q225 245 235 245 L412 245 Q426 245 426 232 Q426 226 424 223 L262 -293 Q257 -310 239 -310 L78 -310 Z " />
<glyph glyph-name="ellipsis" unicode="&#x2026;" horiz-adv-x="1266" d="M130 0 Q118 0 118 13 L118 197 Q118 211 130 211 L300 211 Q314 211 314 197 L314 13 Q314 0 300 0 L130 0 Z M551 0 Q538 0 538 13 L538 197 Q538 211 551 211 L720 211 Q734 211 734 197 L734 13 Q734 0 720 0 L551 0 Z M964 0 Q951 0 951 13 L951 197 Q951 211 964 211 L1133 211 Q1147 211 1147 197 L1147 13 Q1147 0 1133 0 L964 0 Z " />
<glyph glyph-name="exclam" unicode="&#x21;" horiz-adv-x="432" d="M130 490 Q118 490 118 504 L118 1520 Q118 1534 130 1534 L301 1534 Q314 1534 314 1520 L314 504 Q314 490 301 490 L130 490 Z M130 0 Q118 0 118 13 L118 197 Q118 211 130 211 L300 211 Q314 211 314 197 L314 13 Q314 0 300 0 L130 0 Z " />
<glyph glyph-name="exclamdown" unicode="&#xa1;" horiz-adv-x="432" d="M130 950 Q118 950 118 964 L118 1148 Q118 1161 130 1161 L300 1161 Q314 1161 314 1148 L314 964 Q314 950 300 950 L130 950 Z M130 -375 Q118 -375 118 -362 L118 659 Q118 672 130 672 L301 672 Q314 672 314 659 L314 -362 Q314 -375 301 -375 L130 -375 Z " />
<glyph glyph-name="numbersign" unicode="&#x23;" horiz-adv-x="1390" d="M1274 1122 Q1288 1122 1288 1107 L1288 964 Q1288 950 1274 950 L1062 950 L983 581 L1182 581 Q1196 581 1196 567 L1196 424 Q1196 410 1182 410 L946 410 L860 12 Q858 5 855.5 2.5 Q853 0 846 0 L694 0 Q678 0 683 13 L767 410 L475 410 L389 12 Q387 6 384.5 3 Q382 0 374 0 L222 0 Q207 0 211 13 L296 410 L119 410 Q113 410 110.5 413 Q108 416 108 424 L108 567 Q108 575 110.5 578 Q113 581 119 581 L332 581 L411 950 L211 950 Q205 950 202 953 Q199 956 199 964 L199 1107 Q199 1122 211 1122 L448 1122 L533 1522 Q535 1530 537.5 1533 Q540 1536 548 1536 L701 1536 Q717 1536 714 1521 L628 1122 L919 1122 L1004 1522 Q1006 1530 1009 1533 Q1012 1536 1020 1536 L1173 1536 Q1188 1536 1185 1521 L1099 1122 L1274 1122 Z M882 950 L591 950 L512 581 L804 581 L882 950 Z " />
<glyph glyph-name="period" unicode="&#x2e;" horiz-adv-x="432" d="M130 0 Q118 0 118 13 L118 197 Q118 211 130 211 L300 211 Q314 211 314 197 L314 13 Q314 0 300 0 L130 0 Z " />
<glyph glyph-name="question" unicode="&#x3f;" horiz-adv-x="1087" d="M355 510 Q347 510 343.5 514 Q340 518 340 528 Q340 618 373.5 679.5 Q407 741 455 779.5 Q503 818 583 865 Q657 908 701 942 Q745 976 775 1029 Q805 1082 805 1157 Q805 1228 773.5 1282.5 Q742 1337 679.5 1367.5 Q617 1398 529 1398 Q407 1398 336 1344.5 Q265 1291 237 1232 Q233 1227 229.5 1223.5 Q226 1220 220 1220 L107 1220 Q100 1220 97 1223 Q94 1226 92 1232 L72 1317 Q98 1369 152.5 1425.5 Q207 1482 303 1524.5 Q399 1567 534 1567 Q683 1567 788 1517 Q893 1467 947 1376.5 Q1001 1286 1001 1164 Q1001 1058 965 987.5 Q929 917 877.5 876 Q826 835 742 786 Q672 746 632 716 Q592 686 565 640 Q538 594 538 528 Q538 518 534 514 Q530 510 520 510 L355 510 Z M353 0 Q340 0 340 13 L340 197 Q340 211 353 211 L522 211 Q537 211 537 197 L537 13 Q537 0 522 0 L353 0 Z " />
<glyph glyph-name="questiondown" unicode="&#xbf;" horiz-adv-x="1087" d="M542 950 Q528 950 528 964 L528 1148 Q528 1161 542 1161 L711 1161 Q724 1161 724 1148 L724 964 Q724 950 711 950 L542 950 Z M554 -410 Q405 -410 299.5 -359 Q194 -308 140 -216 Q86 -124 86 -2 Q86 104 120.5 174 Q155 244 203.5 284.5 Q252 325 332 373 Q399 413 437 442.5 Q475 472 500.5 517.5 Q526 563 526 629 Q526 639 530 643 Q534 647 544 647 L709 647 Q718 647 721.5 643 Q725 639 725 629 Q725 539 693 477.5 Q661 416 615.5 378 Q570 340 493 292 Q422 249 380.5 215 Q339 181 310.5 128 Q282 75 282 0 Q282 -71 314 -125.5 Q346 -180 408.5 -210.5 Q471 -241 560 -241 Q680 -241 749.5 -189 Q819 -137 850 -79 Q855 -71 859.5 -67.5 Q864 -64 871 -64 L976 -64 Q984 -64 988.5 -67.5 Q993 -71 995 -79 L1016 -160 Q990 -213 935.5 -269 Q881 -325 784.5 -367.5 Q688 -410 554 -410 Z " />
<glyph glyph-name="quotedbl" unicode="&#x22;" horiz-adv-x="821" d="M515 955 Q506 955 501.5 959 Q497 963 497 973 L488 1517 Q488 1527 492 1530.5 Q496 1534 506 1534 L699 1534 Q709 1534 712 1530.5 Q715 1527 715 1517 L707 973 Q707 962 704 958.5 Q701 955 691 955 L515 955 Z M133 955 Q124 955 119.5 959 Q115 963 115 973 L106 1517 Q106 1527 110 1530.5 Q114 1534 124 1534 L317 1534 Q327 1534 330 1530.5 Q333 1527 333 1517 L325 973 Q325 962 322 958.5 Q319 955 309 955 L133 955 Z " />
<glyph glyph-name="quotesingle" unicode="&#x27;" horiz-adv-x="439" d="M133 955 Q124 955 119.5 959 Q115 963 115 973 L106 1517 Q106 1527 110 1530.5 Q114 1534 124 1534 L317 1534 Q327 1534 330 1530.5 Q333 1527 333 1517 L325 973 Q325 962 322 958.5 Q319 955 309 955 L133 955 Z " />
<glyph glyph-name="semicolon" unicode="&#x3b;" horiz-adv-x="507" d="M221 949 Q203 949 203 968 L203 1143 Q203 1161 221 1161 L380 1161 Q399 1161 399 1143 L399 968 Q399 949 380 949 L221 949 Z M73 -310 Q65 -310 62 -307.5 Q59 -305 59 -300 Q59 -294 60 -290 L195 229 Q197 238 202.5 241.5 Q208 245 218 245 L395 245 Q409 245 409 232 Q409 226 407 223 L257 -293 Q252 -310 234 -310 L73 -310 Z " />
<glyph glyph-name="slash" unicode="&#x2f;" horiz-adv-x="782" d="M81 0 Q72 0 67.5 5 Q63 10 67 19 L516 1514 Q519 1523 523 1527.5 Q527 1532 536 1532 L701 1532 Q716 1532 716 1521 Q716 1516 714 1513 L266 18 Q261 0 246 0 L81 0 Z " />
<glyph glyph-name="underscore" unicode="&#x5f;" horiz-adv-x="1026" d="M-2 -313 Q-18 -313 -18 -296 L-18 -177 Q-18 -167 -14.5 -163.5 Q-11 -160 -2 -160 L1024 -160 Q1034 -160 1038 -163.5 Q1042 -167 1042 -177 L1042 -296 Q1042 -305 1038 -309 Q1034 -313 1024 -313 L-2 -313 Z " />
<glyph glyph-name="braceleft" unicode="&#x7b;" horiz-adv-x="692" d="M492 -195 Q392 -195 317 -161 Q242 -127 201.5 -64.5 Q161 -2 161 80 Q161 143 179 190 Q197 237 231 297 Q261 349 275 385 Q289 421 289 465 Q289 540 234 586.5 Q179 633 83 633 Q67 633 67 648 L67 760 Q67 776 83 776 Q179 776 234 822.5 Q289 869 289 943 Q289 987 275 1023.5 Q261 1060 231 1113 Q197 1173 179 1221 Q161 1269 161 1332 Q161 1415 201.5 1477.5 Q242 1540 317 1574 Q392 1608 492 1608 L607 1608 Q614 1608 617 1603.5 Q620 1599 620 1590 L620 1449 Q620 1441 617.5 1438 Q615 1435 607 1435 L551 1435 Q452 1435 398.5 1393.5 Q345 1352 345 1277 Q345 1234 358.5 1198.5 Q372 1163 400 1114 Q431 1059 447 1016 Q463 973 463 918 Q463 845 427 797.5 Q391 750 345.5 725 Q300 700 300 705 Q300 710 345.5 684 Q391 658 427 610.5 Q463 563 463 490 Q463 435 447 393 Q431 351 400 297 Q372 247 358.5 212.5 Q345 178 345 135 Q345 60 398.5 19 Q452 -22 551 -22 L607 -22 Q614 -22 617 -25.5 Q620 -29 620 -38 L620 -177 Q620 -187 617 -191 Q614 -195 607 -195 L492 -195 Z " />
<glyph glyph-name="braceright" unicode="&#x7d;" horiz-adv-x="692" d="M86 -195 Q78 -195 75 -191 Q72 -187 72 -177 L72 -38 Q72 -29 75 -25.5 Q78 -22 86 -22 L141 -22 Q240 -22 294.5 19 Q349 60 349 135 Q349 178 335.5 212.5 Q322 247 294 297 Q263 351 247 393 Q231 435 231 490 Q231 563 267 610.5 Q303 658 348.5 684 Q394 710 394 705 Q394 700 348.5 725 Q303 750 267 797.5 Q231 845 231 918 Q231 973 247 1016 Q263 1059 294 1114 Q322 1163 335.5 1198.5 Q349 1234 349 1277 Q349 1352 294.5 1393.5 Q240 1435 141 1435 L86 1435 Q78 1435 75 1438 Q72 1441 72 1449 L72 1590 Q72 1599 75 1603.5 Q78 1608 86 1608 L200 1608 Q300 1608 375.5 1574 Q451 1540 492 1477.5 Q533 1415 533 1332 Q533 1269 515 1221 Q497 1173 463 1113 Q433 1060 419 1023.5 Q405 987 405 943 Q405 868 459 822 Q513 776 609 776 Q625 776 625 760 L625 648 Q625 633 609 633 Q513 633 459 586.5 Q405 540 405 465 Q405 421 419 385 Q433 349 463 297 Q497 237 515 190 Q533 143 533 80 Q533 -2 492 -64.5 Q451 -127 375.5 -161 Q300 -195 200 -195 L86 -195 Z " />
<glyph glyph-name="bracketleft" unicode="&#x5b;" horiz-adv-x="692" d="M121 -190 Q111 -190 108 -187 Q105 -184 105 -175 L105 1592 Q105 1601 108 1604.5 Q111 1608 121 1608 L602 1608 Q612 1608 615 1604.5 Q618 1601 618 1591 L618 1451 Q618 1442 615 1438.5 Q612 1435 602 1435 L295 1435 L295 -18 L605 -18 Q614 -18 617 -21 Q620 -24 620 -34 L620 -173 Q620 -183 617 -186.5 Q614 -190 605 -190 L121 -190 Z " />
<glyph glyph-name="bracketright" unicode="&#x5d;" horiz-adv-x="692" d="M83 -190 Q74 -190 70.5 -186.5 Q67 -183 67 -173 L67 -34 Q67 -24 70.5 -21 Q74 -18 83 -18 L393 -18 L393 1435 L86 1435 Q76 1435 73 1438.5 Q70 1442 70 1451 L70 1591 Q70 1601 73 1604.5 Q76 1608 86 1608 L567 1608 Q577 1608 580 1604.5 Q583 1601 583 1592 L583 -175 Q583 -184 580 -187 Q577 -190 567 -190 L83 -190 Z " />
<glyph glyph-name="parenleft" unicode="&#x28;" horiz-adv-x="692" d="M461 -172 Q447 -172 440 -161 Q163 224 163 709 Q163 964 237 1190.5 Q311 1417 440 1597 Q448 1608 461 1608 L584 1608 Q597 1608 600 1594 L608 1521 Q498 1354 436 1144 Q374 934 374 709 Q374 486 435.5 284 Q497 82 608 -86 L600 -158 Q598 -166 594.5 -169 Q591 -172 584 -172 L461 -172 Z " />
<glyph glyph-name="parenright" unicode="&#x29;" horiz-adv-x="692" d="M108 -172 Q101 -172 97.5 -169 Q94 -166 92 -158 L84 -86 Q195 82 256.5 284 Q318 486 318 709 Q318 934 256 1144 Q194 1354 84 1521 L92 1594 Q95 1608 108 1608 L228 1608 Q241 1608 250 1597 Q380 1416 454.5 1190 Q529 964 529 709 Q529 227 250 -161 Q242 -172 228 -172 L108 -172 Z " />
<glyph glyph-name="emdash" unicode="&#x2014;" horiz-adv-x="2402" d="M103 577 Q94 577 90 580.5 Q86 584 86 594 L86 750 Q86 760 90 764 Q94 768 103 768 L2298 768 Q2308 768 2312 764 Q2316 760 2316 750 L2316 594 Q2316 584 2312 580.5 Q2308 577 2298 577 L103 577 Z " />
<glyph glyph-name="endash" unicode="&#x2013;" horiz-adv-x="1284" d="M103 577 Q94 577 90 580.5 Q86 584 86 594 L86 750 Q86 760 90 764 Q94 768 103 768 L1181 768 Q1191 768 1195 764 Q1199 760 1199 750 L1199 594 Q1199 584 1195 580.5 Q1191 577 1181 577 L103 577 Z " />
<glyph glyph-name="hyphen" unicode="&#x2d;" horiz-adv-x="923" d="M127 577 Q118 577 114 580.5 Q110 584 110 594 L110 750 Q110 760 114 764 Q118 768 127 768 L795 768 Q804 768 808.5 764 Q813 760 813 750 L813 594 Q813 585 808.5 581 Q804 577 795 577 L127 577 Z " />
<glyph glyph-name="guillemotleft" unicode="&#xab;" horiz-adv-x="1120" d="M573 559 Q562 570 562 580 L562 704 Q562 710 565 715.5 Q568 721 573 726 L1015 1114 Q1019 1118 1025 1118 Q1030 1118 1033 1114 Q1036 1110 1036 1103 L1036 897 Q1036 881 1025 874 L753 643 L1025 412 Q1036 405 1036 389 L1036 181 Q1036 174 1033 170 Q1030 166 1025 166 Q1020 166 1015 171 L573 559 Z M95 559 Q84 570 84 580 L84 704 Q84 710 87 715.5 Q90 721 95 726 L537 1114 Q541 1118 547 1118 Q552 1118 555 1114 Q558 1110 558 1103 L558 897 Q558 881 547 874 L275 643 L547 412 Q558 405 558 389 L558 181 Q558 174 555 170 Q552 166 547 166 Q542 166 537 171 L95 559 Z " />
<glyph glyph-name="guillemotright" unicode="&#xbb;" horiz-adv-x="1120" d="M584 171 Q577 166 573 166 Q568 166 565 170 Q562 174 562 181 L562 389 Q562 404 573 412 L845 643 L573 874 Q562 882 562 897 L562 1103 Q562 1110 565.5 1114 Q569 1118 574 1118 Q579 1118 584 1114 L1025 726 Q1031 720 1033.5 715.5 Q1036 711 1036 704 L1036 580 Q1036 569 1025 559 L584 171 Z M106 171 Q99 166 95 166 Q90 166 87 170 Q84 174 84 181 L84 389 Q84 404 95 412 L367 643 L95 874 Q84 882 84 897 L84 1103 Q84 1110 87.5 1114 Q91 1118 96 1118 Q101 1118 106 1114 L547 726 Q553 720 555.5 715.5 Q558 711 558 704 L558 580 Q558 569 547 559 L106 171 Z " />
<glyph glyph-name="guilsinglleft" unicode="&#x2039;" horiz-adv-x="642" d="M95 559 Q84 570 84 580 L84 704 Q84 710 87 715.5 Q90 721 95 726 L537 1114 Q541 1118 547 1118 Q552 1118 555 1114 Q558 1110 558 1103 L558 897 Q558 881 547 874 L275 643 L547 412 Q558 405 558 389 L558 181 Q558 174 555 170 Q552 166 547 166 Q542 166 537 171 L95 559 Z " />
<glyph glyph-name="guilsinglright" unicode="&#x203a;" horiz-adv-x="642" d="M106 171 Q99 166 95 166 Q90 166 87 170 Q84 174 84 181 L84 389 Q84 404 95 412 L367 643 L95 874 Q84 882 84 897 L84 1103 Q84 1110 87.5 1114 Q91 1118 96 1118 Q101 1118 106 1114 L547 726 Q553 720 555.5 715.5 Q558 711 558 704 L558 580 Q558 569 547 559 L106 171 Z " />
<glyph glyph-name="quotedblbase" unicode="&#x201e;" horiz-adv-x="848" d="M419 -310 Q411 -310 408 -307.5 Q405 -305 405 -300 Q405 -294 406 -290 L553 229 Q555 238 560.5 241.5 Q566 245 576 245 L753 245 Q767 245 767 232 Q767 226 765 223 L603 -293 Q598 -310 580 -310 L419 -310 Z M78 -310 Q70 -310 67 -307.5 Q64 -305 64 -300 Q64 -294 65 -290 L212 229 Q214 238 219.5 241.5 Q225 245 235 245 L412 245 Q426 245 426 232 Q426 226 424 223 L262 -293 Q257 -310 239 -310 L78 -310 Z " />
<glyph glyph-name="quotedblleft" unicode="&#x201c;" horiz-adv-x="848" d="M425 982 Q411 982 411 995 Q411 1000 413 1003 L575 1519 Q579 1536 598 1536 L759 1536 Q773 1536 773 1527 Q773 1521 772 1517 L625 998 Q623 989 617.5 985.5 Q612 982 602 982 L425 982 Z M84 982 Q70 982 70 995 Q70 1000 72 1003 L234 1519 Q238 1536 257 1536 L418 1536 Q432 1536 432 1527 Q432 1521 431 1517 L284 998 Q282 989 276.5 985.5 Q271 982 261 982 L84 982 Z " />
<glyph glyph-name="quotedblright" unicode="&#x201d;" horiz-adv-x="848" d="M425 982 Q411 982 411 991 Q411 997 412 1001 L559 1520 Q561 1529 566.5 1532.5 Q572 1536 582 1536 L759 1536 Q773 1536 773 1523 Q773 1518 771 1515 L609 999 Q605 982 586 982 L425 982 Z M84 982 Q70 982 70 991 Q70 997 71 1001 L218 1520 Q220 1529 225.5 1532.5 Q231 1536 241 1536 L418 1536 Q432 1536 432 1523 Q432 1518 430 1515 L268 999 Q264 982 245 982 L84 982 Z " />
<glyph glyph-name="quoteleft" unicode="&#x2018;" horiz-adv-x="507" d="M84 982 Q70 982 70 995 Q70 1000 72 1003 L234 1519 Q238 1536 257 1536 L418 1536 Q432 1536 432 1527 Q432 1521 431 1517 L284 998 Q282 989 276.5 985.5 Q271 982 261 982 L84 982 Z " />
<glyph glyph-name="quoteright" unicode="&#x2019;" horiz-adv-x="507" d="M84 982 Q70 982 70 991 Q70 997 71 1001 L218 1520 Q220 1529 225.5 1532.5 Q231 1536 241 1536 L418 1536 Q432 1536 432 1523 Q432 1518 430 1515 L268 999 Q264 982 245 982 L84 982 Z " />
<glyph glyph-name="quotesinglbase" unicode="&#x201a;" horiz-adv-x="507" d="M78 -310 Q70 -310 67 -307.5 Q64 -305 64 -300 Q64 -294 65 -290 L212 229 Q214 238 219.5 241.5 Q225 245 235 245 L412 245 Q426 245 426 232 Q426 226 424 223 L262 -293 Q257 -310 239 -310 L78 -310 Z " />
<glyph glyph-name="cent" unicode="&#xa2;" horiz-adv-x="1312" d="M1099 311 Q1106 311 1109.5 308 Q1113 305 1114 298 L1135 215 Q1096 136 1005 63 Q914 -10 757 -27 L757 -270 Q757 -279 753.5 -282.5 Q750 -286 740 -286 L587 -286 Q577 -286 573.5 -282.5 Q570 -279 570 -270 L570 -23 Q418 -1 318 82.5 Q218 166 170.5 293.5 Q123 421 123 581 Q123 740 170.5 868 Q218 996 318 1079 Q418 1162 570 1184 L570 1431 Q570 1440 573.5 1443.5 Q577 1447 587 1447 L740 1447 Q750 1447 753.5 1443.5 Q757 1440 757 1431 L757 1188 Q914 1171 1005 1098.5 Q1096 1026 1135 947 L1114 863 Q1111 850 1099 850 L988 850 Q978 850 972 862 Q945 922 875 971.5 Q805 1021 682 1021 Q499 1021 412 906 Q325 791 325 581 Q325 371 412 255.5 Q499 140 682 140 Q803 140 874 189 Q945 238 972 299 Q975 306 978.5 308.5 Q982 311 988 311 L1099 311 Z " />
<glyph glyph-name="dollar" unicode="&#x24;" horiz-adv-x="1312" d="M1231 421 Q1231 292 1170.5 197 Q1110 102 1003.5 46 Q897 -10 760 -25 L760 -271 Q760 -279 756.5 -282.5 Q753 -286 744 -286 L600 -286 Q590 -286 586.5 -282.5 Q583 -279 583 -271 L583 -28 Q370 -12 252 83.5 Q134 179 82 306 L103 397 Q106 410 120 410 L246 410 Q259 410 264 398 Q308 288 405 217 Q502 146 663 146 Q771 146 850 176.5 Q929 207 972 266 Q1015 325 1015 408 Q1015 511 951.5 563.5 Q888 616 767 646 L483 714 Q372 741 293 784 Q214 827 166 906.5 Q118 986 118 1111 Q118 1244 178 1341 Q238 1438 342.5 1492.5 Q447 1547 583 1560 L583 1776 Q583 1785 587 1788.5 Q591 1792 600 1792 L744 1792 Q753 1792 756.5 1788 Q760 1784 760 1776 L760 1559 Q956 1540 1060 1447.5 Q1164 1355 1216 1228 L1195 1137 Q1192 1123 1179 1123 L1053 1123 Q1046 1123 1042 1126 Q1038 1129 1035 1136 Q990 1248 903 1317.5 Q816 1387 663 1387 Q508 1387 421.5 1319.5 Q335 1252 335 1124 Q335 1049 369 1000 Q403 951 460.5 923 Q518 895 604 874 L879 808 Q985 783 1062 740 Q1139 697 1185 619.5 Q1231 542 1231 421 Z " />
<glyph glyph-name="Euro" unicode="&#x20ac;" horiz-adv-x="1312" d="M1207 307 Q1216 307 1220 303.5 Q1224 300 1226 291 L1247 211 Q1201 121 1094.5 43.5 Q988 -34 800 -34 Q552 -34 416.5 112 Q281 258 241 516 L98 516 Q90 516 86.5 520 Q83 524 83 533 L83 646 Q83 657 86.5 660.5 Q90 664 98 664 L227 664 Q224 714 224 764 Q224 816 227 867 L98 867 Q90 867 86.5 871 Q83 875 83 884 L83 998 Q83 1008 86.5 1012 Q90 1016 98 1016 L242 1016 Q283 1273 418 1418 Q553 1563 800 1563 Q988 1563 1094.5 1485.5 Q1201 1408 1247 1318 L1226 1238 Q1224 1229 1220 1225.5 Q1216 1222 1207 1222 L1106 1222 Q1098 1222 1094 1225 Q1090 1228 1084 1237 Q1056 1292 987 1341.5 Q918 1391 801 1391 Q644 1391 556 1294.5 Q468 1198 437 1016 L1040 1016 Q1049 1016 1052.5 1012 Q1056 1008 1056 998 L1056 884 Q1056 875 1052.5 871 Q1049 867 1040 867 L422 867 Q419 818 419 764 Q419 728 421 664 L1040 664 Q1049 664 1052.5 660.5 Q1056 657 1056 646 L1056 533 Q1056 524 1052.5 520 Q1049 516 1040 516 L437 516 Q467 332 555.5 235 Q644 138 801 138 Q918 138 987 187.5 Q1056 237 1084 292 Q1090 301 1094 304 Q1098 307 1106 307 L1207 307 Z " />
<glyph glyph-name="florin" unicode="&#x192;" horiz-adv-x="1312" d="M247 -413 Q237 -413 233 -409 Q229 -405 229 -395 L229 -260 Q229 -250 233 -246.5 Q237 -243 247 -243 Q326 -243 369.5 -194 Q413 -145 413 -47 L413 991 L256 991 Q246 991 242.5 994.5 Q239 998 239 1008 L239 1144 Q239 1154 242.5 1157.5 Q246 1161 256 1161 L413 1161 L413 1209 Q413 1376 504.5 1470 Q596 1564 769 1564 L913 1564 Q922 1564 926 1560.5 Q930 1557 930 1547 L930 1417 Q930 1406 926 1402.5 Q922 1399 913 1399 L791 1399 Q701 1399 655 1349.5 Q609 1300 609 1204 L609 1161 L915 1161 Q932 1161 932 1144 L932 1008 Q932 998 928 994.5 Q924 991 915 991 L609 991 L609 -48 Q609 -223 516.5 -318 Q424 -413 247 -413 Z " />
<glyph glyph-name="sterling" unicode="&#xa3;" horiz-adv-x="1312" d="M1206 426 Q1222 426 1222 411 L1222 377 Q1222 271 1178.5 185 Q1135 99 1054 49.5 Q973 0 863 0 L99 0 Q90 0 86.5 3.5 Q83 7 83 16 L83 155 Q83 171 99 171 Q154 171 196 197 Q238 223 262 271.5 Q286 320 286 387 L286 619 L99 619 Q83 619 83 635 L83 758 Q83 768 86.5 772 Q90 776 99 776 L286 776 L286 1099 Q286 1240 342 1345 Q398 1450 502.5 1507 Q607 1564 748 1564 Q942 1564 1042.5 1487.5 Q1143 1411 1185 1319 L1164 1239 Q1162 1230 1157.5 1226.5 Q1153 1223 1144 1223 L1043 1223 Q1029 1223 1022 1238 Q994 1298 936 1345 Q878 1392 756 1392 Q626 1392 553 1314.5 Q480 1237 480 1100 L480 776 L839 776 Q849 776 853 772 Q857 768 857 758 L857 635 Q857 619 839 619 L480 619 L480 403 Q480 328 455 277.5 Q430 227 402 202.5 Q374 178 363 174 L847 174 Q940 174 990.5 232 Q1041 290 1041 381 L1041 411 Q1041 420 1044.5 423 Q1048 426 1057 426 L1206 426 Z " />
<glyph glyph-name="yen" unicode="&#xa5;" horiz-adv-x="1312" d="M1215 1024 Q1225 1024 1229 1020.5 Q1233 1017 1233 1007 L1233 892 Q1233 883 1229 880 Q1225 877 1215 877 L916 877 L784 668 L1215 668 Q1225 668 1229 664.5 Q1233 661 1233 652 L1233 537 Q1233 528 1229 524.5 Q1225 521 1215 521 L773 521 L773 13 Q773 5 770.5 2.5 Q768 0 761 0 L560 0 Q553 0 551 2.5 Q549 5 549 12 L549 521 L113 521 Q104 521 100 524.5 Q96 528 96 537 L96 652 Q96 661 100 664.5 Q104 668 113 668 L537 668 L404 877 L113 877 Q103 877 99.5 880 Q96 883 96 892 L96 1007 Q96 1017 100 1020.5 Q104 1024 113 1024 L310 1024 L43 1441 L52 1519 Q53 1525 57 1529.5 Q61 1534 67 1534 L227 1534 Q233 1534 236.5 1531.5 Q240 1529 244 1523 L660 821 L1072 1523 Q1078 1534 1089 1534 L1247 1534 Q1258 1534 1262 1519 L1271 1441 L1008 1024 L1215 1024 Z " />
<glyph glyph-name="approxequal" unicode="&#x2248;" horiz-adv-x="1312" d="M885 691 Q825 691 779 707.5 Q733 724 700.5 747.5 Q668 771 628 809 Q577 856 539.5 878.5 Q502 901 449 901 Q368 901 328.5 846.5 Q289 792 289 714 Q289 704 285 700 Q281 696 271 696 L111 696 Q102 696 98.5 700 Q95 704 95 714 Q95 789 123 870 Q151 951 224.5 1011 Q298 1071 426 1071 Q486 1071 532.5 1054.5 Q579 1038 611 1014.5 Q643 991 685 953 Q736 906 773.5 883.5 Q811 861 863 861 Q944 861 983 916 Q1022 971 1022 1048 Q1022 1058 1026 1062 Q1030 1066 1040 1066 L1201 1066 Q1210 1066 1214 1062 Q1218 1058 1218 1048 Q1218 973 1189.5 892 Q1161 811 1087 751 Q1013 691 885 691 Z M885 275 Q825 275 779 291.5 Q733 308 700.5 331.5 Q668 355 628 393 Q577 440 539.5 462.5 Q502 485 449 485 Q368 485 328.5 430.5 Q289 376 289 298 Q289 288 285 284 Q281 280 271 280 L111 280 Q102 280 98.5 284 Q95 288 95 298 Q95 373 123 454 Q151 535 224.5 595 Q298 655 426 655 Q486 655 532.5 638.5 Q579 622 611 598.5 Q643 575 685 537 Q736 490 773.5 467.5 Q811 445 863 445 Q944 445 983 500 Q1022 555 1022 632 Q1022 642 1026 646 Q1030 650 1040 650 L1201 650 Q1210 650 1214 646 Q1218 642 1218 632 Q1218 557 1189.5 476 Q1161 395 1087 335 Q1013 275 885 275 Z " />
<glyph glyph-name="asciitilde" unicode="&#x7e;" horiz-adv-x="1312" d="M885 483 Q825 483 779 499.5 Q733 516 700.5 539.5 Q668 563 628 601 Q577 648 539.5 670.5 Q502 693 449 693 Q368 693 328.5 638.5 Q289 584 289 506 Q289 496 285 492 Q281 488 271 488 L111 488 Q102 488 98.5 492 Q95 496 95 506 Q95 581 123 662 Q151 743 224.5 803 Q298 863 426 863 Q486 863 532.5 846.5 Q579 830 611 806.5 Q643 783 685 745 Q736 698 773.5 675.5 Q811 653 863 653 Q944 653 983 708 Q1022 763 1022 840 Q1022 850 1026 854 Q1030 858 1040 858 L1201 858 Q1210 858 1214 854 Q1218 850 1218 840 Q1218 765 1189.5 684 Q1161 603 1087 543 Q1013 483 885 483 Z " />
<glyph glyph-name="divide" unicode="&#xf7;" horiz-adv-x="1312" d="M654 994 Q597 994 559.5 1028 Q522 1062 522 1120 Q522 1179 559.5 1214 Q597 1249 654 1249 Q712 1249 750 1214 Q788 1179 788 1120 Q788 1062 750 1028 Q712 994 654 994 Z M117 579 Q109 579 105 583 Q101 587 101 596 L101 749 Q101 759 105 762.5 Q109 766 117 766 L1194 766 Q1204 766 1208 762.5 Q1212 759 1212 749 L1212 596 Q1212 586 1208 582.5 Q1204 579 1194 579 L117 579 Z M654 99 Q597 99 559.5 133 Q522 167 522 225 Q522 284 559.5 319 Q597 354 654 354 Q712 354 750 319 Q788 284 788 225 Q788 167 750 133 Q712 99 654 99 Z " />
<glyph glyph-name="equal" unicode="&#x3d;" horiz-adv-x="1312" d="M117 778 Q101 778 101 795 L101 947 Q101 958 104.5 961.5 Q108 965 117 965 L1194 965 Q1204 965 1208 961.5 Q1212 958 1212 947 L1212 795 Q1212 786 1208 782 Q1204 778 1194 778 L117 778 Z M117 384 Q109 384 105 388 Q101 392 101 401 L101 553 Q101 564 104.5 567.5 Q108 571 117 571 L1194 571 Q1204 571 1208 567.5 Q1212 564 1212 553 L1212 401 Q1212 391 1208 387.5 Q1204 384 1194 384 L117 384 Z " />
<glyph glyph-name="greater" unicode="&#x3e;" horiz-adv-x="1312" d="M120 144 Q114 142 111 142 Q101 142 101 156 L101 335 Q101 344 105 348.5 Q109 353 119 357 L976 671 L119 987 Q109 990 105 994.5 Q101 999 101 1008 L101 1194 Q101 1208 112 1208 Q117 1208 120 1207 L1198 800 Q1212 794 1212 780 L1212 567 Q1212 553 1198 547 L120 144 Z " />
<glyph glyph-name="greaterequal" unicode="&#x2265;" horiz-adv-x="1312" d="M120 285 Q117 284 112 284 Q101 284 101 298 L101 468 Q101 477 105 481.5 Q109 486 119 489 L983 759 L119 1031 Q109 1034 105 1038.5 Q101 1043 101 1052 L101 1229 Q101 1244 111 1244 Q114 1244 120 1242 L1196 884 Q1211 879 1211 865 L1211 660 Q1211 644 1196 641 L120 285 Z M118 0 Q109 0 105 3.5 Q101 7 101 17 L101 168 Q101 178 105 182 Q109 186 118 186 L1194 186 Q1203 186 1207 182 Q1211 178 1211 168 L1211 17 Q1211 7 1207 3.5 Q1203 0 1194 0 L118 0 Z " />
<glyph glyph-name="infinity" unicode="&#x221e;" horiz-adv-x="1858" d="M542 150 Q412 150 308.5 208.5 Q205 267 145.5 380 Q86 493 86 650 Q86 805 145.5 918.5 Q205 1032 308.5 1091.5 Q412 1151 542 1151 Q679 1151 765 1094 Q851 1037 890 972.5 Q929 908 929 894 Q929 908 968.5 972.5 Q1008 1037 1095 1094 Q1182 1151 1319 1151 Q1449 1151 1552.5 1091.5 Q1656 1032 1715.5 918.5 Q1775 805 1775 650 Q1775 493 1715.5 380 Q1656 267 1552.5 208.5 Q1449 150 1319 150 Q1182 150 1096 206.5 Q1010 263 971 327 Q932 391 932 405 Q932 391 892 327 Q852 263 765.5 206.5 Q679 150 542 150 Z M559 321 Q640 321 704 359 Q768 397 804.5 471 Q841 545 841 649 Q841 754 804.5 828 Q768 902 704 940 Q640 978 559 978 Q477 978 412 940.5 Q347 903 309 829 Q271 755 271 649 Q271 545 309 471 Q347 397 412.5 359 Q478 321 559 321 Z M1302 321 Q1383 321 1448.5 359 Q1514 397 1552 471 Q1590 545 1590 649 Q1590 755 1552 829 Q1514 903 1449 940.5 Q1384 978 1302 978 Q1221 978 1157 940 Q1093 902 1056.5 828 Q1020 754 1020 649 Q1020 545 1056.5 471 Q1093 397 1157 359 Q1221 321 1302 321 Z " />
<glyph glyph-name="integral" unicode="&#x222b;" horiz-adv-x="788" d="M63 -407 Q53 -407 49 -403 Q45 -399 45 -389 L45 -255 Q45 -245 49 -241.5 Q53 -238 63 -238 Q145 -238 189 -189 Q233 -140 233 -41 L233 1208 Q233 1375 324.5 1469 Q416 1563 589 1563 L729 1563 Q746 1563 746 1546 L746 1415 Q746 1405 742 1401 Q738 1397 729 1397 L611 1397 Q521 1397 475 1347.5 Q429 1298 429 1202 L429 -42 Q429 -218 335.5 -312.5 Q242 -407 63 -407 Z " />
<glyph glyph-name="less" unicode="&#x3c;" horiz-adv-x="1312" d="M115 547 Q101 553 101 567 L101 780 Q101 794 115 800 L1193 1207 Q1196 1208 1201 1208 Q1212 1208 1212 1194 L1212 1008 Q1212 999 1208 994.5 Q1204 990 1194 987 L337 671 L1194 357 Q1204 353 1208 348.5 Q1212 344 1212 335 L1212 156 Q1212 142 1202 142 Q1199 142 1193 144 L115 547 Z " />
<glyph glyph-name="lessequal" unicode="&#x2264;" horiz-adv-x="1312" d="M116 641 Q101 644 101 660 L101 865 Q101 880 116 884 L1193 1242 Q1199 1244 1202 1244 Q1212 1244 1212 1229 L1212 1052 Q1212 1043 1208 1038.5 Q1204 1034 1194 1031 L328 759 L1194 489 Q1204 486 1208 481.5 Q1212 477 1212 468 L1212 298 Q1212 284 1201 284 Q1196 284 1193 285 L116 641 Z M117 0 Q109 0 105 4 Q101 8 101 17 L101 168 Q101 178 104.5 182 Q108 186 117 186 L1194 186 Q1204 186 1208 182 Q1212 178 1212 168 L1212 17 Q1212 7 1208 3.5 Q1204 0 1194 0 L117 0 Z " />
<glyph glyph-name="logicalnot" unicode="&#xac;" horiz-adv-x="1312" d="M1042 143 Q1031 143 1027.5 146.5 Q1024 150 1024 159 L1024 569 L117 569 Q109 569 105 573 Q101 577 101 586 L101 738 Q101 749 104.5 752.5 Q108 756 117 756 L1193 756 Q1204 756 1208 752.5 Q1212 749 1212 739 L1212 159 Q1212 151 1208.5 147 Q1205 143 1195 143 L1042 143 Z " />
<glyph glyph-name="minus" unicode="&#x2212;" horiz-adv-x="1312" d="M117 569 Q109 569 105 573 Q101 577 101 586 L101 739 Q101 750 104.5 753.5 Q108 757 117 757 L1194 757 Q1204 757 1208 753.5 Q1212 750 1212 739 L1212 586 Q1212 576 1208 572.5 Q1204 569 1194 569 L117 569 Z " />
<glyph glyph-name="multiply" unicode="&#xd7;" horiz-adv-x="1312" d="M326 197 Q320 191 314 191 Q309 191 302 198 L193 305 Q186 312 186 318 Q186 324 193 330 L524 662 L194 992 Q186 1000 186 1005 Q186 1011 193 1018 L301 1125 Q308 1132 314 1132 Q320 1132 326 1125 L656 793 L987 1124 Q995 1132 1000 1132 Q1004 1132 1013 1125 L1120 1017 Q1127 1011 1127 1004 Q1127 998 1120 992 L788 662 L1119 333 Q1126 327 1126 321 Q1126 314 1119 308 L1012 200 Q1005 193 999 193 Q993 193 987 200 L656 528 L326 197 Z " />
<glyph glyph-name="notequal" unicode="&#x2260;" horiz-adv-x="1312" d="M767 778 L699 571 L1194 571 Q1204 571 1208 567.5 Q1212 564 1212 553 L1212 401 Q1212 391 1208 387.5 Q1204 384 1194 384 L637 384 L554 130 Q551 112 535 112 L386 112 Q377 112 372.5 117 Q368 122 372 131 L455 384 L117 384 Q109 384 105 388 Q101 392 101 401 L101 553 Q101 564 104.5 567.5 Q108 571 117 571 L517 571 L585 778 L117 778 Q101 778 101 795 L101 947 Q101 958 104.5 961.5 Q108 965 117 965 L646 965 L737 1240 Q740 1249 744 1253.5 Q748 1258 756 1258 L904 1258 Q913 1258 917.5 1252.5 Q922 1247 918 1239 L828 965 L1194 965 Q1204 965 1208 961.5 Q1212 958 1212 947 L1212 795 Q1212 786 1208 782 Q1204 778 1194 778 L767 778 Z " />
<glyph glyph-name="partialdiff" unicode="&#x2202;" horiz-adv-x="1310" d="M631 -31 Q475 -31 351.5 36 Q228 103 157 229 Q86 355 86 525 Q86 697 151 816 Q216 935 334.5 995 Q453 1055 612 1055 Q744 1055 835 1005 Q926 955 972 888.5 Q1018 822 1024 772 Q1022 955 976.5 1093 Q931 1231 841 1308.5 Q751 1386 621 1386 Q527 1386 461.5 1355 Q396 1324 361 1283.5 Q326 1243 311 1207 Q305 1197 300.5 1194 Q296 1191 287 1191 L181 1191 Q171 1191 166.5 1194.5 Q162 1198 160 1208 L136 1302 Q161 1359 216.5 1417.5 Q272 1476 373.5 1519.5 Q475 1563 621 1563 Q826 1563 961 1455.5 Q1096 1348 1160 1160 Q1224 972 1224 727 Q1224 501 1160 331 Q1096 161 963.5 65 Q831 -31 631 -31 Z M635 139 Q733 139 813 184.5 Q893 230 939.5 316.5 Q986 403 986 520 Q986 634 941.5 718 Q897 802 817.5 847.5 Q738 893 635 893 Q527 893 448.5 849 Q370 805 328 720 Q286 635 286 516 Q286 401 330.5 315.5 Q375 230 454 184.5 Q533 139 635 139 Z " />
</font>
</svg>
